SplineFontDB: 3.2
FontName: msbarocci102
FullName: MS Barocci 102
FamilyName: MS Barocci 102
Weight: Regular
Copyright: 
Version: 
ItalicAngle: 0
UnderlinePosition: 0
UnderlineWidth: 0
Ascent: 800
Descent: 200
InvalidEm: 0
LayerCount: 2
Layer: 0 0 "Back" 1
Layer: 1 0 "Fore" 0
HasVMetrics: 1
XUID: [1021 757 -1823054581 12278]
OS2Version: 0
OS2_WeightWidthSlopeOnly: 0
OS2_UseTypoMetrics: 0
CreationTime: 1721216570
ModificationTime: 1721220221
PfmFamily: 17
TTFWeight: 400
TTFWidth: 5
LineGap: 90
VLineGap: 90
OS2TypoAscent: 0
OS2TypoAOffset: 1
OS2TypoDescent: 0
OS2TypoDOffset: 1
OS2TypoLinegap: 90
OS2WinAscent: 0
OS2WinAOffset: 1
OS2WinDescent: 0
OS2WinDOffset: 1
HheadAscent: 0
HheadAOffset: 1
HheadDescent: 0
HheadDOffset: 1
OS2Vendor: 'PfEd'
Lookup: 4 0 1 "'liga' +A5oDvwO5A70DrAAA +A8ADvwO7A7sDsQPAA7sDrAAA +A8MDxAO/A7kDxwO1A68DsQAA in +A5UDuwO7A7cDvQO5A7oDrgAA lookup 0" { "'liga' +A5oDvwO5A70DrAAA +A8ADvwO7A7sDsQPAA7sDrAAA +A8MDxAO/A7kDxwO1A68DsQAA in +A5UDuwO7A7cDvQO5A7oDrgAA lookup 0-1"  } ['liga' ('DFLT' <'dflt' > 'grek' <'dflt' > ) ]
MarkAttachClasses: 1
DEI: 91125
Encoding: Custom
UnicodeInterp: none
NameList: AGL with PUA
DisplaySize: -48
AntiAlias: 1
FitToEm: 0
WinInfo: 0 38 13
BeginPrivate: 0
EndPrivate
BeginChars: 79 75

StartChar: uni0000
Encoding: 0 0 0
Width: 1000
VWidth: 924
LayerCount: 2
Fore
SplineSet
0 -100 m 1
 1000 -100 l 1
 1000 900 l 1
 0 900 l 1
 0 -100 l 1
EndSplineSet
EndChar

StartChar: comma
Encoding: 2 44 1
Width: 158
VWidth: 924
Flags: W
LayerCount: 2
Fore
SplineSet
109.34375 45.46875 m 1
 67.876953125 42.876953125 l 1
 21.224609375 35.1015625 l 1
 29 4 l 1
 21.224609375 -19.32421875 l 1
 5.673828125 -37.466796875 l 1
 -9.876953125 -50.42578125 l 1
 -35.79296875 -55.609375 l 1
 -48.751953125 -71.16015625 l 1
 -48.751953125 -89.302734375 l 1
 -28.01953125 -107.4453125 l 1
 -12.46875 -115.220703125 l 1
 39.3671875 -120.404296875 l 1
 73.060546875 -107.4453125 l 1
 117.119140625 -84.119140625 l 1
 132.669921875 -65.9765625 l 1
 135.26171875 -21.916015625 l 1
 130.078125 24.734375 l 1
 109.34375 45.46875 l 1
EndSplineSet
EndChar

StartChar: hyphen
Encoding: 3 45 2
Width: 557
VWidth: 924
Flags: W
HStem: 254.993 70.0068<369.017 529.958> 260.909 75.9229<118.79 348.149>
LayerCount: 2
Fore
SplineSet
34.978515625 338.8046875 m 1x80
 162.174804688 336.83203125 l 1x40
 293.314453125 330.916015625 l 1
 386 325 l 1
 530.944335938 319.083984375 l 1
 542.776367188 313.16796875 l 1
 553.622070312 303.307617188 l 1
 553.622070312 283.587890625 l 1
 552.635742188 276.685546875 l 1
 544.748046875 264.853515625 l 1
 529.958007812 256.96484375 l 1
 496.43359375 254.006835938 l 1
 399.803710938 254.993164062 l 1x80
 257.818359375 259.922851562 l 1
 118.790039062 260.909179688 l 1x40
 94.1396484375 251.048828125 l 1
 88.2236328125 241.188476562 l 1
 77.3779296875 228.37109375 l 1
 61.6015625 220.482421875 l 1
 44.8388671875 220.482421875 l 1
 29.0625 223.440429688 l 1
 16.244140625 230.342773438 l 1
 5.3984375 242.174804688 l 1
 0.46875 254.993164062 l 1
 1.4541015625 265.838867188 l 1
 0.46875 274.713867188 l 1
 -5.447265625 287.53125 l 1
 -5.447265625 299.36328125 l 1
 0.46875 316.125976562 l 1
 12.30078125 327.958007812 l 1
 25.119140625 338.8046875 l 1
 34.978515625 338.8046875 l 1x80
EndSplineSet
EndChar

StartChar: period
Encoding: 4 46 3
Width: 198
VWidth: 924
Flags: W
LayerCount: 2
Fore
SplineSet
55.0859375 121.52734375 m 1
 26.09765625 112.46875 l 1
 12.509765625 97.974609375 l 1
 4.357421875 76.234375 l 1
 11.60546875 41.810546875 l 1
 40.591796875 15.541015625 l 1
 79.544921875 -3.482421875 l 1
 119.40234375 2.859375 l 1
 156.54296875 16.447265625 l 1
 181 40 l 1
 193.681640625 66.26953125 l 1
 192.775390625 88.916015625 l 1
 180.09375 101.59765625 l 1
 160.166015625 100.69140625 l 1
 134.80078125 98.880859375 l 1
 115.779296875 102.50390625 l 1
 104.908203125 115.185546875 l 1
 86.791015625 120.62109375 l 1
 55.0859375 121.52734375 l 1
EndSplineSet
EndChar

StartChar: colon
Encoding: 5 58 4
Width: 168
VWidth: 924
Flags: W
LayerCount: 2
Fore
SplineSet
84.943359375 417.83984375 m 1
 69.16796875 416.853515625 l 1
 57.3359375 412.908203125 l 1
 50.43359375 406.0078125 l 1
 49.447265625 392.203125 l 1
 49.447265625 385.30078125 l 1
 54.376953125 377.412109375 l 1
 59.30859375 367.552734375 l 1
 74.09765625 354.734375 l 1
 87.90234375 349.8046875 l 1
 107.623046875 347.83203125 l 1
 126.357421875 346.845703125 l 1
 143.119140625 351.775390625 l 1
 144.10546875 360.650390625 l 1
 146.076171875 384.314453125 l 1
 136.216796875 398.119140625 l 1
 127.341796875 407.978515625 l 1
 109.59375 415.8671875 l 1
 84.943359375 417.83984375 l 1
50.2421875 171.197265625 m 1
 34.46484375 170.2109375 l 1
 22.6328125 166.267578125 l 1
 15.732421875 159.365234375 l 1
 14.74609375 145.560546875 l 1
 14.74609375 138.658203125 l 1
 19.67578125 130.771484375 l 1
 24.60546875 120.91015625 l 1
 39.396484375 108.091796875 l 1
 53.19921875 103.162109375 l 1
 72.919921875 101.189453125 l 1
 91.654296875 100.205078125 l 1
 108.416015625 105.134765625 l 1
 109.40234375 114.0078125 l 1
 111.375 137.671875 l 1
 101.515625 151.4765625 l 1
 92.640625 161.337890625 l 1
 74.892578125 169.224609375 l 1
 50.2421875 171.197265625 l 1
EndSplineSet
EndChar

StartChar: plus
Encoding: 6 43 5
Width: 730
VWidth: 924
Flags: W
HStem: 237.644 90.6387<122.413 198.01> 262.743 83.666<369.525 577.296> 264.138 72.5107<607.818 644.229>
VStem: 238.448 121.315<483.862 539.473> 238.448 112.949<378.481 510.154> 249.604 83.666<167.922 225.094>
LayerCount: 2
Fore
SplineSet
34.861328125 319.915039062 m 1x84
 122.709960938 328.282226562 l 1
 178.487304688 329.676757812 l 1
 220.3203125 339.4375 l 1
 242.631835938 347.803710938 l 1
 245.420898438 378.481445312 l 1
 238.448242188 418.919921875 l 1
 238.448242188 463.541992188 l 1x88
 238.448242188 512.34765625 l 1x90
 249.603515625 555.575195312 l 1x84
 262.153320312 579.280273438 l 1
 277.4921875 591.830078125 l 1
 302.591796875 609.958007812 l 1
 327.692382812 615.53515625 l 1
 352.791992188 604.379882812 l 1
 359.763671875 575.096679688 l 1
 359.763671875 543.024414062 l 1
 359.763671875 516.530273438 l 1x90
 351.397460938 477.486328125 l 1
 351.397460938 453.78125 l 1
 351.397460938 430.075195312 l 1
 351.397460938 395.21484375 l 1
 352.791992188 371.509765625 l 1
 354.186523438 353.381835938 l 1
 369.525390625 346.409179688 l 1
 402.991210938 345.014648438 l 1
 461.557617188 349.198242188 l 1
 534.068359375 346.409179688 l 1x48
 577.295898438 342.2265625 l 1
 607.973632812 336.6484375 l 1x28
 644.228515625 335.25390625 l 1
 679.08984375 322.704101562 l 1
 698.611328125 310.154296875 l 1
 704.189453125 290.631835938 l 1
 701.400390625 272.504882812 l 1
 688.850585938 265.532226562 l 1
 669.328125 262.743164062 l 1x48
 598.211914062 264.137695312 l 1
 549.407226562 264.137695312 l 1x28
 504.78515625 262.743164062 l 1
 447.61328125 262.743164062 l 1
 409.963867188 261.348632812 l 1
 362.552734375 261.348632812 l 1
 351.397460938 252.982421875 l 1x48
 337.453125 241.827148438 l 1
 334.6640625 225.09375 l 1
 333.26953125 177.682617188 l 1
 326.297851562 153.977539062 l 1
 317.930664062 133.061523438 l 1
 313.748046875 99.5947265625 l 1
 313.748046875 73.1005859375 l 1
 319.325195312 52.18359375 l 1
 319.325195312 27.083984375 l 1
 310.958984375 0.58984375 l 1
 295.620117188 -7.7763671875 l 1
 273.309570312 -11.9599609375 l 1
 255.181640625 0.58984375 l 1
 237.053710938 25.689453125 l 1
 232.870117188 95.4111328125 l 1
 239.842773438 153.977539062 l 1
 244.026367188 167.921875 l 1
 249.603515625 193.021484375 l 1
 249.603515625 212.543945312 l 1
 249.603515625 225.09375 l 1
 241.237304688 237.643554688 l 1
 216.137695312 244.616210938 l 1
 198.009765625 241.827148438 l 1
 160.360351562 237.643554688 l 1
 143.626953125 237.643554688 l 1
 119.920898438 236.249023438 l 1
 75.2998046875 230.671875 l 1
 51.59375 239.038085938 l 1
 39.0439453125 254.376953125 l 1
 37.6494140625 272.504882812 l 1
 33.466796875 296.209960938 l 1
 34.861328125 319.915039062 l 1x84
EndSplineSet
EndChar

StartChar: Alpha
Encoding: 8 913 6
Width: 1168
VWidth: 924
Flags: W
LayerCount: 2
Fore
SplineSet
845.685546875 921.69140625 m 1
 812.16015625 919.720703125 l 1
 788.49609375 919.720703125 l 1
 737.224609375 850.69921875 l 1
 676.091796875 791.5390625 l 1
 611.013671875 688.9921875 l 1
 557.76953125 564.755859375 l 1
 516.357421875 521.37109375 l 1
 441.419921875 525.314453125 l 1
 380.287109375 525.314453125 l 1
 330.986328125 525.314453125 l 1
 265.908203125 485.875 l 1
 261.96484375 434.6015625 l 1
 273.796875 401.076171875 l 1
 309.29296875 377.412109375 l 1
 366.482421875 365.580078125 l 1
 398.03515625 367.552734375 l 1
 413.810546875 391.216796875 l 1
 425.642578125 418.82421875 l 1
 457.1953125 420.796875 l 1
 467.056640625 403.048828125 l 1
 443.392578125 373.46875 l 1
 407.89453125 314.30859375 l 1
 350.70703125 266.978515625 l 1
 256.048828125 221.623046875 l 1
 198.859375 205.845703125 l 1
 183.083984375 201.90234375 l 1
 159.419921875 197.958984375 l 1
 121.951171875 199.9296875 l 1
 60.818359375 203.875 l 1
 -6.23046875 235.42578125 l 1
 -27.923828125 261.0625 l 1
 -51.587890625 312.3359375 l 1
 -71.30859375 361.63671875 l 1
 -81.16796875 397.1328125 l 1
 -94.97265625 446.43359375 l 1
 -98.916015625 483.90234375 l 1
 -116.6640625 509.5390625 l 1
 -169.908203125 509.5390625 l 1
 -191.6015625 509.5390625 l 1
 -223.154296875 483.90234375 l 1
 -240.90234375 464.181640625 l 1
 -238.9296875 426.712890625 l 1
 -227.09765625 405.021484375 l 1
 -173.853515625 408.96484375 l 1
 -154.1328125 381.357421875 l 1
 -142.30078125 345.859375 l 1
 -136.384765625 310.36328125 l 1
 -128.49609375 255.146484375 l 1
 -118.63671875 205.845703125 l 1
 -98.916015625 156.544921875 l 1
 -77.224609375 119.076171875 l 1
 -39.755859375 99.357421875 l 1
 17.43359375 97.384765625 l 1
 145.615234375 107.244140625 l 1
 169.279296875 109.216796875 l 1
 224.49609375 123.021484375 l 1
 350.70703125 156.544921875 l 1
 400.0078125 188.09765625 l 1
 435.50390625 215.70703125 l 1
 504.525390625 290.642578125 l 1
 549.880859375 345.859375 l 1
 575.517578125 391.216796875 l 1
 597.208984375 432.62890625 l 1
 646.509765625 438.544921875 l 1
 676.091796875 418.82421875 l 1
 691.8671875 389.244140625 l 1
 680.03515625 334.02734375 l 1
 654.3984375 263.03515625 l 1
 616.9296875 194.013671875 l 1
 587.349609375 126.96484375 l 1
 569.6015625 69.775390625 l 1
 591.29296875 36.251953125 l 1
 624.818359375 14.55859375 l 1
 664.2578125 2.7265625 l 1
 695.810546875 10.615234375 l 1
 719.474609375 20.474609375 l 1
 749.056640625 50.056640625 l 1
 772.720703125 71.748046875 l 1
 800.328125 103.30078125 l 1
 823.9921875 136.82421875 l 1
 825.96484375 158.517578125 l 1
 818.076171875 190.0703125 l 1
 806.244140625 205.845703125 l 1
 792.44140625 209.791015625 l 1
 766.8046875 195.986328125 l 1
 743.140625 178.23828125 l 1
 725.392578125 180.208984375 l 1
 725.392578125 201.90234375 l 1
 733.279296875 235.42578125 l 1
 743.140625 274.8671875 l 1
 754.97265625 334.02734375 l 1
 768.775390625 387.2734375 l 1
 784.552734375 412.908203125 l 1
 806.244140625 420.796875 l 1
 859.490234375 406.9921875 l 1
 928.509765625 391.216796875 l 1
 1005.41992188 371.49609375 l 1
 1121.76953125 361.63671875 l 1
 1165.15429688 377.412109375 l 1
 1175.01367188 408.96484375 l 1
 1180.9296875 426.712890625 l 1
 1161.20898438 470.09765625 l 1
 1129.65820312 481.9296875 l 1
 1092.18945312 450.376953125 l 1
 1052.74804688 446.43359375 l 1
 987.671875 452.349609375 l 1
 914.70703125 462.208984375 l 1
 857.517578125 476.013671875 l 1
 829.908203125 493.76171875 l 1
 833.853515625 548.978515625 l 1
 847.658203125 623.916015625 l 1
 865.40625 667.30078125 l 1
 879.208984375 710.685546875 l 1
 889.0703125 746.181640625 l 1
 896.958984375 789.56640625 l 1
 893.013671875 870.419921875 l 1
 869.349609375 907.888671875 l 1
 845.685546875 921.69140625 l 1
715.53125 618 m 1
 719.474609375 608.140625 l 1
 725.392578125 584.474609375 l 1
 729.3359375 552.923828125 l 1
 719.474609375 517.42578125 l 1
 709.615234375 501.650390625 l 1
 658.341796875 507.56640625 l 1
 662.287109375 525.314453125 l 1
 685.951171875 576.587890625 l 1
 699.755859375 602.224609375 l 1
 715.53125 618 l 1
EndSplineSet
EndChar

StartChar: Gamma
Encoding: 9 915 7
Width: 1000
VWidth: 924
HStem: 715.436 20G<244.756 363.416> 735.436 21G<570.115 750.02>
LayerCount: 2
Fore
SplineSet
945.236328125 880.890625 m 1x80
 910.78515625 861.751953125 l 1
 887.818359375 819.646484375 l 1
 826.57421875 777.541015625 l 1
 750.01953125 739.263671875 l 1
 639.013671875 735.435546875 l 1x40
 570.115234375 750.748046875 l 1
 485.904296875 769.88671875 l 1
 405.521484375 789.025390625 l 1
 355.759765625 800.5078125 l 1
 263.89453125 819.646484375 l 1
 191.166015625 804.3359375 l 1
 133.75 792.853515625 l 1
 83.98828125 750.748046875 l 1
 95.47265625 716.296875 l 1
 122.265625 655.052734375 l 1
 118.439453125 582.326171875 l 1
 68.677734375 333.521484375 l 1
 38.056640625 188.06640625 l 1
 11.26171875 92.373046875 l 1
 3.60546875 38.783203125 l 1
 15.08984375 -18.6328125 l 1
 41.8828125 -60.73828125 l 1
 126.09375 -56.91015625 l 1
 202.650390625 -37.771484375 l 1
 286.859375 -7.150390625 l 1
 279.205078125 31.12890625 l 1
 256.23828125 42.611328125 l 1
 210.3046875 38.783203125 l 1
 145.232421875 38.783203125 l 1
 122.265625 54.09375 l 1
 110.783203125 88.544921875 l 1
 129.921875 188.06640625 l 1
 164.37109375 310.5546875 l 1
 175.85546875 413.904296875 l 1
 214.1328125 582.326171875 l 1
 214.1328125 674.19140625 l 1
 221.7890625 700.986328125 l 1
 244.755859375 723.953125 l 1
 290.6875 735.435546875 l 1
 363.416015625 727.78125 l 1
 443.798828125 712.470703125 l 1
 524.181640625 681.84765625 l 1
 612.220703125 662.708984375 l 1
 681.119140625 647.3984375 l 1
 788.296875 655.052734375 l 1
 876.3359375 678.01953125 l 1
 937.580078125 727.78125 l 1
 998.82421875 827.302734375 l 1
 979.685546875 880.890625 l 1
 945.236328125 880.890625 l 1x80
EndSplineSet
EndChar

StartChar: uni0394
Encoding: 10 916 8
Width: 1060
VWidth: 924
HStem: 136.743 93.0742<879.217 975.761> 156.485 84.6133<338.071 383.183>
LayerCount: 2
Fore
SplineSet
309.850585938 737.499023438 m 1x80
 239.338867188 729.038085938 l 1
 188.569335938 712.116210938 l 1
 154.725585938 695.192382812 l 1
 137.801757812 669.809570312 l 1
 109.596679688 613.399414062 l 1
 98.3154296875 576.733398438 l 1
 103.956054688 514.684570312 l 1
 134.981445312 506.221679688 l 1
 174.467773438 517.504882812 l 1
 205.493164062 548.528320312 l 1
 236.518554688 604.938476562 l 1
 256.260742188 638.784179688 l 1
 284.465820312 652.885742188 l 1
 340.874023438 650.065429688 l 1
 402.924804688 638.784179688 l 1
 467.795898438 621.860351562 l 1
 527.024414062 571.092773438 l 1
 558.049804688 511.862304688 l 1
 541.127929688 486.479492188 l 1
 510.102539062 466.735351562 l 1
 473.436523438 424.428710938 l 1
 448.051757812 387.762695312 l 1
 402.924804688 322.891601562 l 1
 391.643554688 277.764648438 l 1
 383.182617188 243.918945312 l 1
 352.157226562 241.098632812 l 1
 315.491210938 241.098632812 l 1x40
 236.518554688 249.561523438 l 1
 -48.3466796875 272.124023438 l 1
 -99.1162109375 280.584960938 l 1
 -116.038085938 252.381835938 l 1
 -121.678710938 229.817382812 l 1x80
 -124.499023438 207.252929688 l 1
 -107.577148438 195.971679688 l 1
 -87.8330078125 179.049804688 l 1
 -51.1689453125 179.049804688 l 1
 307.030273438 167.766601562 l 1
 388.823242188 159.305664062 l 1
 510.102539062 156.485351562 l 1x40
 639.842773438 150.844726562 l 1
 780.866210938 139.563476562 l 1
 862.659179688 145.204101562 l 1
 958.555664062 136.743164062 l 1
 1065.73144531 136.743164062 l 1
 1099.57714844 136.743164062 l 1
 1119.32128906 164.946289062 l 1
 1119.32128906 201.612304688 l 1
 1088.29589844 204.432617188 l 1
 1060.09082031 207.252929688 l 1
 1012.14355469 212.895507812 l 1
 950.092773438 226.997070312 l 1
 862.659179688 229.817382812 l 1
 811.891601562 229.817382812 l 1
 786.506835938 246.741210938 l 1
 769.584960938 289.047851562 l 1
 744.200195312 339.815429688 l 1
 718.815429688 370.840820312 l 1
 696.252929688 418.788085938 l 1
 679.329101562 480.838867188 l 1
 637.022460938 562.631835938 l 1
 594.715820312 621.860351562 l 1
 527.024414062 683.911132812 l 1
 456.512695312 717.756835938 l 1
 386.002929688 729.038085938 l 1
 309.850585938 737.499023438 l 1x80
639.842773438 390.583007812 m 1
 651.125976562 359.557617188 l 1
 665.227539062 331.354492188 l 1
 673.688476562 277.764648438 l 1
 690.612304688 229.817382812 l 1x80
 662.407226562 226.997070312 l 1
 614.459960938 226.997070312 l 1
 574.973632812 232.637695312 l 1
 524.204101562 235.458007812 l 1
 493.178710938 243.918945312 l 1
 495.999023438 269.303710938 l 1
 507.282226562 286.227539062 l 1
 538.307617188 328.534179688 l 1
 597.536132812 387.762695312 l 1
 639.842773438 390.583007812 l 1
EndSplineSet
EndChar

StartChar: Epsilon
Encoding: 11 917 9
Width: 506
VWidth: 924
Flags: W
HStem: 225.607 64.5938<255.06 308.721 313.506 335.905> 424.176 88.5176<220.203 270.443>
LayerCount: 2
Fore
SplineSet
234.556640625 512.693359375 m 5
 181.923828125 503.125 l 5
 131.68359375 488.76953125 l 5
 83.8359375 460.060546875 l 5
 52.736328125 414.60546875 l 5
 24.02734375 361.97265625 l 5
 14.45703125 314.125 l 5
 14.45703125 268.669921875 l 5
 14.45703125 216.037109375 l 5
 19.2421875 187.328125 l 5
 31.203125 149.05078125 l 5
 40.7734375 117.94921875 l 5
 62.3046875 79.669921875 l 5
 81.443359375 58.138671875 l 5
 117.330078125 36.607421875 l 5
 148.431640625 12.68359375 l 5
 196.279296875 3.11328125 l 5
 248.912109375 7.8984375 l 5
 303.9375 22.25390625 l 5
 347 39 l 5
 397.240234375 58.138671875 l 5
 406.80859375 74.88671875 l 5
 394.84765625 94.025390625 l 5
 368.53125 101.203125 l 5
 313.505859375 91.6328125 l 5
 272.8359375 77.27734375 l 5
 222.595703125 70.1015625 l 5
 196.279296875 77.27734375 l 5
 165.177734375 89.240234375 l 5
 136.46875 105.986328125 l 5
 117.330078125 139.48046875 l 5
 105.3671875 170.58203125 l 5
 105.3671875 194.505859375 l 5
 112.544921875 220.822265625 l 5
 134.076171875 237.568359375 l 5
 177.140625 232.783203125 l 5
 227.380859375 225.607421875 l 5
 313.505859375 225.607421875 l 5
 351.78515625 213.64453125 l 5
 387.669921875 218.4296875 l 5
 413.986328125 232.783203125 l 5
 425.94921875 259.099609375 l 5
 411.59375 280.630859375 l 5
 363.74609375 290.201171875 l 5
 308.720703125 290.201171875 l 5
 253.697265625 297.37890625 l 5
 208.240234375 302.1640625 l 5
 165.177734375 299.771484375 l 5
 129.291015625 304.5546875 l 5
 122.115234375 321.302734375 l 5
 126.900390625 354.794921875 l 5
 172.35546875 400.251953125 l 5
 220.203125 424.17578125 l 5
 270.443359375 426.568359375 l 5
 320.68359375 409.8203125 l 5
 373.31640625 388.2890625 l 5
 425.94921875 373.935546875 l 5
 457.048828125 357.1875 l 5
 478.58203125 361.97265625 l 5
 495.328125 383.50390625 l 5
 485.7578125 419.390625 l 5
 440.302734375 464.845703125 l 5
 392.455078125 483.984375 l 5
 339.822265625 498.33984375 l 5
 289.58203125 510.30078125 l 5
 234.556640625 512.693359375 l 5
EndSplineSet
EndChar

StartChar: Eta
Encoding: 12 919 10
Width: 411
VWidth: 924
Flags: W
LayerCount: 2
Fore
SplineSet
307.873046875 330.072265625 m 5
 278.642578125 324.2265625 l 5
 259.15625 314.482421875 l 5
 251.361328125 277.45703125 l 5
 245.515625 250.17578125 l 5
 224.080078125 240.431640625 l 5
 181.208984375 242.380859375 l 5
 177.3125 267.71484375 l 5
 171.46484375 312.533203125 l 5
 148.08203125 324.2265625 l 5
 95.466796875 320.328125 l 5
 58.44140625 312.533203125 l 5
 40.904296875 293.046875 l 5
 33.109375 277.45703125 l 5
 25.314453125 257.970703125 l 5
 35.05859375 215.099609375 l 5
 35.05859375 185.869140625 l 5
 17.51953125 142.998046875 l 5
 3.87890625 109.87109375 l 5
 3.87890625 80.640625 l 5
 -0.017578125 49.462890625 l 5
 13.623046875 26.078125 l 5
 33.109375 12.4375 l 5
 72.083984375 20.232421875 l 5
 97.416015625 43.615234375 l 5
 103.26171875 65.05078125 l 5
 113.005859375 100.126953125 l 5
 138.337890625 127.408203125 l 5
 173.4140625 133.255859375 l 5
 183.158203125 131.306640625 l 5
 196.798828125 102.076171875 l 5
 198.748046875 61.154296875 l 5
 214.3359375 28.02734375 l 5
 237.720703125 10.48828125 l 5
 280.591796875 0.744140625 l 5
 323.462890625 -1.203125 l 5
 344.8984375 14.384765625 l 5
 352.693359375 43.615234375 l 5
 341 67 l 5
 321.513671875 88.435546875 l 5
 323.462890625 115.716796875 l 5
 344.8984375 164.43359375 l 5
 362.435546875 193.6640625 l 5
 395.564453125 254.07421875 l 5
 385.8203125 298.892578125 l 5
 356.58984375 326.173828125 l 5
 307.873046875 330.072265625 l 5
EndSplineSet
EndChar

StartChar: Theta
Encoding: 13 920 11
Width: 566
VWidth: 924
Flags: W
HStem: 282 84.2109<393.393 469 479.207 539.272>
VStem: 63.1758 89.3145<184.391 220.32>
LayerCount: 2
Fore
SplineSet
208.630859375 651.376953125 m 1
 167.802734375 623.306640625 l 1
 124.419921875 556.958984375 l 1
 101.455078125 477.853515625 l 1
 88.734375 419.359375 l 1
 78.568359375 381.521484375 l 1
 78.466796875 380.43359375 l 1
 55.6015625 381.521484375 l 1
 -13.298828125 381.521484375 l 1
 -18.40234375 297.310546875 l 1
 22.427734375 297.310546875 l 1
 70.435546875 292.947265625 l 1
 60.625 184.390625 l 1
 63.17578125 107.8359375 l 1
 81.0390625 49.142578125 l 1
 137.1796875 -6.998046875 l 1
 193.3203125 8.314453125 l 1
 264.771484375 51.6953125 l 1
 308.15234375 125.69921875 l 1
 343.958984375 253.9296875 l 1
 349.943359375 290.69140625 l 1
 382.236328125 287.103515625 l 1
 469 282 l 1
 543.001953125 279.447265625 l 1
 571.072265625 276.896484375 l 1
 578.728515625 304.966796875 l 1
 568.521484375 353.451171875 l 1
 548.10546875 361.107421875 l 1
 479.20703125 366.2109375 l 1
 425.6171875 368.76171875 l 1
 377.1328125 373.8671875 l 1
 359.18359375 375.08984375 l 1
 354.166015625 396.83203125 l 1
 331.119140625 421.712890625 l 1
 320.912109375 477.853515625 l 1
 303.048828125 546.751953125 l 1
 297.9453125 602.892578125 l 1
 295.39453125 643.72265625 l 1
 257.1171875 651.376953125 l 1
 208.630859375 651.376953125 l 1
229.046875 485.5078125 m 1
 241.8046875 470.197265625 l 1
 246.908203125 431.919921875 l 1
 262.30078125 401.9375 l 1
 254.64453125 381.521484375 l 1
 250.81640625 378.970703125 l 1
 208.7109375 371.314453125 l 1
 197.654296875 372.166015625 l 1
 180.640625 376.41796875 l 1
 180.640625 391.728515625 l 1
 178.048828125 393.841796875 l 1
 183.11328125 431.919921875 l 1
 195.873046875 470.197265625 l 1
 229.046875 485.5078125 l 1
167.8828125 302.4140625 m 1
 239.333984375 302.4140625 l 1
 264.8515625 294.759765625 l 1
 241.8046875 199.701171875 l 1
 216.287109375 148.6640625 l 1
 188.216796875 112.939453125 l 1
 162.69921875 102.732421875 l 1
 152.490234375 128.25 l 1
 149.939453125 186.943359375 l 1
 167.8828125 302.4140625 l 1
EndSplineSet
EndChar

StartChar: Iota
Encoding: 14 921 12
Width: 294
VWidth: 924
Flags: W
LayerCount: 2
Fore
SplineSet
222.65234375 714.927734375 m 1
 186.765625 682.62890625 l 1
 168.822265625 635.978515625 l 1
 150.880859375 571.3828125 l 1
 104.228515625 399.130859375 l 1
 64.75390625 277.119140625 l 1
 21.69140625 151.51953125 l 1
 -7.017578125 72.5703125 l 1
 -7.017578125 40.2734375 l 1
 18.1015625 7.974609375 l 1
 71.931640625 -13.556640625 l 1
 129.34765625 -9.966796875 l 1
 168.822265625 7.974609375 l 1
 183.177734375 33.095703125 l 1
 176 68.98046875 l 1
 129.34765625 86.923828125 l 1
 118.58203125 79.74609375 l 1
 132.9375 140.75390625 l 1
 176 252 l 1
 219.0625 359.65625 l 1
 247.771484375 460.13671875 l 1
 251.361328125 506.7890625 l 1
 283.658203125 600.091796875 l 1
 294.423828125 650.33203125 l 1
 283.658203125 704.162109375 l 1
 222.65234375 714.927734375 l 1
EndSplineSet
EndChar

StartChar: Lambda
Encoding: 15 923 13
Width: 595
VWidth: 924
Flags: W
HStem: 102.061 87.9395<523.273 569.475> 115.801 79.6953<559 609.969>
LayerCount: 2
Fore
SplineSet
385.8671875 536.265625 m 1x80
 352.888671875 525.2734375 l 1
 328.15625 484.05078125 l 1
 297.92578125 437.33203125 l 1
 284.185546875 376.873046875 l 1
 262.201171875 341.1484375 l 1
 218.23046875 277.94140625 l 1
 152.275390625 165.267578125 l 1
 75.328125 74.578125 l 1
 -7.1171875 -35.34765625 l 1
 -37.345703125 -68.32421875 l 1
 -45.58984375 -93.05859375 l 1
 -45.58984375 -131.53125 l 1
 -26.353515625 -161.76171875 l 1
 28.609375 -167.2578125 l 1
 61.5859375 -153.517578125 l 1
 80.82421875 -104.05078125 l 1
 105.556640625 -46.33984375 l 1
 182.50390625 49.845703125 l 1
 226.474609375 110.3046875 l 1
 275.94140625 110.3046875 l 1
 352.888671875 102.060546875 l 1
 435.333984375 102.060546875 l 1x80
 523.2734375 104.80859375 l 1
 613.962890625 115.80078125 l 1
 622.20703125 140.533203125 l 1
 622.20703125 176.259765625 l 1
 602.96875 195.49609375 l 1x40
 559 190 l 1
 506.78515625 190 l 1
 449.07421875 190 l 1
 391.36328125 184.50390625 l 1
 344.64453125 176.259765625 l 1
 308.91796875 190 l 1
 325.408203125 231.22265625 l 1
 352.888671875 277.94140625 l 1
 377.623046875 319.162109375 l 1
 416.095703125 374.125 l 1
 462.814453125 437.33203125 l 1
 487.546875 495.04296875 l 1
 465.5625 519.77734375 l 1
 427.087890625 530.76953125 l 1
 385.8671875 536.265625 l 1x80
EndSplineSet
EndChar

StartChar: Nu
Encoding: 16 925 14
Width: 483
VWidth: 924
Flags: W
LayerCount: 2
Fore
SplineSet
402.09765625 351.513671875 m 1
 373.50390625 339.474609375 l 1
 365.98046875 325.9296875 l 1
 367.484375 297.337890625 l 1
 362.970703125 252.189453125 l 1
 346.416015625 232.626953125 l 1
 305.783203125 234.130859375 l 1
 278.6953125 249.1796875 l 1
 250.103515625 261.21875 l 1
 224.51953125 268.744140625 l 1
 198.9375 270.248046875 l 1
 180.87890625 267.23828125 l 1
 177.869140625 289.8125 l 1
 177.869140625 328.939453125 l 1
 153.791015625 343.98828125 l 1
 116.16796875 348.50390625 l 1
 72.525390625 343.98828125 l 1
 37.9140625 324.42578125 l 1
 24.369140625 309.376953125 l 1
 19.85546875 288.30859375 l 1
 22.865234375 255.19921875 l 1
 37.9140625 238.646484375 l 1
 55.97265625 240.150390625 l 1
 71.021484375 232.626953125 l 1
 68.01171875 211.55859375 l 1
 52.962890625 193.5 l 1
 43.93359375 175.44140625 l 2
 34.904296875 157.3828125 16.845703125 128.7890625 16.845703125 128.7890625 c 1
 3.30078125 103.205078125 l 1
 4.806640625 83.642578125 l 1
 9.3203125 65.583984375 l 1
 19.85546875 46.01953125 l 1
 39.41796875 26.45703125 l 1
 61.9921875 5.388671875 l 1
 89.080078125 2.37890625 l 1
 116.16796875 12.912109375 l 1
 153.791015625 32.4765625 l 1
 176.36328125 44.515625 l 1
 182.3828125 65.583984375 l 1
 170.34375 79.126953125 l 1
 161.314453125 85.146484375 l 1
 146.265625 92.671875 l 1
 132.720703125 110.73046875 l 1
 137.236328125 145.34375 l 1
 146.265625 164.90625 l 1
 170.34375 196.509765625 l 1
 185.392578125 196.509765625 l 1
 216.99609375 187.48046875 l 1
 239.568359375 173.935546875 l 1
 266.65625 166.412109375 l 1
 293.744140625 154.373046875 l 1
 314.814453125 145.34375 l 1
 313.30859375 110.73046875 l 1
 317.82421875 92.671875 l 1
 325.34765625 65.583984375 l 1
 347.921875 47.525390625 l 1
 372 40 l 1
 415.640625 27.9609375 l 1
 441.224609375 35.486328125 l 1
 453.263671875 52.0390625 l 1
 453.263671875 70.09765625 l 1
 447.244140625 91.166015625 l 1
 427.6796875 112.234375 l 1
 435.205078125 131.798828125 l 1
 448.748046875 148.353515625 l 1
 453.263671875 164.90625 l 1
 450.25390625 187.48046875 l 1
 465.302734375 222.091796875 l 1
 484.8671875 250.685546875 l 1
 486.37109375 276.267578125 l 1
 486.37109375 316.900390625 l 1
 472.828125 340.978515625 l 1
 442.728515625 350.0078125 l 1
 402.09765625 351.513671875 l 1
EndSplineSet
EndChar

StartChar: Omicron
Encoding: 17 927 15
Width: 430
VWidth: 924
Flags: W
HStem: -2.07227 129.574<168.367 242.911 249.498 259.191> 62.8711 0.927734<406.865 407.878> 113.158 0.824219<376.845 380.625>
VStem: -3.80176 128.928<131.745 201.118>
LayerCount: 2
Fore
SplineSet
242.120117188 399.736328125 m 2x90
 240.551757812 399.6796875 238.98046875 399.662109375 237.413085938 399.568359375 c 0
 230.680664062 399.166015625 224.029296875 397.966796875 217.409179688 396.73046875 c 0
 215.795898438 396.368164062 214.173828125 396.038085938 212.567382812 395.642578125 c 0
 205.961914062 394.012695312 199.563476562 391.584960938 193.434570312 388.646484375 c 0
 184.1796875 383.958007812 175.227539062 378.604492188 167.407226562 371.724609375 c 0
 159.908203125 365.1328125 152.670898438 358.2265625 146.182617188 350.62109375 c 0
 141.405273438 344.876953125 136.790039062 338.987304688 132.903320312 332.591796875 c 0
 131.125976562 329.697265625 129.723632812 326.829101562 128.596679688 323.99609375 c 0
 125.955078125 324.23828125 110.25 334.069335938 108.446289062 334.0859375 c 1
 112.057617188 333.958984375 123.934570312 326.513671875 123.497070312 328.18359375 c 0
 122.975585938 330.143554688 104.733398438 341.911132812 103.000976562 341.7109375 c 1
 101.961914062 341.590820312 100.671875 340.87890625 99.0888671875 339.333984375 c 0
 95.8388671875 336.155273438 88.5478515625 338.541015625 88.0205078125 332.287109375 c 0
 87.33203125 332.2578125 86.44921875 332.01171875 85.9853515625 332.228515625 c 0
 76.4521484375 336.661132812 64.048828125 302.390625 59.2646484375 297.8828125 c 0
 54.6572265625 293.540039062 49.2080078125 289.9609375 45.1064453125 285.22265625 c 0
 42.9150390625 282.703125 40.4404296875 280.828125 40.6279296875 277.73046875 c 0
 40.791015625 275.014648438 39.43359375 272.690429688 37.6162109375 270.498046875 c 0
 35.2646484375 267.978515625 32.197265625 265.529296875 30.3271484375 262.849609375 c 0
 22.94140625 252.2734375 16.5263671875 239.369140625 9.6494140625 226.37890625 c 0
 4.2431640625 216.153320312 2.359375 204.615234375 1.7958984375 193.966796875 c 0
 1.7099609375 192.331054688 2.544921875 190.270507812 1.9443359375 189.388671875 c 0
 -4.2001953125 180.4765625 -3.9541015625 170.99609375 -4.5576171875 162.02734375 c 0
 -4.701171875 156.57421875 -5.0380859375 151.349609375 -6.8916015625 145.4453125 c 0
 -7.9326171875 142.131835938 -6.828125 139.021484375 -5.9130859375 136.2421875 c 0
 -4.626953125 132.325195312 -3.056640625 128.791015625 -3.8017578125 123.53125 c 0
 -3.9306640625 122.637695312 -4.0048828125 121.072265625 -3.7333984375 120.87890625 c 0
 0.5654296875 117.896484375 1.8623046875 112.864257812 2.8427734375 107.501953125 c 0
 3.8359375 102.0703125 4.513671875 96.353515625 7.0634765625 92.142578125 c 0
 9.1572265625 88.6923828125 12.66015625 86.61328125 9.8818359375 81.27734375 c 0
 9.82421875 81.1650390625 9.9140625 80.849609375 10.0849609375 80.453125 c 0
 10.392578125 79.75390625 10.9404296875 78.837890625 11.3642578125 78.3125 c 0
 13.7509765625 75.328125 16.2724609375 73.02734375 18.5244140625 69.4453125 c 0
 20.5849609375 66.16015625 25.6455078125 66.796875 24.2783203125 60.23046875 c 1
 28.640625 58.1162109375 31.568359375 53.4560546875 35.4931640625 50.830078125 c 0
 36.3369140625 50.26171875 37.2919921875 49.9248046875 38.2041015625 49.626953125 c 0
 42.6025390625 48.1591796875 40.8369140625 41.373046875 44.2958984375 40.8125 c 0
 48.029296875 40.22265625 50.3603515625 40.333984375 52.9111328125 36.15625 c 0
 53.9892578125 34.39453125 56.6513671875 31.0810546875 58.8623046875 31.34765625 c 0
 59.7158203125 31.4521484375 60.4873046875 31.5029296875 61.1787109375 31.48828125 c 0
 64.4931640625 31.4228515625 65.9091796875 29.87109375 65.9658203125 25.509765625 c 0
 65.9658203125 25.126953125 66.7705078125 24.279296875 67.0615234375 24.31640625 c 0
 71.15625 24.8271484375 74.2802734375 22.49609375 77.5107421875 20.3515625 c 0
 80.7412109375 18.2060546875 84.0693359375 16.251953125 87.9853515625 17.556640625 c 0
 88.8515625 17.8447265625 89.7666015625 17.447265625 90.2744140625 16.564453125 c 0
 93.5546875 10.91796875 99.947265625 12.267578125 104.708007812 10.830078125 c 0
 106.044921875 10.42578125 108.083007812 11.3251953125 108.954101562 10.62109375 c 0
 110.428710938 9.4228515625 112.0078125 8.4794921875 113.645507812 7.7265625 c 0
 121.051757812 4.3203125 129.465820312 4.84765625 137.047851562 2.74609375 c 0
 146.373046875 0.1611328125 155.98828125 -0.4697265625 165.362304688 -1.396484375 c 0
 169.827148438 -1.8427734375 174.465820312 -2.9677734375 179.077148438 -2.072265625 c 0x90
 181.767578125 -1.548828125 184.430664062 -1.2236328125 187.040039062 -2.306640625 c 0
 187.768554688 -2.607421875 188.661132812 -2.8662109375 189.403320312 -2.685546875 c 0
 199.91015625 -0.1494140625 210.2421875 -4.580078125 219.911132812 -1.32421875 c 0
 223.084960938 -0.2587890625 225.740234375 -0.94921875 228.477539062 -1.34375 c 0
 229.728515625 -1.5234375 230.986328125 -1.6357421875 232.276367188 -1.4765625 c 0
 240.985351562 -0.3974609375 249.02734375 3.48828125 257.668945312 4.642578125 c 0
 259.106445312 4.8330078125 260.264648438 6.2041015625 261.653320312 4.0234375 c 0
 263.157226562 1.646484375 265.174804688 1.39453125 266.834960938 3.76953125 c 0
 267.9609375 5.376953125 269.259765625 5.3388671875 270.969726562 4.99609375 c 0
 274.467773438 4.30859375 277.618164062 5.9443359375 280.719726562 7.224609375 c 0
 281.916015625 7.7294921875 283.178710938 9.2041015625 284.137695312 8.90625 c 0
 289.125 7.3447265625 293.0546875 11.0849609375 297.428710938 11.474609375 c 0
 305.043945312 12.146484375 311.421875 16.25 318.473632812 18.615234375 c 0
 318.890625 18.7548828125 319.311523438 18.8759765625 319.733398438 18.982421875 c 0
 324.98828125 20.310546875 330.784179688 19.310546875 335.758789062 22.41796875 c 0
 343.258789062 27.109375 352.673828125 27.2734375 361.391601562 29.361328125 c 0
 373.791992188 32.333984375 384.954101562 39.6259765625 398.682617188 41.658203125 c 0
 403.962890625 42.4345703125 404.130859375 48.9404296875 408.942382812 50.5859375 c 0
 410.020507812 50.951171875 409.133789062 53.4423828125 408.473632812 54.662109375 c 0
 406.864257812 57.6484375 404.90625 60.54296875 403.065429688 63.373046875 c 1
 404.624023438 63.1904296875 406.1875 63.0224609375 407.758789062 62.87109375 c 0
 407.799804688 63.1806640625 407.840820312 63.4892578125 407.879882812 63.798828125 c 0
 400.65234375 66.7177734375 393.625 69.76953125 386.676757812 73.15625 c 0
 383.657226562 74.6328125 381.268554688 74.12109375 379.165039062 72.482421875 c 0
 376.682617188 70.55859375 374.169921875 69.982421875 370.434570312 71.392578125 c 0
 366.801757812 72.759765625 363.14453125 71.8525390625 360.274414062 69.92578125 c 0
 357.908203125 68.3388671875 355.296875 67.2900390625 352.245117188 67.05859375 c 0
 350.200195312 66.9033203125 348.622070312 66.6259765625 346.499023438 68.546875 c 0
 344.071289062 70.74609375 341.834960938 71.8427734375 343.053710938 66.888671875 c 0
 344.026367188 62.91796875 341.31640625 63.1640625 339.022460938 64.751953125 c 0
 335.680664062 67.0556640625 333.852539062 66.3330078125 332.260742188 63.970703125 c 1
 332.260742188 64.0654296875 332.260742188 64.1591796875 332.260742188 64.25390625 c 1
 332.2421875 59.6015625 327.841796875 60.330078125 325.557617188 58.419921875 c 0
 325.326171875 58.2216796875 324.229492188 58.767578125 324.229492188 58.767578125 c 2
 324.251953125 62.3603515625 322.850585938 63.4287109375 321.235351562 63.904296875 c 0
 319.586914062 64.3896484375 317.669921875 64.296875 316.416992188 65.517578125 c 0
 312.833007812 69.0166015625 312.342773438 71.9453125 315.098632812 74.44140625 c 0
 316.7109375 75.8994140625 354.665039062 84.806640625 354.588867188 88.099609375 c 0
 354.549804688 89.775390625 356.276367188 89.544921875 357.502929688 89.78515625 c 0
 359.9453125 90.2578125 362.23046875 91.1376953125 364.733398438 91.578125 c 0
 369.198242188 92.369140625 371.393554688 95.8984375 370.870117188 100.64453125 c 0
 370.439453125 104.498046875 371.9765625 104.895507812 374.657226562 104.69140625 c 0
 378.79296875 104.372070312 381.716796875 106.01953125 383.743164062 108.748046875 c 0
 384.326171875 109.524414062 384.76953125 110.553710938 383.846679688 111.935546875 c 0
 382.67578125 113.69140625 381.047851562 114.03515625 379.733398438 113.982421875 c 0x70
 377.650390625 113.893554688 375.72265625 113.627929688 374.206054688 112.732421875 c 0
 354.637695312 112.9453125 316.270507812 117.282226562 272.418945312 133.359375 c 0
 271.944335938 133.41015625 287.989257812 123.108398438 270.997070312 133.412109375 c 0
 269.516601562 133.350585938 267.776367188 134.458007812 266.643554688 132.833984375 c 0
 264.788085938 130.184570312 264.236328125 137.125976562 262.807617188 133.755859375 c 0
 261.194335938 129.947265625 260.41015625 133.861328125 259.227539062 133.78515625 c 0
 258.451171875 133.745117188 257.73828125 133.29296875 256.971679688 132.93359375 c 0
 255.024414062 132.014648438 252.818359375 130.884765625 251.067382812 131.5078125 c 0
 250.505859375 131.708007812 249.989257812 131.715820312 249.473632812 131.71484375 c 0
 248.661132812 131.450195312 247.961914062 131.224609375 247.081054688 130.9609375 c 0
 245.900390625 130.096679688 244.7734375 128.559570312 243.651367188 126.28515625 c 1
 242.4765625 127.028320312 242.899414062 128.482421875 243.233398438 129.849609375 c 1
 236.34375 128.060546875 229.739257812 127.05859375 223.950195312 126.802734375 c 0
 218.375976562 126.555664062 214.318359375 127.0546875 213.461914062 127.759765625 c 0
 213.017578125 128.125976562 209.084960938 127.639648438 202.430664062 127.501953125 c 0
 195.104492188 127.3828125 180.4765625 111.821289062 167.770507812 115.09765625 c 0
 157.818359375 117.590820312 145.984375 122.37890625 136.688476562 131.359375 c 0
 128.056640625 139.44140625 127.079101562 156.759765625 125.125976562 171.537109375 c 0
 123.384765625 182.735351562 125.522460938 192.243164062 129.584960938 201.5546875 c 1
 146.948242188 211.255859375 l 1
 158.043945312 228.109375 l 1
 163.965820312 251.779296875 l 1
 173.952148438 267.341796875 l 1
 176.236328125 264.450195312 178.450195312 261.505859375 180.579101562 258.49609375 c 0
 186.125 250.317382812 191.541015625 242.051757812 197.069335938 233.861328125 c 0
 201.413085938 227.477539062 205.606445312 220.987304688 210.276367188 214.83203125 c 0
 214.107421875 209.782226562 214.96875 208.907226562 219.053710938 204.11328125 c 0
 226.8203125 195.422851562 235.237304688 187.346679688 243.991210938 179.6640625 c 0
 250.73828125 173.822265625 257.973632812 168.595703125 265.336914062 163.5703125 c 0
 271.830078125 159.104492188 278.592773438 155.063476562 285.538085938 151.34765625 c 0
 290.610351562 148.681640625 295.8671875 146.395507812 301.184570312 144.26953125 c 0
 304.4609375 142.9609375 311.803710938 139.750976562 315.188476562 138.775390625 c 0
 316.223632812 138.90625 316.30859375 138.920898438 317.297851562 139.046875 c 0
 317.8046875 139.044921875 318.47265625 139.137695312 319.252929688 139.298828125 c 0
 319.497070312 139.330078125 319.5546875 139.337890625 319.795898438 139.369140625 c 0
 395.69140625 130.359375 412.001953125 131.60546875 415.426757812 132.47265625 c 0
 419.022460938 131.587890625 422.653320312 130.831054688 426.309570312 130.21484375 c 1
 395.782226562 190.421875 l 2
 392.870117188 192.538085938 390.994140625 195.720703125 388.930664062 198.6015625 c 0
 383.872070312 203.9375 380.888671875 212.442382812 376.584960938 219.19921875 c 0
 371.54296875 227.186523438 366.499023438 235.192382812 360.926757812 242.82421875 c 0
 356.998046875 247.993164062 360.5390625 260.431640625 356.448242188 265.47265625 c 0
 353.73828125 268.852539062 350.987304688 272.212890625 348.543945312 275.794921875 c 0
 345.791015625 280.178710938 343.396484375 284.768554688 341.204101562 289.45703125 c 0
 338.154296875 295.990234375 335.315429688 302.612304688 332.543945312 309.267578125 c 0
 329.322265625 316.62109375 325.893554688 323.879882812 322.377929688 331.09765625 c 0
 319.579101562 336.997070312 316.79296875 342.90625 314.362304688 348.970703125 c 0
 312.83203125 352.54296875 311.846679688 354.990234375 310.008789062 358.55078125 c 0
 305.98046875 366.353515625 300.821289062 373.508789062 294.487304688 379.609375 c 0
 292.669921875 381.153320312 290.903320312 382.760742188 289.034179688 384.2421875 c 0
 283.211914062 388.856445312 276.44140625 392.190429688 269.592773438 394.9609375 c 0
 267.970703125 395.516601562 266.3671875 396.126953125 264.727539062 396.62890625 c 0
 257.409179688 398.866210938 249.760742188 399.8046875 242.122070312 399.736328125 c 2
 242.120117188 399.736328125 l 2x90
124.530273438 319.55078125 m 1
 124.834960938 319.307617188 126.034179688 318.076171875 126.547851562 317.6015625 c 0
 126.546875 317.595703125 126.547851562 317.58984375 126.547851562 317.583984375 c 1
 126.018554688 318.080078125 124.952148438 319.180664062 124.534179688 319.55078125 c 2
 124.530273438 319.55078125 l 1
297.930664062 116.822265625 m 1
 297.598632812 116.432617188 297.287109375 115.987304688 297.022460938 115.404296875 c 0
 296.46484375 114.173828125 295.586914062 115.432617188 294.885742188 116.212890625 c 1
 295.938476562 116.422851562 296.858398438 116.608398438 297.930664062 116.822265625 c 1
283.610351562 113.955078125 m 1
 283.545898438 113.90625 283.469726562 113.892578125 283.405273438 113.841796875 c 0
 282.125976562 112.828125 281.044921875 112.7734375 279.512695312 113.015625 c 0
 279.368164062 113.038085938 279.232421875 113.03125 279.088867188 113.048828125 c 1
 280.385742188 113.314453125 282.219726562 113.671875 283.610351562 113.955078125 c 1
379.860351562 113.158203125 m 2x30
 380.49609375 113.211914062 380.765625 113.186523438 380.618164062 113.07421875 c 0
 380.288085938 112.821289062 378.75390625 112.706054688 376.395507812 112.6875 c 1
 377.892578125 112.916992188 379.166992188 113.099609375 379.860351562 113.158203125 c 2x30
373.493164062 112.193359375 m 1
 373.33984375 112.06640625 373.16015625 111.98046875 373.018554688 111.833984375 c 0
 370.759765625 109.474609375 367.55859375 108.431640625 363.372070312 109.83984375 c 0
 362.779296875 110.040039062 362.28125 110.064453125 361.764648438 110.123046875 c 1
 366.427734375 110.975585938 370.41015625 111.685546875 373.493164062 112.193359375 c 1
269.014648438 110.94921875 m 1
 267.822265625 110.497070312 266.627929688 110.0546875 265.411132812 109.744140625 c 0
 263.912109375 109.365234375 262.471679688 108.887695312 260.874023438 109.046875 c 0
 260.458984375 109.083984375 264.057617188 109.889648438 269.014648438 110.94921875 c 1
312.526367188 104.58203125 m 1
 311.982421875 102.500976562 311.34375 100.4921875 308.584960938 103.8125 c 1
 310.0234375 104.094726562 311.088867188 104.301757812 312.526367188 104.58203125 c 1
306.153320312 103.326171875 m 2
 306.030273438 103.250976562 305.930664062 103.123046875 305.772460938 103.1328125 c 0
 305.631835938 103.142578125 305.4921875 103.15234375 305.350585938 103.1640625 c 1
 305.642578125 103.221679688 305.861328125 103.268554688 306.153320312 103.326171875 c 2
400.182617188 64.0078125 m 0
 401.020507812 63.9453125 401.986328125 63.4365234375 402.823242188 63.4140625 c 1
 402.522460938 61.8818359375 402.510742188 59.9521484375 400.200195312 60.25390625 c 0
 399.005859375 60.4169921875 398.15625 61.826171875 398.557617188 62.841796875 c 0
 398.779296875 63.4150390625 399.064453125 63.7333984375 399.395507812 63.888671875 c 0
 399.637695312 64.0009765625 399.903320312 64.0283203125 400.182617188 64.0078125 c 0
307.567382812 59.71875 m 1
 308.224609375 59.5927734375 308.901367188 58.955078125 309.268554688 58.041015625 c 0
 309.873046875 56.552734375 308.92578125 56.2158203125 308.174804688 55.810546875 c 0
 306.766601562 55.046875 305.317382812 54.36328125 303.600585938 54.056640625 c 0
 302.372070312 53.84375 301 53.822265625 299.418945312 54.111328125 c 1
 300.0078125 56.0439453125 300.864257812 57.140625 301.864257812 57.83203125 c 0
 302.146484375 58.0283203125 302.4375 58.193359375 302.737304688 58.333984375 c 0
 304.098632812 58.9716796875 305.622070312 59.1318359375 306.928710938 59.666015625 c 0
 307.131835938 59.7470703125 307.348632812 59.7607421875 307.567382812 59.71875 c 1
EndSplineSet
EndChar

StartChar: Pi
Encoding: 18 928 16
Width: 666
VWidth: 924
Flags: W
HStem: 248.453 84.2188<-16.1035 112.623 330.842 393.348> 274.158 56.5273<622.955 666.407>
LayerCount: 2
Fore
SplineSet
-16.103515625 332.671875 m 1x80
 -23.25390625 248.453125 l 1x80
 174.49609375 258.640625 l 1
 184.474609375 254.986328125 l 1
 185.26171875 230.849609375 l 1
 160.10546875 167.634765625 l 1
 140.98828125 123.697265625 l 1
 105.716796875 93.17578125 l 1
 89.541015625 70.607421875 l 1
 84.970703125 43.125 l 1
 93.05859375 14.130859375 l 1
 120.265625 -3.998046875 l 1
 151.251953125 -6.140625 l 1
 177.40625 15.541015625 l 1
 175.779296875 38.6328125 l 1
 190.1171875 65.8515625 l 1
 231.427734375 111.2109375 l 1
 289.62109375 231.05859375 l 1
 304.220703125 244.064453125 l 1
 319.923828125 258.328125 l 1
 357.423828125 255.037109375 l 1
 393.34765625 253.939453125 l 1
 390.984375 202.32421875 l 1
 373.49609375 132.00390625 l 1
 350.806640625 76.310546875 l 1
 339.671875 30.859375 l 1
 344.451171875 -4.302734375 l 1
 370.974609375 -32.619140625 l 1
 407.056640625 -43.8515625 l 1
 455.689453125 -37.947265625 l 1
 488.830078125 -9.630859375 l 1
 498.755859375 16.701171875 l 1
 492.40234375 37.28515625 l 1
 459.103515625 83.46875 l 1
 458 104 l 1
 458 104 475.858398438 131.69140625 476.48828125 135.609375 c 0
 477.119140625 139.528320312 483 182.837890625 483 182.837890625 c 1
 486.78125 221.70703125 l 1
 489.828125 245.791015625 l 1
 497.0234375 246.521484375 l 1
 501.685546875 259.05859375 l 1
 519.75390625 270.1875 l 1
 582.77734375 274.158203125 l 1
 622.955078125 274.2109375 l 1
 666.81640625 267.145507812 l 1
 682.939453125 290.499023438 l 1
 675.00390625 317.990234375 l 1
 676.158203125 330.3203125 l 1
 619.173828125 330.685546875 l 1x40
 425.111328125 328.177734375 l 1
 -16.103515625 332.671875 l 1x80
EndSplineSet
EndChar

StartChar: Upsilon
Encoding: 19 933 17
Width: 465
VWidth: 924
Flags: W
LayerCount: 2
Fore
SplineSet
398.96875 400.84375 m 1
 371.177734375 384.962890625 l 1
 349.33984375 361.140625 l 1
 307.65234375 321.4375 l 1
 269.93359375 283.71875 l 1
 224.2734375 249.970703125 l 1
 188.541015625 246 l 1
 162.734375 287.689453125 l 1
 150.822265625 339.3046875 l 1
 123.029296875 373.052734375 l 1
 75.38671875 394.888671875 l 1
 17.81640625 392.904296875 l 1
 -13.947265625 379.0078125 l 1
 -21.888671875 353.19921875 l 1
 -33.798828125 325.408203125 l 1
 -29.828125 299.599609375 l 1
 -17.91796875 271.80859375 l 1
 -6.005859375 255.92578125 l 1
 29.7265625 265.8515625 l 1
 53.548828125 271.80859375 l 1
 75.38671875 246 l 1
 87.296875 208.283203125 l 1
 91.267578125 158.65234375 l 1
 93.251953125 132.845703125 l 1
 95.23828125 73.291015625 l 1
 105.1640625 31.6015625 l 1
 138.912109375 -0.162109375 l 1
 168.689453125 -0.162109375 l 1
 198.466796875 19.69140625 l 1
 202.4375 55.423828125 l 1
 216.333984375 85.201171875 l 1
 240.15625 109.0234375 l 1
 261.9921875 134.830078125 l 1
 309.63671875 188.4296875 l 1
 329.48828125 208.283203125 l 1
 359.265625 234.08984375 l 1
 395 246 l 1
 426.76171875 224.1640625 l 1
 436.6875 222.177734375 l 1
 478.376953125 234.08984375 l 1
 494.2578125 283.71875 l 1
 496.244140625 319.453125 l 1
 496.244140625 359.15625 l 1
 480.361328125 386.947265625 l 1
 444.62890625 398.859375 l 1
 398.96875 400.84375 l 1
EndSplineSet
EndChar

StartChar: Phi
Encoding: 20 934 18
Width: 624
VWidth: 924
Flags: W
VStem: 250.825 93.4375<252.957 292.41> 264.567 90.6875<-265.511 -205.98>
LayerCount: 2
Fore
SplineSet
369.104492188 906.240234375 m 1x40
 342.446289062 895.1328125 l 1
 331.338867188 855.14453125 l 1
 320.231445312 821.822265625 l 1
 313.567382812 761.841796875 l 1
 295.793945312 697.41796875 l 1
 282.465820312 637.4375 l 1
 264.692382812 581.900390625 l 1
 209.604492188 544.259765625 l 1
 143.649414062 508.53515625 l 1
 91.4345703125 459.068359375 l 1
 55.7080078125 420.59375 l 1
 11.7373046875 371.126953125 l 1
 -2.0029296875 310.66796875 l 1
 8.9892578125 244.712890625 l 1
 61.2041015625 176.009765625 l 1
 127.159179688 132.0390625 l 1
 182.122070312 104.55859375 l 1
 250.825195312 96.314453125 l 1x80
 261.819335938 60.587890625 l 1
 264.567382812 -104.30078125 l 1
 264.567382812 -205.98046875 l 1x40
 270.063476562 -282.9296875 l 1
 256.323242188 -321.40234375 l 1
 237.084960938 -337.890625 l 1
 209.604492188 -365.373046875 l 1
 209.604492188 -390.10546875 l 1
 226.092773438 -409.34375 l 1
 275.559570312 -423.083984375 l 1
 344.262695312 -412.091796875 l 1x80
 371.743164062 -381.861328125 l 1
 363.499023438 -346.13671875 l 1
 358.002929688 -280.181640625 l 1
 355.254882812 -197.736328125 l 1
 355.254882812 -90.55859375 l 1
 355.254882812 11.12109375 l 1
 355.774414062 59.845703125 l 1
 371.325195312 77.6171875 l 1
 406.870117188 75.396484375 l 1
 455.743164062 73.173828125 l 1
 497.952148438 75.396484375 l 1
 546.825195312 88.724609375 l 1
 577.924804688 117.60546875 l 1
 602.362304688 164.255859375 l 1
 622.356445312 190.9140625 l 1
 629.020507812 255.337890625 l 1
 615.690429688 326.42578125 l 1
 604.583007812 370.85546875 l 1
 586.811523438 408.62109375 l 1
 557.932617188 444.166015625 l 1
 524.610351562 481.931640625 l 1
 471.293945312 526.361328125 l 1
 433.528320312 533.025390625 l 1
 402.426757812 557.462890625 l 1
 397.983398438 597.44921875 l 1
 397.983398438 646.322265625 l 1
 409.090820312 699.638671875 l 1
 422.420898438 797.384765625 l 1
 417.977539062 855.14453125 l 1
 397.983398438 897.353515625 l 1
 369.104492188 906.240234375 l 1x40
250.825195312 470.060546875 m 1
 250.825195312 187.001953125 l 1
 184.870117188 211.736328125 l 1
 124.411132812 239.216796875 l 1
 102.426757812 283.1875 l 1
 113.418945312 351.890625 l 1
 154.641601562 420.59375 l 1
 201.360351562 445.328125 l 1
 250.825195312 470.060546875 l 1
374.493164062 423.341796875 m 1
 418.461914062 423.341796875 l 1
 478.920898438 387.6171875 l 1
 517.395507812 351.890625 l 1
 533.883789062 291.431640625 l 1
 533.883789062 228.224609375 l 1
 487.165039062 165.017578125 l 1
 434.952148438 148.529296875 l 1
 377.241210938 151.27734375 l 1
 344.262695312 151.27734375 l 1
 344.262695312 252.95703125 l 1
 374.493164062 423.341796875 l 1
EndSplineSet
EndChar

StartChar: uni03A9
Encoding: 21 937 19
Width: 573
VWidth: 924
Flags: W
LayerCount: 2
Fore
SplineSet
509.9921875 316.31640625 m 1
 482.509765625 297.080078125 l 1
 466.021484375 269.599609375 l 1
 474.265625 239.369140625 l 1
 479.76171875 192.650390625 l 1
 468.76953125 140.435546875 l 1
 449.533203125 115.703125 l 1
 405.5625 93.71875 l 1
 367.087890625 96.466796875 l 1
 353.34765625 107.458984375 l 1
 353.34765625 148.681640625 l 1
 364.33984375 181.658203125 l 1
 372.583984375 222.880859375 l 1
 369.8359375 258.60546875 l 1
 361.591796875 297.080078125 l 1
 334.111328125 299.828125 l 1
 284.64453125 299.828125 l 1
 262.66015625 283.33984375 l 1
 248.91796875 264.103515625 l 1
 237.92578125 200.89453125 l 1
 213.193359375 145.93359375 l 1
 152.734375 112.955078125 l 1
 100.51953125 101.962890625 l 1
 95.0234375 126.6953125 l 1
 114.259765625 192.650390625 l 1
 130.748046875 211.888671875 l 1
 144.490234375 242.1171875 l 1
 136.244140625 277.84375 l 1
 114.259765625 305.32421875 l 1
 78.533203125 305.32421875 l 1
 40.060546875 283.33984375 l 1
 12.578125 247.61328125 l 1
 -6.658203125 211.888671875 l 1
 -12.154296875 143.18359375 l 1
 -3.91015625 85.474609375 l 1
 20.82421875 47 l 1
 53.80078125 25.013671875 l 1
 103.267578125 0.28125 l 1
 144.490234375 5.77734375 l 1
 191.20703125 30.51171875 l 1
 229.681640625 49.748046875 l 1
 251.666015625 49.748046875 l 1
 290.140625 22.265625 l 1
 323.119140625 5.77734375 l 1
 369.8359375 0.28125 l 1
 413.806640625 0.28125 l 1
 449.533203125 14.021484375 l 1
 499 47 l 1
 545.716796875 82.724609375 l 1
 575.947265625 140.435546875 l 1
 581.443359375 198.146484375 l 1
 578.6953125 239.369140625 l 1
 556.7109375 280.591796875 l 1
 542.96875 299.828125 l 1
 509.9921875 316.31640625 l 1
EndSplineSet
EndChar

StartChar: alpha
Encoding: 22 945 20
Width: 454
VWidth: 924
Flags: W
LayerCount: 2
Fore
SplineSet
380 342.767578125 m 1
 338.8359375 337.279296875 l 1
 314.138671875 312.58203125 l 1
 301.974609375 301.6328125 l 1
 283.951171875 260.44140625 l 1
 256.509765625 235.744140625 l 1
 231.8125 230.255859375 l 1
 216.2578125 241.365234375 l 1
 215.6953125 240.482421875 l 1
 214.24609375 242.802734375 l 1
 212.6015625 243.9765625 l 1
 212.6953125 245.283203125 l 1
 201.955078125 262.46875 l 1
 174.47265625 278.95703125 l 1
 125.0078125 284.453125 l 1
 59.05078125 276.208984375 l 1
 23.326171875 251.474609375 l 1
 4.08984375 207.505859375 l 1
 -4.15625 160.787109375 l 1
 4.08984375 94.83203125 l 1
 26.07421875 56.357421875 l 1
 64.548828125 15.134765625 l 1
 108.517578125 12.38671875 l 1
 163.48046875 26.12890625 l 1
 193.7109375 50.861328125 l 1
 232.18359375 56.357421875 l 1
 262.4140625 59.10546875 l 1
 266.318359375 57.640625 l 1
 270.23046875 46.392578125 l 1
 308.650390625 16.20703125 l 1
 396.46484375 -3.00390625 l 1
 470.55859375 -3.00390625 l 1
 460.755859375 105.93359375 l 1
 398.27734375 85.458984375 l 1
 363.533203125 134.20703125 l 1
 366.27734375 167.138671875 l 1
 374.12890625 204.818359375 l 1
 375.087890625 207.505859375 l 1
 374.916015625 208.59765625 l 1
 380 233 l 1
 404.697265625 279.650390625 l 1
 399.208984375 326.302734375 l 1
 380 342.767578125 l 1
146.9921875 202.009765625 m 1
 174.47265625 199.259765625 l 1
 204.703125 180.0234375 l 1
 204.703125 141.55078125 l 1
 182.71875 122.3125 l 1
 155.236328125 94.83203125 l 1
 97.525390625 97.580078125 l 1
 83.78515625 122.3125 l 1
 81.037109375 149.794921875 l 1
 108.517578125 188.267578125 l 1
 133.251953125 196.51171875 l 1
 146.9921875 202.009765625 l 1
EndSplineSet
EndChar

StartChar: beta
Encoding: 23 946 21
Width: 675
VWidth: 924
Flags: W
HStem: -18.7031 105.361<477.568 520.973>
LayerCount: 2
Fore
SplineSet
439.419921875 297.37890625 m 1
 404.90625 295.5625 l 1
 374.0234375 293.74609375 l 1
 357.67578125 284.662109375 l 1
 352.224609375 251.96484375 l 1
 328.609375 173.8515625 l 1
 297.728515625 121.171875 l 1
 276.8203125 109.341796875 l 1
 251.388671875 100.259765625 l 1
 220.5078125 96.626953125 l 1
 178.7265625 96.626953125 l 1
 156.927734375 98.443359375 l 1
 149.662109375 114.79296875 l 1
 156.037109375 130.25390625 l 1
 177.8359375 168.40234375 l 1
 196 212 l 1
 205.083984375 250.1484375 l 1
 203.267578125 262.86328125 l 1
 183.28515625 284.662109375 l 1
 150.5859375 290.11328125 l 1
 110.623046875 290.11328125 l 1
 70.658203125 290.11328125 l 1
 45.2265625 268.314453125 l 1
 14.34375 268.314453125 l 1
 -12.904296875 270.130859375 l 1
 -16.537109375 230.166015625 l 1
 -12.904296875 210.18359375 l 1
 5.26171875 212 l 1
 34.326171875 212 l 1
 48.859375 195.650390625 l 1
 50.67578125 173.8515625 l 1
 48.859375 141.154296875 l 1
 37.958984375 104.822265625 l 1
 37.958984375 64.859375 l 1
 57.94140625 33.9765625 l 1
 87.0078125 12.177734375 l 1
 128.787109375 -2.353515625 l 1
 185.1015625 3.095703125 l 1
 223.25 4.912109375 l 1
 272.296875 21.26171875 l 1
 295.912109375 35.79296875 l 1
 312.26171875 35.79296875 l 1
 337.693359375 23.078125 l 1
 366.7578125 1.279296875 l 1
 392.189453125 -15.0703125 l 1
 435.787109375 -18.703125 l 1
 477.568359375 -18.703125 l 1
 533.8828125 -9.62109375 l 1
 579.296875 -5.98828125 l 1
 635.609375 8.544921875 l 1
 673.7578125 19.4453125 l 1
 706.455078125 30.34375 l 1
 713.72265625 48.509765625 l 1
 704.638671875 81.20703125 l 1
 695.556640625 97.556640625 l 1
 666.4921875 97.556640625 l 1
 631.9765625 99.373046875 l 1
 586.5625 93.923828125 l 1
 533.8828125 90.291015625 l 1
 490.28515625 86.658203125 l 1
 463.03515625 86.658203125 l 1
 442.123046875 91.197265625 l 1
 436.673828125 107.544921875 l 1
 436.673828125 140.244140625 l 1
 442.123046875 158.41015625 l 1
 452.13671875 192.017578125 l 1
 468.486328125 219.265625 l 1
 470.302734375 266.498046875 l 1
 461.21875 288.296875 l 1
 439.419921875 297.37890625 l 1
EndSplineSet
EndChar

StartChar: gamma
Encoding: 24 947 22
Width: 638
VWidth: 924
Flags: W
LayerCount: 2
Fore
SplineSet
625.91796875 457.310546875 m 1
 581.947265625 440.822265625 l 1
 551.71875 405.095703125 l 1
 510.49609375 330.896484375 l 1
 447.2890625 248.453125 l 1
 408.81640625 198.986328125 l 1
 345.607421875 122.0390625 l 1
 274.15625 53.333984375 l 1
 241.1796875 31.349609375 l 1
 227.439453125 50.5859375 l 1
 219.193359375 86.3125 l 1
 191.712890625 182.498046875 l 1
 144.994140625 281.4296875 l 1
 123.009765625 341.888671875 l 1
 84.53515625 391.35546875 l 1
 32.3203125 416.087890625 l 1
 -19.89453125 399.599609375 l 1
 -39.130859375 385.859375 l 1
 -50.123046875 339.140625 l 1
 -39.130859375 306.1640625 l 1
 -8.900390625 275.93359375 l 1
 13.083984375 248.453125 l 1
 21.328125 234.7109375 l 1
 32.3203125 240.20703125 l 1
 59.802734375 237.458984375 l 1
 79.0390625 212.7265625 l 1
 109.26953125 160.51171875 l 1
 139.498046875 80.81640625 l 1
 139.498046875 39.59375 l 1
 147.7421875 -48.345703125 l 1
 136.75 -100.560546875 l 1
 117.513671875 -128.04296875 l 1
 87.283203125 -158.271484375 l 1
 65.298828125 -210.486328125 l 1
 65.298828125 -257.205078125 l 1
 79.0390625 -292.9296875 l 1
 134.001953125 -309.419921875 l 1
 186.216796875 -268.197265625 l 1
 208.201171875 -226.974609375 l 1
 227.439453125 -177.509765625 l 1
 265.912109375 -122.546875 l 1
 293.39453125 -75.828125 l 1
 395.07421875 20.357421875 l 1
 455.533203125 105.548828125 l 1
 505 177 l 1
 565.458984375 190.7421875 l 1
 634.162109375 226.466796875 l 1
 656.1484375 289.673828125 l 1
 675.384765625 402.34765625 l 1
 669.888671875 449.06640625 l 1
 625.91796875 457.310546875 l 1
EndSplineSet
EndChar

StartChar: delta
Encoding: 25 948 23
Width: 660
VWidth: 924
Flags: W
HStem: 763.977 20G<97.4072 176.514>
LayerCount: 2
Fore
SplineSet
23.404296875 880.947265625 m 1
 -2.115234375 875.84375 l 1
 -35.2880859375 855.427734375 l 1
 -58.2548828125 809.494140625 l 1
 -55.703125 761.009765625 l 1
 -40.3916015625 730.388671875 l 1
 -12.322265625 692.111328125 l 1
 23.404296875 658.935546875 l 1
 71.8896484375 607.900390625 l 1
 105.063476562 567.0703125 l 1
 150.997070312 518.5859375 l 1
 189.274414062 480.306640625 l 1
 212.241210938 452.236328125 l 1
 242.862304688 416.51171875 l 1
 255.622070312 385.888671875 l 1
 268.381835938 345.060546875 l 1
 268.381835938 322.09375 l 1
 268.381835938 304.23046875 l 1
 245.4140625 296.57421875 l 1
 202.033203125 296.57421875 l 1
 156.100585938 288.919921875 l 1
 120.374023438 253.193359375 l 1
 87.2001953125 214.916015625 l 1
 74.44140625 171.53515625 l 1
 74.44140625 128.154296875 l 1
 84.6494140625 79.66796875 l 1
 115.26953125 36.287109375 l 1
 158.650390625 3.11328125 l 1
 202.033203125 3.11328125 l 1
 247.96484375 18.423828125 l 1
 309.209960938 54.150390625 l 1
 352.592773438 92.427734375 l 1
 365.350585938 130.705078125 l 1
 380.663085938 189.3984375 l 1
 380.663085938 237.8828125 l 1
 380.663085938 309.333984375 l 1
 357.6953125 355.267578125 l 1
 316.866210938 434.375 l 1
 276.036132812 485.412109375 l 1
 225 539 l 1
 179.067382812 592.587890625 l 1
 145.893554688 620.658203125 l 1
 94.8564453125 679.3515625 l 1
 54.0263671875 727.8359375 l 1
 54.0263671875 750.802734375 l 1
 61.6826171875 771.216796875 l 1
 97.4072265625 781.42578125 l 1
 138.237304688 783.9765625 l 1
 176.513671875 771.216796875 l 1
 212.241210938 730.388671875 l 1
 268.381835938 658.935546875 l 1
 309.209960938 618.107421875 l 1
 360.247070312 554.310546875 l 1
 408.732421875 508.376953125 l 1
 436.803710938 472.65234375 l 1
 477.631835938 424.16796875 l 1
 518.461914062 375.681640625 l 1
 554.1875 339.95703125 l 1
 607.775390625 299.126953125 l 1
 643.501953125 278.712890625 l 1
 709.850585938 240.43359375 l 1
 778.749023438 232.779296875 l 1
 809.37109375 240.43359375 l 1
 811.921875 258.296875 l 1
 768.541992188 281.263671875 l 1
 732.817382812 306.783203125 l 1
 697.08984375 329.748046875 l 1
 653.709960938 360.37109375 l 1
 607.775390625 406.3046875 l 1
 569.499023438 439.478515625 l 1
 521.013671875 485.412109375 l 1
 487.837890625 521.13671875 l 1
 444.45703125 569.62109375 l 1
 418.939453125 602.796875 l 1
 375.559570312 648.728515625 l 1
 350.0390625 689.55859375 l 1
 329.625 725.28515625 l 1
 296.451171875 781.42578125 l 1
 268.381835938 822.25390625 l 1
 230.104492188 847.7734375 l 1
 173.962890625 868.1875 l 1
 115.26953125 878.39453125 l 1
 56.578125 880.947265625 l 1
 23.404296875 880.947265625 l 1
237.7578125 197.052734375 m 1
 278.587890625 197.052734375 l 1
 291.348632812 176.638671875 l 1
 276.036132812 148.568359375 l 1
 245.4140625 123.048828125 l 1
 207.137695312 97.53125 l 1
 179.067382812 97.53125 l 1
 171.411132812 123.048828125 l 1
 173.962890625 143.46484375 l 1
 191.826171875 176.638671875 l 1
 237.7578125 197.052734375 l 1
EndSplineSet
EndChar

StartChar: epsilon
Encoding: 26 949 24
Width: 234
VWidth: 924
Flags: W
HStem: 147.937 94.8105<128.493 167.155>
LayerCount: 2
Fore
SplineSet
62.5224609375 425.021484375 m 1
 18.05078125 334.139648438 l 1
 -1.8564453125 213.891601562 l 1
 -1.8564453125 106.713867188 l 1
 23.0478515625 42.7236328125 l 1
 52.9697265625 9.3818359375 l 1
 130.053710938 -4.5849609375 l 1
 186.674804688 21.4091796875 l 1
 198.12109375 55.11328125 l 1
 178.600585938 80.7431640625 l 1
 132.551757812 76.2568359375 l 1
 93.658203125 92.3828125 l 1
 98.8486328125 135.569335938 l 1
 167.155273438 147.936523438 l 1
 212.499023438 172.668945312 l 1
 204.254882812 230.379882812 l 1
 175.399414062 242.747070312 l 1
 121.809570312 242.747070312 l 1
 117.688476562 296.334960938 l 1
 138.299804688 333.434570312 l 1
 186.334960938 338.478515625 l 1
 232.915039062 347.9609375 l 1
 233.086914062 397.790039062 l 1
 199.57421875 411.39453125 l 1
 134.176757812 424.124023438 l 1
 62.5224609375 425.021484375 l 1
EndSplineSet
EndChar

StartChar: zeta
Encoding: 27 950 25
Width: 730
VWidth: 924
Flags: W
HStem: -159.746 74.1992<279.475 279.475>
LayerCount: 2
Fore
SplineSet
408.63671875 543.77734375 m 1
 345.4296875 532.78515625 l 1
 276.7265625 505.302734375 l 1
 210.771484375 455.8359375 l 1
 150.3125 411.8671875 l 1
 92.6015625 343.162109375 l 1
 43.134765625 296.4453125 l 1
 7.41015625 235.986328125 l 1
 -20.072265625 192.015625 l 1
 -28.31640625 161.78515625 l 1
 -25.568359375 137.052734375 l 1
 -3.583984375 109.572265625 l 1
 26.646484375 117.81640625 l 1
 65.119140625 170.03125 l 1
 106.341796875 219.49609375 l 1
 109.08984375 233.23828125 l 1
 139.3203125 274.458984375 l 1
 197.03125 343.162109375 l 1
 249.24609375 384.384765625 l 1
 312.453125 428.35546875 l 1
 383.904296875 450.33984375 l 1
 438.8671875 461.33203125 l 1
 502.07421875 453.087890625 l 1
 559.78515625 428.35546875 l 1
 576.2734375 392.62890625 l 1
 598.2578125 348.66015625 l 1
 584.517578125 310.185546875 l 1
 554.2890625 279.955078125 l 1
 499.326171875 249.7265625 l 1
 452.607421875 224.9921875 l 1
 392.1484375 214 l 1
 364.66796875 194.763671875 l 1
 367.416015625 153.541015625 l 1
 375.66015625 120.564453125 l 1
 408.63671875 98.578125 l 1
 466.34765625 95.830078125 l 1
 568.029296875 98.578125 l 1
 617.49609375 87.5859375 l 1
 639.48046875 62.853515625 l 1
 653.220703125 32.623046875 l 1
 644.9765625 -11.34765625 l 1
 620.244140625 -47.072265625 l 1
 587.265625 -69.056640625 l 1
 524.05859375 -88.294921875 l 1
 392.1484375 -93.791015625 l 1
 279.474609375 -85.546875 l 1
 216.267578125 -85.546875 l 1
 153.060546875 -77.302734375 l 1
 114.5859375 -58.064453125 l 1
 92.6015625 -30.583984375 l 1
 73.365234375 -3.1015625 l 1
 37.638671875 7.890625 l 1
 4.66015625 5.142578125 l 1
 -11.828125 -19.591796875 l 1
 1.912109375 -52.568359375 l 1
 29.39453125 -85.546875 l 1
 81.609375 -113.02734375 l 1
 155.80859375 -137.76171875 l 1
 216.267578125 -151.501953125 l 1
 293.21484375 -162.494140625 l 1
 375.66015625 -159.74609375 l 1
 510.318359375 -159.74609375 l 1
 557.037109375 -159.74609375 l 1
 620.244140625 -154.25 l 1
 664.21484375 -129.517578125 l 1
 705.435546875 -91.04296875 l 1
 738.4140625 -38.828125 l 1
 749.40625 18.8828125 l 1
 749.40625 82.08984375 l 1
 741.162109375 117.81640625 l 1
 710.931640625 137.052734375 l 1
 661.46484375 161.78515625 l 1
 622.9921875 172.779296875 l 1
 598.2578125 172.779296875 l 1
 584.517578125 183.771484375 l 1
 612 214 l 1
 661.46484375 235.986328125 l 1
 688.947265625 266.21484375 l 1
 699.939453125 326.673828125 l 1
 680.703125 403.62109375 l 1
 642.228515625 450.33984375 l 1
 601.005859375 483.318359375 l 1
 546.044921875 519.04296875 l 1
 485.5859375 541.029296875 l 1
 408.63671875 543.77734375 l 1
EndSplineSet
EndChar

StartChar: eta
Encoding: 28 951 26
Width: 498
VWidth: 924
Flags: W
LayerCount: 2
Fore
SplineSet
53.26171875 324.3203125 m 1
 23.845703125 239.08203125 l 1
 0.8251953125 156.387695312 l 1
 -14.94921875 83.7861328125 l 1
 4.3203125 19.8359375 l 1
 41.068359375 -11.9697265625 l 1
 103.396484375 -3.572265625 l 1
 142.6171875 21.5322265625 l 1
 203.153320312 60.29296875 l 1
 262.411132812 95.40625 l 1
 295.833984375 115.846679688 l 1
 314.93359375 115.676757812 l 1
 322.948242188 69.3681640625 l 1
 346.224609375 20.3447265625 l 1
 382.03515625 -15.1923828125 l 1
 432.42578125 -38.0078125 l 1
 495.810546875 -9.962890625 l 1
 533.327148438 22.9453125 l 1
 532.559570312 45.505859375 l 1
 515.677734375 66.625 l 1
 475.34765625 63.9951171875 l 1
 440.525390625 23.3984375 l 1
 425.689453125 35.2724609375 l 1
 421 96 l 1
 418.698242188 139.254882812 l 1
 420.232421875 206.00390625 l 1
 402.583007812 252.482421875 l 1
 375.612304688 285.447265625 l 1
 342.512695312 288.599609375 l 1
 306.26171875 283.87109375 l 1
 282.620117188 249.196289062 l 1
 257.401367188 209.79296875 l 1
 206.96484375 160.932617188 l 1
 165.985351562 127.833007812 l 1
 123.4296875 104.19140625 l 1
 93.4833984375 97.88671875 l 1
 80.8740234375 119.953125 l 1
 90.3310546875 168.8125 l 1
 140.767578125 302.784179688 l 1
 186.475585938 400.504882812 l 1
 208.541015625 455.669921875 l 1
 219.57421875 513.987304688 l 1
 221.150390625 564.423828125 l 1
 210.1171875 608.555664062 l 1
 180.170898438 614.860351562 l 1
 132.88671875 608.555664062 l 1
 91.9072265625 569.15234375 l 1
 41.470703125 452.517578125 l 1
 25.708984375 380.015625 l 1
 33.58984375 335.883789062 l 1
 53.26171875 324.3203125 l 1
EndSplineSet
EndChar

StartChar: theta
Encoding: 29 952 27
Width: 265
VWidth: 924
Flags: W
LayerCount: 2
Fore
SplineSet
177.748046875 700.560546875 m 1
 103.318359375 688.65234375 l 1
 52.70703125 670.7890625 l 1
 16.982421875 602.314453125 l 1
 11.02734375 524.908203125 l 1
 8.05078125 465.365234375 l 1
 5.072265625 402.845703125 l 1
 -3.857421875 322.462890625 l 1
 -3.857421875 251.009765625 l 1
 11.02734375 173.60546875 l 1
 37.822265625 93.22265625 l 1
 73.546875 15.81640625 l 1
 127.13671875 0.9296875 l 1
 183.701171875 30.701171875 l 1
 207.51953125 84.291015625 l 1
 258.130859375 179.55859375 l 1
 261.107421875 256.96484375 l 1
 258.130859375 355.2109375 l 1
 258.130859375 444.525390625 l 1
 246.22265625 530.86328125 l 1
 222.404296875 608.267578125 l 1
 207.51953125 661.857421875 l 1
 177.748046875 700.560546875 l 1
133.08984375 536.81640625 m 1
 145 513 l 1
 153.9296875 453.45703125 l 1
 159.884765625 399.8671875 l 1
 150.953125 352.234375 l 1
 103.318359375 355.2109375 l 1
 97.365234375 390.9375 l 1
 103.318359375 438.5703125 l 1
 103.318359375 492.16015625 l 1
 118.205078125 524.908203125 l 1
 133.08984375 536.81640625 l 1
103.318359375 248.033203125 m 1
 136.068359375 233.1484375 l 1
 145 215.28515625 l 1
 130.11328125 173.60546875 l 1
 109.2734375 155.7421875 l 1
 91.41015625 155.7421875 l 1
 91.41015625 191.466796875 l 1
 103.318359375 248.033203125 l 1
EndSplineSet
EndChar

StartChar: iota
Encoding: 30 953 28
Width: 223
VWidth: 924
Flags: W
LayerCount: 2
Fore
SplineSet
106.5078125 341.01171875 m 1
 66.31640625 332.080078125 l 1
 30.58984375 280.724609375 l 1
 12.7265625 231.6015625 l 1
 -0.669921875 180.24609375 l 1
 -0.669921875 122.19140625 l 1
 1.5625 68.6015625 l 1
 10.494140625 44.041015625 l 1
 43.986328125 19.478515625 l 1
 88.64453125 10.546875 l 1
 153.3984375 -0.6171875 l 1
 195.822265625 12.78125 l 1
 222.615234375 35.109375 l 1
 220.3828125 70.8359375 l 1
 184.658203125 77.533203125 l 1
 140 82 l 1
 122.13671875 106.560546875 l 1
 135.53515625 142.287109375 l 1
 153.3984375 180.24609375 l 1
 171.259765625 211.505859375 l 1
 171.259765625 267.326171875 l 1
 162.328125 309.751953125 l 1
 144.466796875 327.61328125 l 1
 106.5078125 341.01171875 l 1
EndSplineSet
EndChar

StartChar: kappa
Encoding: 31 954 29
Width: 470
VWidth: 924
Flags: W
HStem: 23.6602 49.3945<452.002 476.499>
LayerCount: 2
Fore
SplineSet
101.913085938 432.546875 m 1
 73.0986328125 424.314453125 l 1
 40.1689453125 394.12890625 l 1
 9.9814453125 361.197265625 l 1
 -2.3662109375 343.361328125 l 1
 -5.1103515625 321.40625 l 1
 -7.8544921875 296.708984375 l 1
 4.4931640625 273.3828125 l 1
 16.8427734375 269.267578125 l 1
 37.4248046875 281.615234375 l 1
 37.4248046875 251.4296875 l 1
 34.6806640625 207.521484375 l 1
 25.0751953125 166.359375 l 1
 11.3544921875 127.939453125 l 1
 -5.1103515625 105.986328125 l 1
 -10.6005859375 81.2890625 l 1
 -11.9716796875 37.380859375 l 1
 1.7490234375 3.078125 l 1
 20.9580078125 -2.41015625 l 1
 47.0283203125 -3.783203125 l 1
 73.0986328125 1.705078125 l 1
 92.3076171875 23.66015625 l 1
 93.6806640625 44.2421875 l 1
 93.6806640625 60.70703125 l 1
 107.401367188 90.892578125 l 1
 126.610351562 121.080078125 l 1
 141.704101562 127.939453125 l 1
 158.168945312 125.1953125 l 1
 186.983398438 99.125 l 1
 228.147460938 82.66015625 l 1
 274.797851562 59.333984375 l 1
 304.985351562 48.357421875 l 1
 355.752929688 34.63671875 l 1
 403.776367188 29.1484375 l 1
 450.428710938 22.287109375 l 1
 484.731445312 23.66015625 l 1
 497.079101562 41.498046875 l 1
 497.079101562 64.822265625 l 1
 476.499023438 73.0546875 l 1
 428.475585938 86.77734375 l 1
 384.567382812 96.380859375 l 1
 339.288085938 114.21875 l 1
 313.217773438 129.3125 l 1
 283.032226562 151.265625 l 1
 262.450195312 170.474609375 l 1
 251.473632812 186.94140625 l 1
 252.844726562 208.89453125 l 1
 272.053710938 223.98828125 l 1
 322.823242188 254.173828125 l 1
 388.682617188 296.708984375 l 1
 439.452148438 333.755859375 l 1
 457.288085938 359.826171875 l 1
 450.428710938 381.779296875 l 1
 425.731445312 390.01171875 l 1
 377.706054688 388.640625 l 1
 336.543945312 374.919921875 l 1
 277.541992188 336.5 l 1
 228.147460938 303.5703125 l 1
 196.588867188 278.87109375 l 1
 169.145507812 274.755859375 l 1
 158.168945312 289.84765625 l 1
 165.030273438 346.10546875 l 1
 158.168945312 385.896484375 l 1
 132.098632812 431.17578125 l 1
 101.913085938 432.546875 l 1
EndSplineSet
EndChar

StartChar: lambda
Encoding: 32 955 30
Width: 743
VWidth: 924
Flags: W
LayerCount: 2
Fore
SplineSet
128.6640625 783.6953125 m 1
 99.392578125 780.037109375 l 1
 84.755859375 747.10546875 l 1
 93.904296875 705.029296875 l 1
 114.02734375 686.734375 l 1
 145.12890625 670.267578125 l 1
 141.470703125 640.99609375 l 1
 137.810546875 615.384765625 l 1
 157.935546875 606.236328125 l 1
 190.865234375 595.259765625 l 1
 218.30859375 604.40625 l 1
 245.75 597.08984375 l 1
 285.998046875 556.83984375 l 1
 355.51953125 498.296875 l 1
 388.44921875 450.73046875 l 1
 392.53125 445.677734375 l 1
 370.154296875 439.75390625 l 1
 205.501953125 324.498046875 l 1
 167.08203125 275.1015625 l 1
 106.7109375 234.853515625 l 1
 53.65625 200.09375 l 1
 -35.98828125 114.107421875 l 1
 -74.408203125 84.8359375 l 1
 -68.919921875 46.416015625 l 1
 -52.455078125 13.486328125 l 1
 -30.5 2.509765625 l 1
 -1.228515625 4.337890625 l 1
 49.99609375 18.974609375 l 1
 71.94921875 39.099609375 l 1
 110.369140625 83.005859375 l 1
 128.6640625 128.744140625 l 1
 150.6171875 159.84375 l 1
 210.990234375 198.263671875 l 1
 265.875 242.169921875 l 1
 337.224609375 293.396484375 l 1
 401.255859375 340.962890625 l 1
 441.50390625 357.427734375 l 1
 457.794921875 364.875 l 1
 465.287109375 355.59765625 l 1
 520.171875 291.56640625 l 1
 560.419921875 236.681640625 l 1
 597.009765625 189.115234375 l 1
 646.40625 119.595703125 l 1
 692.142578125 28.12109375 l 1
 765.322265625 -90.79296875 l 1
 801.912109375 -127.3828125 l 1
 845.818359375 -143.849609375 l 1
 871.431640625 -136.53125 l 1
 882.408203125 -114.576171875 l 1
 884.23828125 -94.453125 l 1
 867.771484375 -81.646484375 l 1
 851.306640625 -74.328125 l 1
 811.05859375 9.828125 l 1
 770.810546875 92.154296875 l 1
 739.708984375 134.232421875 l 1
 659.212890625 251.318359375 l 1
 576.884765625 357.427734375 l 1
 533.787109375 416.294921875 l 1
 543.955078125 426.947265625 l 1
 540.296875 459.87890625 l 1
 490.900390625 472.685546875 l 1
 489.23046875 472.216796875 l 1
 426.869140625 533.056640625 l 1
 337.224609375 630.01953125 l 1
 258.556640625 708.6875 l 1
 196.35546875 756.25390625 l 1
 128.6640625 783.6953125 l 1
EndSplineSet
EndChar

StartChar: uni03BC
Encoding: 33 956 31
Width: 687
VWidth: 924
Flags: W
HStem: -7.8125 71.6543<23.9939 86.0365 475.813 541.383 605.062 679.581> 25.0117 83.1465<223.555 294.359 356.039 373.12>
VStem: 115.049 138.01<122.537 273.908>
LayerCount: 2
Fore
SplineSet
208.01171875 323.4140625 m 1x60
 202.034179688 324.13671875 196.185546875 320.895507812 190.564453125 318.736328125 c 0
 187.66015625 317.620117188 185.208984375 315.546875 182.7109375 313.69140625 c 0
 178.104492188 310.267578125 174.513671875 305.7578125 170.998046875 301.294921875 c 0
 164.796875 292.923828125 159.99609375 283.6484375 155.5078125 274.28125 c 0
 150.662109375 264.059570312 147.134765625 253.30859375 143.947265625 242.478515625 c 0
 141.587890625 234.158203125 139.704101562 225.715820312 137.583984375 217.333984375 c 0
 136.216796875 211.571289062 134.307617188 205.97265625 132.24609375 200.4296875 c 0
 129.086914062 192.305664062 126.158203125 184.098632812 123.369140625 175.841796875 c 0
 119.892578125 165.90234375 117.75390625 155.596679688 116.166015625 145.2109375 c 0
 115.211914062 137.697265625 114.684570312 130.112304688 115.048828125 122.537109375 c 0
 115.263671875 118.079101562 115.546875 116.368164062 116.025390625 112.66796875 c 0
 115.927734375 112.546875 115.84375 112.415039062 115.744140625 112.294921875 c 0
 111.322265625 107.020507812 106.817382812 101.80078125 101.873046875 97.00390625 c 0
 99.3671875 94.544921875 96.931640625 91.947265625 94.1953125 89.751953125 c 0
 90.189453125 87.2314453125 85.666015625 85.6357421875 81.298828125 83.873046875 c 0
 75.1103515625 81.466796875 68.9912109375 78.89453125 62.853515625 76.361328125 c 0
 58.048828125 74.4443359375 47.3662109375 66.6376953125 42.3662109375 65.275390625 c 0
 39.078125 64.4072265625 35.7890625 63.5087890625 32.4150390625 63.037109375 c 0
 30.708984375 63.0126953125 29.0341796875 63.0615234375 27.3330078125 63.189453125 c 0
 26.896484375 63.22265625 26.4609375 63.2626953125 26.0244140625 63.298828125 c 0
 25.810546875 63.31640625 25.5341796875 63.3974609375 25.3818359375 63.3515625 c 0
 24.826171875 63.5927734375 23.99609375 63.92578125 23.9931640625 64.111328125 c 0
 20.6943359375 66.4384765625 17.615234375 69.0283203125 14.8857421875 72.017578125 c 0
 12.6591796875 74.455078125 10.4384765625 76.9033203125 8.6103515625 79.662109375 c 0
 8.5859375 79.6875 8.564453125 79.697265625 8.5380859375 79.73828125 c 0
 -5.8603515625 131.177734375 -57.65625 110.509765625 -45.5927734375 54.7109375 c 0
 -43.9609375 46.9150390625 -40.3603515625 39.833984375 -36.2802734375 33.0703125 c 0
 -31.9013671875 26 -20.6826171875 25.5029296875 -15.146484375 19.32421875 c 0
 -8.5390625 11.9951171875 -0.67578125 12.896484375 7.267578125 7.078125 c 0
 13.4609375 2.70703125 20.0185546875 -1.197265625 27.103515625 -3.9453125 c 0
 28.7314453125 -4.5771484375 29.306640625 -6.1943359375 30.953125 -6.771484375 c 0
 41.30078125 -9.921875 33.5322265625 -8.2626953125 44.28515625 -8.408203125 c 0
 55.0107421875 -8.380859375 59.2998046875 -4.69140625 69.625 -2.01171875 c 0
 77.9541015625 0.173828125 86.005859375 3.224609375 93.994140625 6.404296875 c 0
 99.9208984375 8.8154296875 103.977539062 9.5146484375 109.943359375 11.828125 c 0
 118.28515625 14.88671875 126.291992188 18.7109375 134.03515625 23.046875 c 0
 143.306640625 28.3076171875 149.206054688 32.3828125 156.771484375 39.78125 c 0
 163.64453125 46.447265625 167.40234375 38.720703125 173.564453125 46.0390625 c 0
 173.5859375 46.0634765625 173.620117188 46.123046875 173.640625 46.1484375 c 0
 173.71875 46.1162109375 173.83203125 46.04296875 173.908203125 46.01171875 c 0
 181.036132812 43.19140625 180.098632812 44.982421875 187.5078125 43.087890625 c 0
 193.986328125 41.3232421875 199.64453125 43.6083984375 206.068359375 41.658203125 c 0
 212.641601562 39.626953125 219.3359375 38.0439453125 226.08203125 36.720703125 c 0
 229.189453125 36.330078125 232.181640625 35.470703125 235.20703125 34.71484375 c 0
 239.811523438 33.5712890625 244.442382812 32.544921875 249.0859375 31.576171875 c 0
 255.0390625 30.3671875 260.990234375 29.1513671875 266.943359375 27.947265625 c 0
 274.587890625 26.296875 282.3515625 25.44140625 290.1484375 25.00390625 c 0
 296.25 24.6640625 302.35546875 24.9853515625 308.45703125 25.01171875 c 0x60
 315.0703125 24.9287109375 321.681640625 24.7314453125 328.294921875 24.70703125 c 0
 336.3984375 24.6015625 344.46875 25.1328125 352.494140625 26.208984375 c 0
 360.595703125 27.423828125 368.603515625 29.1083984375 376.544921875 31.103515625 c 0
 383.884765625 32.9990234375 391.032226562 35.498046875 398.12109375 38.16015625 c 1
 402.194335938 33.6025390625 406.725585938 29.4658203125 411.69140625 25.796875 c 0
 415.502929688 22.9814453125 417.063476562 22.1689453125 421.150390625 19.697265625 c 0
 428.771484375 15.2861328125 436.770507812 11.642578125 444.98046875 8.490234375 c 0
 453.875976562 5.119140625 462.99609375 2.501953125 472.302734375 0.568359375 c 0
 481.649414062 -1.013671875 491.114257812 -1.6611328125 500.51171875 -2.869140625 c 0
 512.014648438 -4.5986328125 523.55078125 -6.0205078125 535.13671875 -7.0390625 c 0
 546.864257812 -8.033203125 558.641601562 -7.9931640625 570.3984375 -7.8125 c 0
 581.375976562 -7.6904296875 592.323242188 -6.958984375 603.220703125 -5.6640625 c 0
 610.227539062 -4.765625 617.137695312 -3.2998046875 624.02734375 -1.771484375 c 0
 630.65625 -0.248046875 719.5703125 23.150390625 726.16015625 24.8330078125 c 0
 734.754882812 27.1142578125 743.326171875 29.46875 751.93359375 31.7001953125 c 0
 756.010742188 33.271484375 761.154296875 32.66015625 765.017578125 34.7353515625 c 0
 771.694335938 38.3212890625 777.82421875 42.8408203125 784.2265625 46.8935546875 c 0
 824.501953125 89.728515625 722.69140625 92.3701171875 722.69140625 92.3701171875 c 2
 710.251953125 90.4560546875 l 2
 704.0703125 89.5048828125 698.60546875 87.9833984375 704.267578125 91.1357421875 c 1
 695.75 88.92578125 630.799804688 74.3515625 622.298828125 72.078125 c 0
 616.573242188 70.609375 610.821289062 69.2578125 605.0625 67.921875 c 0
 600.799804688 66.9755859375 596.533203125 66.0146484375 592.20703125 65.392578125 c 0
 584.220703125 64.376953125 576.180664062 63.96875 568.1328125 63.841796875 c 0xa0
 559.215820312 63.6982421875 550.28125 63.6005859375 541.3828125 64.314453125 c 0
 530.905273438 65.212890625 520.487304688 66.59375 510.083984375 68.12890625 c 0
 502.583007812 69.0810546875 496.022460938 81.333984375 488.50390625 82.123046875 c 0
 483.768554688 82.9072265625 479.258789062 84.6005859375 474.73046875 86.1484375 c 1
 474.923828125 86.341796875 475.125976562 86.525390625 475.318359375 86.71875 c 0
 483.791015625 95.24609375 490.127929688 104.788085938 495.95703125 115.220703125 c 0
 499.830078125 122.514648438 503.6171875 129.854492188 507.41015625 137.189453125 c 0
 511.833007812 145.455078125 515.717773438 153.963867188 519.11328125 162.697265625 c 0
 522.758789062 172.498046875 525.897460938 182.474609375 528.904296875 192.486328125 c 0
 532.677734375 204.55078125 531.579101562 209.309570312 533.595703125 221.775390625 c 0
 535.293945312 233.932617188 536.236328125 246.17578125 537.169921875 258.41015625 c 0
 537.559570312 263.748046875 537.90625 269.08984375 538.18359375 274.435546875 c 0
 539.600585938 303.55859375 519.26171875 305.484375 478.697265625 315.03125 c 0
 472.76953125 316.426757812 457.546875 308.62890625 453.517578125 302.71484375 c 0
 449.08203125 296.075195312 445.500976562 288.921875 441.74609375 281.888671875 c 0
 437.754882812 274.177734375 436.874023438 274.440429688 431.875 267.3515625 c 0
 425.549804688 258.818359375 418.755859375 250.653320312 412.314453125 242.20703125 c 0
 404.178710938 231.428710938 396.591796875 220.26953125 389.556640625 208.74609375 c 0
 382.814453125 197.715820312 383.698242188 180.959960938 379.400390625 168.78515625 c 0
 375.626953125 157.94921875 374.403320312 146.548828125 373.58984375 135.177734375 c 0
 373.157226562 129.33984375 373.166015625 123.504882812 373.38671875 117.677734375 c 1
 367.697265625 115.415039062 361.958007812 113.272460938 356.0390625 111.685546875 c 0
 351.065429688 110.391601562 346.038085938 109.375976562 340.962890625 108.5546875 c 0
 336.857421875 107.903320312 332.700195312 107.862304688 328.548828125 107.857421875 c 0
 321.62109375 107.873046875 314.698242188 108.14453125 307.76953125 108.158203125 c 0
 303.30078125 108.111328125 298.829101562 107.927734375 294.359375 108.046875 c 0
 290.676757812 108.17578125 287.028320312 108.666015625 283.423828125 109.447265625 c 0
 277.609375 110.622070312 271.796875 111.813476562 265.982421875 112.9921875 c 0
 262.360351562 113.73828125 258.751953125 114.549804688 255.16015625 115.435546875 c 0
 250.767578125 116.494140625 246.404296875 117.702148438 241.921875 118.34765625 c 0
 237.970703125 119.098632812 234.055664062 120.033203125 230.2109375 121.2265625 c 0
 227.919921875 121.921875 225.612304688 122.56640625 223.32421875 123.275390625 c 1
 225.3046875 127.53125 227.19140625 131.831054688 229.072265625 136.12890625 c 0
 232.771484375 144.250976562 236.146484375 152.498046875 239.013671875 160.94921875 c 0
 242.049804688 170.313476562 243.786132812 180.009765625 245.2421875 189.72265625 c 0
 246.534179688 198.78125 247.653320312 207.861328125 248.6796875 216.953125 c 0
 249.80859375 227.2421875 250.805664062 237.545898438 251.662109375 247.861328125 c 0
 252.387695312 256.52734375 252.91015625 265.211914062 253.05859375 273.908203125 c 0
 252.905273438 278.857421875 253.080078125 283.986328125 251.8671875 288.837890625 c 0
 251.118164062 291.838867188 250.643554688 295.012695312 249.103515625 297.6953125 c 0
 245.966796875 303.162109375 241.701171875 307.8984375 238 313 c 0
 228.00390625 316.471679688 218.517578125 322.143554688 208.01171875 323.4140625 c 1x60
169.810546875 276.48828125 m 0
 169.806640625 276.525390625 169.833007812 276.416015625 169.83984375 276.37890625 c 0
 169.852539062 276.30859375 169.844726562 276.25390625 169.8515625 276.197265625 c 1
 169.840820312 276.291992188 169.822265625 276.393554688 169.810546875 276.48828125 c 0
8.7275390625 79.078125 m 1
 8.7880859375 78.9248046875 8.8486328125 78.771484375 8.9033203125 78.615234375 c 0
 9.171875 77.8515625 9.3779296875 77.1484375 9.5732421875 76.359375 c 0
 9.671875 75.958984375 9.7529296875 75.5556640625 9.8427734375 75.15234375 c 1
 9.5341796875 76.5810546875 9.087890625 77.7451171875 8.7275390625 79.078125 c 1
EndSplineSet
EndChar

StartChar: nu
Encoding: 34 957 32
Width: 393
VWidth: 924
Flags: W
HStem: 2.52539 93.3125<143.341 184.615 206 206.971 214.441 240.481>
VStem: 295.133 94.7676<174.575 263.354 318.225 345.057>
LayerCount: 2
Fore
SplineSet
80.666015625 400.576171875 m 2
 73.970703125 400.638671875 67.462890625 397.65234375 61.466796875 394.673828125 c 0
 57.3466796875 392.625976562 54.42578125 388.750976562 50.904296875 385.7890625 c 0
 45.0107421875 378.923828125 41.5 370.579101562 37.890625 362.39453125 c 0
 34.6064453125 354.870117188 31.46484375 347.28515625 28.322265625 339.701171875 c 0
 24.5673828125 330.51171875 21.408203125 321.096679688 18.142578125 311.7265625 c 0
 15.2392578125 303.446289062 12.3642578125 295.1484375 9.0078125 287.0390625 c 0
 7.478515625 283.255859375 5.623046875 279.62890625 3.599609375 276.091796875 c 0
 3.0166015625 275.047851562 2.2763671875 274.107421875 1.568359375 273.1484375 c 0
 0.421875 271.563476562 -0.671875 269.939453125 -1.748046875 268.306640625 c 0
 -7.12890625 260.123046875 -6.63671875 255.198242188 -9.169921875 243.3984375 c 0
 -8.53125 236.009765625 -8.4892578125 235.606445312 -9.080078125 242.18359375 c 1
 -8.7939453125 211.049804688 14.6552734375 196.625976562 36.576171875 198.66796875 c 1
 35.6181640625 189.833007812 34.6982421875 180.994140625 34.04296875 172.1328125 c 0
 33.361328125 160.717773438 33.0244140625 149.284179688 32.220703125 137.876953125 c 0
 31.35546875 126.099609375 29.8828125 114.383789062 28.314453125 102.681640625 c 0
 26.583984375 89.841796875 24.75 77.0146484375 22.9296875 64.1875 c 0
 21.193359375 51.7578125 19.5380859375 39.3193359375 18.025390625 26.861328125 c 0
 16.474609375 15.3076171875 14.7255859375 3.7841796875 13.00390625 -7.744140625 c 0
 11.244140625 -19.8310546875 9.6064453125 -31.935546875 8.01171875 -44.044921875 c 0
 6.638671875 -54.0078125 5.171875 -63.9658203125 3.056640625 -73.802734375 c 0
 1.068359375 -83.08984375 -1.197265625 -92.3076171875 -3.64453125 -101.484375 c 0
 -6.228515625 -111.974609375 -8.6171875 -122.510742188 -10.517578125 -133.1484375 c 0
 -12.67578125 -145.243164062 -14.533203125 -157.385742188 -15.876953125 -169.599609375 c 0
 -17.6748046875 -186.173828125 -19.0087890625 -202.944335938 -15.986328125 -219.478515625 c 0
 -15.33203125 -222.296875 -14.8583984375 -225.163085938 -14.025390625 -227.93359375 c 0
 -9.4716796875 -243.076171875 -0.9189453125 -256.538085938 13.349609375 -264.267578125 c 0
 16.8408203125 -266.159179688 20.73828125 -267.177734375 24.431640625 -268.6328125 c 0
 28.2265625 -269.184570312 31.986328125 -270.100585938 35.81640625 -270.2890625 c 0
 50.1220703125 -270.993164062 63.583984375 -265.041015625 74.689453125 -256.51953125 c 0
 83.9072265625 -248.1875 91.0869140625 -239.4375 97.490234375 -228.775390625 c 0
 103.083007812 -219.907226562 108.557617188 -210.96484375 114.154296875 -202.099609375 c 0
 119.366210938 -193.559570312 124.62109375 -184.967773438 128.447265625 -175.6953125 c 0
 130.815429688 -169.227539062 132.786132812 -162.63671875 133.96875 -155.837890625 c 0
 141.524414062 -117.375 107.790039062 -97.47265625 81.095703125 -105.546875 c 1
 82.2333984375 -100.798828125 83.3232421875 -96.0380859375 84.3515625 -91.26171875 c 0
 86.9091796875 -79.4150390625 88.7177734375 -67.427734375 90.37890625 -55.427734375 c 0
 91.951171875 -43.5205078125 93.552734375 -31.6162109375 95.28515625 -19.73046875 c 0
 96.9287109375 -8.7568359375 98.5595703125 2.216796875 100.0625 13.2109375 c 0
 103.478515625 12.765625 106.90625 12.388671875 110.35546875 12.37109375 c 0
 113.39453125 12.2880859375 116.419921875 11.9775390625 119.44921875 11.734375 c 0
 127.565429688 11.0830078125 138.203125 5.9794921875 146.271484375 4.888671875 c 0
 156.108398438 3.6806640625 165.98046875 3.0263671875 175.876953125 2.525390625 c 0
 186.22265625 1.826171875 196.614257812 1.10546875 206.970703125 2.064453125 c 0
 218.081054688 3.154296875 229.020507812 5.208984375 239.568359375 8.966796875 c 0
 249.296875 12.23828125 259.139648438 15.248046875 268.556640625 19.361328125 c 0
 278.09375 23.8740234375 287.345703125 28.994140625 295.455078125 35.822265625 c 0
 301.676757812 40.765625 308.022460938 45.583984375 313.70703125 51.158203125 c 0
 319.95703125 57.607421875 325.74609375 64.4931640625 330.291015625 72.27734375 c 0
 335.123046875 80.0439453125 339.897460938 87.849609375 344.296875 95.873046875 c 0
 350.037109375 106.159179688 355.892578125 116.396484375 360.982421875 127.02734375 c 0
 365.171875 135.516601562 366.909179688 148.221679688 370.4921875 156.9921875 c 0
 374.454101562 167.0390625 378.083007812 177.2265625 380.9609375 187.642578125 c 0
 383.68359375 198.36328125 385.72265625 209.209960938 386.94140625 220.2109375 c 0
 388.530273438 231.930664062 390.026367188 243.674804688 390.7265625 255.48828125 c 0
 391.3125 266.793945312 391.381835938 278.131835938 389.900390625 289.3828125 c 0
 389.216796875 295.2578125 388.55078125 301.13671875 388.001953125 307.02734375 c 0
 387.567382812 311.946289062 387.1328125 316.865234375 386.798828125 321.79296875 c 0
 395.71875 405.755859375 289.92578125 382.379882812 291.7578125 318.224609375 c 0
 292.100585938 313.143554688 292.551757812 308.071289062 293 303 c 0
 293.611328125 296.345703125 294.362304688 289.70703125 295.1328125 283.0703125 c 0
 296.044921875 276.5234375 295.92578125 269.9296875 295.52734375 263.353515625 c 0
 294.920898438 253.758789062 293.671875 244.221679688 292.375 234.701171875 c 0
 291.494140625 226.9375 290.272460938 219.247070312 288.271484375 211.6953125 c 0
 286.19140625 204.66796875 283.752929688 197.750976562 281.029296875 190.94921875 c 0
 278.192382812 184.294921875 274.905273438 177.84375 271.705078125 171.359375 c 0
 267.225585938 161.989257812 262.030273438 152.989257812 256.97265625 143.92578125 c 0
 253.216796875 137.0546875 249.114257812 130.385742188 244.978515625 123.740234375 c 0
 243.62109375 121.170898438 241.8359375 119.009765625 239.74609375 117.033203125 c 0
 236.2109375 114.125976562 232.600585938 111.306640625 229.015625 108.458984375 c 0
 226.002929688 105.713867188 222.470703125 103.926757812 218.78515625 102.294921875 c 0
 212.0390625 99.787109375 221.262695312 102.375 214.44140625 100.08203125 c 0
 210.002929688 98.40625 199.126953125 95.5673828125 194.42578125 95.220703125 c 0
 188.462890625 94.84765625 182.485351562 95.4326171875 176.537109375 95.837890625 c 0
 168.517578125 95.841796875 158.231445312 102.716796875 142.61328125 107.435546875 c 1
 128.588867188 121.2734375 130.62109375 122.497070312 125.958984375 128.302734375 c 0
 126.106445312 129.119140625 126.334960938 129.9296875 126.3984375 130.75390625 c 0
 127.283203125 142.57421875 130.775390625 159.412109375 131.498046875 171.2421875 c 0
 132.34765625 181.985351562 133.551757812 192.698242188 134.732421875 203.41015625 c 0
 136.479492188 217.9453125 138.653320312 232.419921875 140.2421875 246.9765625 c 0
 141.826171875 261.899414062 142.232421875 276.90234375 142.375 291.896484375 c 0
 142.264648438 304.39453125 142.237304688 316.891601562 142.25390625 329.390625 c 0
 142.32421875 340.032226562 141.538085938 350.65234375 140.21875 361.205078125 c 0
 139.745117188 364.73828125 139.192382812 368.26171875 138.451171875 371.75 c 0
 133.374023438 393.568359375 101.84375 400.377929688 80.666015625 400.576171875 c 2
21.376953125 -192.771484375 m 1
 21.0361328125 -193.185546875 20.6875 -193.595703125 20.306640625 -193.97265625 c 0
 20.2255859375 -194.052734375 19.9501953125 -194.23046875 20.001953125 -194.12890625 c 0
 20.15625 -193.830078125 20.4228515625 -193.603515625 20.6328125 -193.33984375 c 0
 20.8642578125 -193.125 21.1376953125 -192.975585938 21.376953125 -192.771484375 c 1
EndSplineSet
EndChar

StartChar: xi
Encoding: 35 958 33
Width: 544
VWidth: 924
Flags: W
HStem: 169.23 102.074<204.548 279.312 294.623 331.963>
LayerCount: 2
Fore
SplineSet
-49.875 876.091796875 m 1
 -100.912109375 870.98828125 l 1
 -116.224609375 845.46875 l 1
 -118.775390625 799.537109375 l 1
 -121.328125 758.70703125 l 1
 -126.431640625 722.98046875 l 1
 -126.431640625 700.013671875 l 1
 -100.912109375 674.49609375 l 1
 -54.98046875 631.115234375 l 1
 -32.013671875 597.94140625 l 1
 11.369140625 562.21484375 l 1
 85.37109375 508.626953125 l 1
 126.201171875 475.453125 l 1
 189.998046875 447.3828125 l 1
 264 404 l 1
 340.556640625 350.412109375 l 1
 386.48828125 322.341796875 l 1
 406.904296875 301.927734375 l 1
 391.591796875 278.9609375 l 1
 345.66015625 271.3046875 l 1
 279.3125 273.857421875 l 1
 179.7890625 266.201171875 l 1
 149.16796875 255.994140625 l 1
 131.3046875 238.130859375 l 1
 136.408203125 212.61328125 l 1
 161.927734375 192.197265625 l 1
 187.4453125 176.88671875 l 1
 228.275390625 169.23046875 l 1
 294.623046875 166.6796875 l 1
 335.453125 161.576171875 l 1
 366.07421875 159.0234375 l 1
 381.384765625 136.056640625 l 1
 371.177734375 115.642578125 l 1
 322.693359375 95.228515625 l 1
 294.623046875 82.46875 l 1
 248.689453125 51.845703125 l 1
 205.30859375 18.671875 l 1
 169.58203125 -14.501953125 l 1
 128.75390625 -57.8828125 l 1
 90.474609375 -101.263671875 l 1
 77.716796875 -134.4375 l 1
 72.61328125 -167.611328125 l 1
 77.716796875 -213.544921875 l 1
 98.130859375 -236.51171875 l 1
 133.857421875 -262.029296875 l 1
 192.548828125 -290.099609375 l 1
 241.033203125 -310.515625 l 1
 281.86328125 -323.2734375 l 1
 355.8671875 -341.13671875 l 1
 414.55859375 -351.34375 l 1
 445.181640625 -369.20703125 l 1
 468.1484375 -374.310546875 l 1
 483.458984375 -387.0703125 l 1
 493.666015625 -404.93359375 l 1
 470.69921875 -422.796875 l 1
 437.525390625 -438.107421875 l 1
 432.421875 -448.314453125 l 1
 440.078125 -468.728515625 l 1
 465.595703125 -484.041015625 l 1
 498.76953125 -484.041015625 l 1
 542.150390625 -473.83203125 l 1
 577.876953125 -453.41796875 l 1
 598.291015625 -420.244140625 l 1
 585.533203125 -374.310546875 l 1
 557.462890625 -351.34375 l 1
 529.392578125 -318.169921875 l 1
 463.044921875 -305.412109375 l 1
 412.0078125 -292.65234375 l 1
 355.8671875 -274.7890625 l 1
 279.3125 -259.478515625 l 1
 230.826171875 -241.615234375 l 1
 200.205078125 -226.3046875 l 1
 174.685546875 -208.44140625 l 1
 172.134765625 -180.37109375 l 1
 187.4453125 -144.64453125 l 1
 218.068359375 -101.263671875 l 1
 279.3125 -50.2265625 l 1
 330.34765625 -19.60546875 l 1
 401.80078125 16.12109375 l 1
 445.181640625 49.294921875 l 1
 498.76953125 77.365234375 l 1
 519.185546875 95.228515625 l 1
 531.943359375 115.642578125 l 1
 531.943359375 153.919921875 l 1
 521.736328125 181.990234375 l 1
 508.9765625 194.75 l 1
 498.76953125 215.1640625 l 1
 516.6328125 238.130859375 l 1
 529.392578125 255.994140625 l 1
 529.392578125 301.927734375 l 1
 498.76953125 345.30859375 l 1
 465.595703125 368.275390625 l 1
 414.55859375 396.345703125 l 1
 353.314453125 434.623046875 l 1
 289.51953125 475.453125 l 1
 243.5859375 518.833984375 l 1
 189.998046875 559.662109375 l 1
 121.09765625 608.1484375 l 1
 64.95703125 651.529296875 l 1
 21.576171875 702.56640625 l 1
 8.81640625 728.083984375 l 1
 1.16015625 779.12109375 l 1
 3.712890625 804.640625 l 1
 -9.046875 863.33203125 l 1
 -49.875 876.091796875 l 1
EndSplineSet
EndChar

StartChar: omicron
Encoding: 36 959 34
Width: 294
VWidth: 924
Flags: W
LayerCount: 2
Fore
SplineSet
76.3046875 319.34765625 m 1
 43.326171875 308.35546875 l 1
 13.09765625 278.125 l 1
 2.103515625 247.896484375 l 1
 -0.64453125 195.681640625 l 1
 -0.64453125 151.7109375 l 1
 4.853515625 91.251953125 l 1
 18.59375 63.771484375 l 1
 59.814453125 28.044921875 l 1
 87.296875 11.556640625 l 1
 131.267578125 -4.931640625 l 1
 175.236328125 -2.18359375 l 1
 213.7109375 17.052734375 l 1
 243.94140625 50.029296875 l 1
 276.91796875 91.251953125 l 1
 290.658203125 129.7265625 l 1
 296.154296875 173.697265625 l 1
 287.91015625 231.408203125 l 1
 263.177734375 267.1328125 l 1
 232.947265625 294.615234375 l 1
 191.7265625 316.599609375 l 1
 128.51953125 319.34765625 l 1
 76.3046875 319.34765625 l 1
164.244140625 247.896484375 m 1
 183.482421875 223.162109375 l 1
 199.970703125 195.681640625 l 1
 199.970703125 162.703125 l 1
 191.7265625 137.970703125 l 1
 177.984375 113.23828125 l 1
 156 94 l 1
 125.771484375 91.251953125 l 1
 106.533203125 96.748046875 l 1
 103.78515625 124.23046875 l 1
 103.78515625 146.21484375 l 1
 109.28125 179.193359375 l 1
 123.0234375 228.658203125 l 1
 142.259765625 245.1484375 l 1
 164.244140625 247.896484375 l 1
EndSplineSet
EndChar

StartChar: pi
Encoding: 37 960 35
Width: 852
VWidth: 924
Flags: W
HStem: 197.506 98.4863<66.826 122.824> 231.199 64.793<703.889 731.889> 251.932 44.0605<881.873 908.127>
LayerCount: 2
Fore
SplineSet
275.73828125 298.583984375 m 1x20
 179.84375 295.9921875 l 1x20
 102.091796875 295.9921875 l 1x80
 39.888671875 295.9921875 l 1
 -9.35546875 280.44140625 l 1
 -48.23046875 262.298828125 l 1
 -84.515625 251.931640625 l 1x20
 -87.107421875 223.423828125 l 1
 -63.78125 197.505859375 l 1
 -37.86328125 171.587890625 l 1
 -4.171875 156.037109375 l 1
 24.337890625 163.8125 l 1
 60.623046875 189.73046875 l 1
 122.82421875 197.505859375 l 1
 159.109375 197.505859375 l 1x80
 143.55859375 153.4453125 l 1
 135.783203125 109.38671875 l 1
 146.150390625 54.958984375 l 1
 177.251953125 31.6328125 l 1
 231.6796875 0.53125 l 1
 288.697265625 8.306640625 l 1
 340.533203125 31.6328125 l 1
 382 42 l 1
 420.876953125 8.306640625 l 1
 457.162109375 -12.427734375 l 1
 508.998046875 -35.751953125 l 1
 563.423828125 -46.119140625 l 1
 610.076171875 -33.16015625 l 1
 654.134765625 -4.65234375 l 1
 682.64453125 34.224609375 l 1
 700.787109375 75.693359375 l 1
 700.787109375 119.751953125 l 1
 695.603515625 168.99609375 l 1
 690.419921875 194.9140625 l 1
 690.419921875 220.83203125 l 1
 731.888671875 231.19921875 l 1
 783.72265625 228.607421875 l 1
 830.375 231.19921875 l 1x40
 869.251953125 241.56640625 l 1
 908.126953125 251.931640625 l 1
 923.677734375 277.849609375 l 1
 923.677734375 295.9921875 l 1
 871.84375 298.583984375 l 1
 817.416015625 295.9921875 l 1
 744.84765625 293.400390625 l 1
 659.318359375 293.400390625 l 1
 568.607421875 285.625 l 1
 485.671875 285.625 l 1
 376.818359375 285.625 l 1
 275.73828125 298.583984375 l 1x20
498.630859375 215.6484375 m 1
 527.138671875 207.873046875 l 1
 553.056640625 189.73046875 l 1
 584.158203125 158.62890625 l 1
 591.93359375 137.89453125 l 1
 597.1171875 119.751953125 l 1
 597.1171875 88.65234375 l 1
 591.93359375 67.91796875 l 1
 578.974609375 47.18359375 l 1
 553.056640625 36.81640625 l 1
 532.322265625 36.81640625 l 1
 501.22265625 49.775390625 l 1
 477.896484375 73.1015625 l 1
 472.712890625 96.427734375 l 1
 470.12109375 127.52734375 l 1
 472.712890625 158.62890625 l 1
 477.896484375 197.505859375 l 1x80
 498.630859375 215.6484375 l 1
319.798828125 213.056640625 m 1
 343.125 213.056640625 l 1
 358.67578125 202.689453125 l 1
 358.67578125 171.587890625 l 1
 345.716796875 137.89453125 l 1
 322.390625 109.38671875 l 1
 278.330078125 101.611328125 l 1
 262.779296875 111.978515625 l 1
 262.779296875 130.119140625 l 1
 275.73828125 158.62890625 l 1
 291.2890625 194.9140625 l 1
 319.798828125 213.056640625 l 1
EndSplineSet
EndChar

StartChar: rho
Encoding: 38 961 36
Width: 348
VWidth: 924
Flags: W
LayerCount: 2
Fore
SplineSet
179.0625 355.380859375 m 1
 135.00390625 342.421875 l 1
 98.71875 313.912109375 l 1
 75.392578125 267.26171875 l 1
 57.25 212.833984375 l 1
 33.92578125 135.08203125 l 1
 8.0078125 39.1875 l 1
 -7.54296875 -33.3828125 l 1
 -15.318359375 -90.40234375 l 1
 -7.54296875 -129.27734375 l 1
 10.599609375 -160.37890625 l 1
 33.92578125 -175.9296875 l 1
 72.80078125 -196.6640625 l 1
 114.26953125 -207.03125 l 1
 150.5546875 -207.03125 l 1
 186.837890625 -199.255859375 l 1
 223.123046875 -181.11328125 l 1
 246.44921875 -160.37890625 l 1
 251.6328125 -131.869140625 l 1
 238.673828125 -113.7265625 l 1
 212.755859375 -103.359375 l 1
 171.287109375 -111.134765625 l 1
 132.412109375 -116.318359375 l 1
 111.677734375 -126.685546875 l 1
 88.3515625 -116.318359375 l 1
 83.16796875 -87.810546875 l 1
 85.759765625 -54.1171875 l 1
 98.71875 -15.240234375 l 1
 111.677734375 36.595703125 l 1
 124.63671875 46.9609375 l 1
 160.921875 15.861328125 l 1
 194.61328125 0.310546875 l 1
 238.673828125 -4.873046875 l 1
 285.326171875 23.63671875 l 1
 319.017578125 65.103515625 l 1
 339.751953125 103.98046875 l 1
 347.52734375 179.140625 l 1
 337.16015625 238.751953125 l 1
 311.2421875 287.99609375 l 1
 269.775390625 332.0546875 l 1
 212.755859375 350.197265625 l 1
 179.0625 355.380859375 l 1
217.939453125 246.52734375 m 1
 236.08203125 243.935546875 l 1
 251.6328125 223.201171875 l 1
 262 197.283203125 l 1
 262 161 l 1
 249.041015625 137.673828125 l 1
 230.8984375 114.34765625 l 1
 204.98046875 93.61328125 l 1
 184.24609375 91.021484375 l 1
 179.0625 129.8984375 l 1
 189.4296875 171.3671875 l 1
 194.61328125 192.099609375 l 1
 204.98046875 218.017578125 l 1
 217.939453125 246.52734375 l 1
EndSplineSet
EndChar

StartChar: sigma1
Encoding: 39 962 37
Width: 419
VWidth: 924
Flags: W
LayerCount: 2
Fore
SplineSet
195.462890625 453.447265625 m 1
 112.92578125 435.50390625 l 1
 62.685546875 396.029296875 l 1
 23.2109375 324.2578125 l 1
 -5.498046875 259.6640625 l 1
 -12.673828125 202.24609375 l 1
 -9.0859375 144.828125 l 1
 26.798828125 73.056640625 l 1
 69.86328125 40.759765625 l 1
 145.22265625 4.873046875 l 1
 209.818359375 1.28515625 l 1
 299.533203125 8.462890625 l 1
 360.5390625 44.34765625 l 1
 371.3046875 80.234375 l 1
 339.0078125 105.353515625 l 1
 278 91 l 1
 231.349609375 87.412109375 l 1
 141.634765625 105.353515625 l 1
 102.16015625 130.474609375 l 1
 98.572265625 191.48046875 l 1
 109.337890625 245.30859375 l 1
 127.279296875 281.1953125 l 1
 148.8125 331.435546875 l 1
 191.875 356.5546875 l 1
 231.349609375 367.3203125 l 1
 281.58984375 327.84765625 l 1
 349.7734375 317.080078125 l 1
 414.3671875 317.080078125 l 1
 425.1328125 349.37890625 l 1
 396.423828125 399.619140625 l 1
 360.5390625 428.328125 l 1
 313.88671875 428.328125 l 1
 263.646484375 453.447265625 l 1
 195.462890625 453.447265625 l 1
EndSplineSet
EndChar

StartChar: sigma
Encoding: 40 963 38
Width: 543
VWidth: 924
Flags: W
LayerCount: 2
Fore
SplineSet
100.314453125 292.962890625 m 1
 48.927734375 276.8125 l 1
 13.69140625 221.0234375 l 1
 -2.458984375 171.103515625 l 1
 -9.798828125 116.78125 l 1
 3.4140625 68.33203125 l 1
 29.841796875 28.69140625 l 1
 70.044921875 15.4140625 l 1
 111.154296875 0.732421875 l 1
 159.603515625 -6.609375 l 1
 208.052734375 3.66796875 l 1
 245.6640625 9.603515625 l 1
 285.3046875 49.244140625 l 1
 305.859375 84.482421875 l 1
 305.859375 124.123046875 l 1
 299.986328125 172.572265625 l 1
 314.66796875 181.380859375 l 1
 342.564453125 193.126953125 l 1
 407.1640625 196.0625 l 1
 507 199 l 1
 571.6015625 197.53125 l 1
 581.87890625 212.212890625 l 1
 586.283203125 235.705078125 l 1
 573.068359375 268.00390625 l 1
 542.236328125 266.537109375 l 1
 482.041015625 265.068359375 l 1
 379.26953125 263.599609375 l 1
 283.837890625 262.130859375 l 1
 219.236328125 262.130859375 l 1
 195.74609375 282.685546875 l 1
 144.359375 291.49609375 l 1
 100.314453125 292.962890625 l 1
139.955078125 199 m 1
 170.787109375 193.126953125 l 1
 189.873046875 181.380859375 l 1
 208.958984375 166.69921875 l 1
 219.236328125 138.8046875 l 1
 216.30078125 112.376953125 l 1
 197.21484375 94.7578125 l 1
 178.126953125 75.671875 l 1
 153.16796875 62.458984375 l 1
 126.7421875 62.458984375 l 1
 106.1875 65.39453125 l 1
 92.97265625 72.736328125 l 1
 78.291015625 103.568359375 l 1
 73.88671875 122.654296875 l 1
 84.1640625 154.955078125 l 1
 100.314453125 179.9140625 l 1
 119.400390625 188.72265625 l 1
 139.955078125 199 l 1
EndSplineSet
EndChar

StartChar: tau
Encoding: 41 964 39
Width: 574
VWidth: 924
Flags: W
LayerCount: 2
Fore
SplineSet
47.92578125 389.2578125 m 1
 -6.958984375 379.65234375 l 1
 -49.494140625 372.79296875 l 1
 -86.541015625 368.67578125 l 1
 -115.35546875 349.466796875 l 1
 -130.44921875 335.744140625 l 1
 -115.35546875 311.046875 l 1
 -87.9140625 290.46484375 l 1
 -57.7265625 263.0234375 l 1
 -27.541015625 235.58203125 l 1
 -1.470703125 221.859375 l 1
 20.482421875 221.859375 l 1
 38.3203125 243.814453125 l 1
 41.064453125 267.140625 l 1
 50.669921875 290.46484375 l 1
 79.484375 297.326171875 l 1
 127.5078125 298.697265625 l 1
 163.181640625 298.697265625 l 1
 193.369140625 295.953125 l 1
 202.97265625 286.349609375 l 1
 197.484375 261.650390625 l 1
 191.99609375 205.39453125 l 1
 183.763671875 158.744140625 l 1
 178.275390625 109.34765625 l 1
 174.158203125 66.8125 l 1
 183.763671875 27.021484375 l 1
 204.345703125 3.6953125 l 1
 238.6484375 -3.166015625 l 1
 281.18359375 6.439453125 l 1
 331.951171875 35.25390625 l 1
 338.8125 54.462890625 l 1
 336.068359375 88.765625 l 1
 322.345703125 98.37109375 l 1
 319.6015625 136.7890625 l 1
 312.7421875 169.720703125 l 1
 303.13671875 182.068359375 l 1
 308.625 221.859375 l 1
 323.71875 260.279296875 l 1
 323.71875 284.9765625 l 1
 352.533203125 287.720703125 l 1
 419.765625 284.9765625 l 1
 489.744140625 283.60546875 l 1
 546 274 l 1
 574.814453125 272.62890625 l 1
 592.65234375 269.884765625 l 1
 617.349609375 295.953125 l 1
 631.0703125 327.51171875 l 1
 605 345.349609375 l 1
 551.48828125 356.326171875 l 1
 474.650390625 363.1875 l 1
 403.30078125 370.046875 l 1
 338.8125 376.908203125 l 1
 263.345703125 382.396484375 l 1
 201.6015625 387.884765625 l 1
 130.251953125 389.2578125 l 1
 47.92578125 389.2578125 l 1
EndSplineSet
EndChar

StartChar: upsilon
Encoding: 42 965 40
Width: 373
VWidth: 924
Flags: W
HStem: 2.9668 86.9336<116.502 161.732>
LayerCount: 2
Fore
SplineSet
59.333984375 335.216796875 m 1
 37.8984375 324.5 l 1
 5.74609375 293.537109375 l 1
 -10.927734375 269.71875 l 1
 -26.408203125 255.4296875 l 1
 -31.171875 239.947265625 l 1
 -31.171875 220.89453125 l 1
 -25.216796875 204.22265625 l 1
 -14.5 201.83984375 l 1
 -2.591796875 205.4140625 l 1
 9.318359375 213.75 l 1
 15.271484375 194.6953125 l 1
 12.890625 158.970703125 l 1
 10.5078125 129.19921875 l 1
 12.890625 93.47265625 l 1
 14.08203125 70.845703125 l 1
 25.990234375 54.173828125 l 1
 42.662109375 39.884765625 l 1
 73.625 22.021484375 l 1
 104.5859375 8.921875 l 1
 135.548828125 2.966796875 l 1
 167.701171875 1.775390625 l 1
 202.236328125 4.158203125 l 1
 236.771484375 14.875 l 1
 266.54296875 24.40234375 l 1
 295.123046875 36.310546875 l 1
 312.986328125 39.884765625 l 1
 337.994140625 69.65625 l 1
 352.28515625 89.900390625 l 1
 354.666015625 125.625 l 1
 354.666015625 125.625 353.4765625 147.061523438 353.4765625 154.20703125 c 0
 353.4765625 161.3515625 364.193359375 181.595703125 364.193359375 181.595703125 c 1
 376.1015625 238.7578125 l 1
 378.484375 272.1015625 l 1
 382.056640625 295.91796875 l 1
 382.056640625 295.91796875 376.103515625 305.444335938 371.33984375 312.58984375 c 0
 366.577148438 319.734375 352.28515625 313.78125 352.28515625 313.78125 c 1
 309.4140625 306.63671875 l 1
 287.978515625 299.490234375 l 1
 278.451171875 275.673828125 l 1
 267.734375 249.474609375 l 1
 257.015625 207.794921875 l 1
 245.107421875 158.970703125 l 1
 224.86328125 123.244140625 l 1
 207 103 l 1
 183.18359375 89.900390625 l 1
 161.748046875 87.517578125 l 2
 161.748046875 87.517578125 139.123046875 89.900390625 133.16796875 89.900390625 c 0
 127.213867188 89.900390625 116.494140625 92.28125 116.494140625 92.28125 c 1
 110.541015625 126.81640625 l 1
 114.11328125 155.396484375 l 1
 117.685546875 201.83984375 l 1
 129.59375 213.75 l 1
 128.404296875 255.4296875 l 1
 128.404296875 295.91796875 l 1
 128.404296875 325.689453125 l 1
 128.404296875 325.689453125 117.6875 331.64453125 111.732421875 331.64453125 c 0
 105.778320312 331.64453125 91.486328125 334.025390625 86.72265625 334.025390625 c 0
 81.9599609375 334.025390625 59.333984375 335.216796875 59.333984375 335.216796875 c 1
EndSplineSet
EndChar

StartChar: phi
Encoding: 43 966 41
Width: 582
VWidth: 924
Flags: W
VStem: 174.881 79.582<-327.984 -292.989>
LayerCount: 2
Fore
SplineSet
213.30078125 599.560546875 m 1
 166.6484375 591.328125 l 1
 128.23046875 577.607421875 l 1
 100.787109375 555.654296875 l 1
 73.345703125 533.69921875 l 1
 54.13671875 500.76953125 l 1
 48.6484375 467.837890625 l 1
 56.880859375 440.396484375 l 1
 78.833984375 407.466796875 l 1
 109.01953125 385.51171875 l 1
 125.486328125 363.55859375 l 1
 117.25390625 352.58203125 l 1
 125.486328125 333.373046875 l 1
 109.01953125 308.673828125 l 1
 70.6015625 281.232421875 l 1
 32.181640625 240.068359375 l 1
 1.99609375 196.162109375 l 1
 -14.46875 154.998046875 l 1
 -14.46875 108.345703125 l 1
 7.484375 56.20703125 l 1
 54.13671875 28.763671875 l 1
 98.04296875 12.298828125 l 1
 161.16015625 4.06640625 l 1
 196.8359375 -6.91015625 l 1
 207.8125 -37.09765625 l 1
 196.8359375 -75.515625 l 1
 188.6015625 -152.353515625 l 1
 174.880859375 -229.19140625 l 1
 174.880859375 -292.30859375 l 1
 174.880859375 -327.984375 l 1
 199.580078125 -347.193359375 l 1
 232.509765625 -347.193359375 l 1
 254.462890625 -327.984375 l 1
 265.44140625 -273.099609375 l 1
 273.673828125 -223.703125 l 1
 287.39453125 -171.5625 l 1
 295.626953125 -130.400390625 l 1
 298.37109375 -86.4921875 l 1
 306.603515625 -53.5625 l 1
 312.091796875 -23.375 l 1
 336.791015625 -12.3984375 l 1
 388.9296875 -20.630859375 l 1
 430.09375 -20.630859375 l 1
 476.744140625 -20.630859375 l 1
 526.140625 -9.654296875 l 1
 570.048828125 12.298828125 l 1
 597.490234375 47.974609375 l 1
 597.490234375 89.13671875 l 1
 594.74609375 124.8125 l 1
 556.328125 187.9296875 l 1
 512.419921875 237.32421875 l 1
 474 273 l 1
 441.0703125 292.208984375 l 1
 413.62890625 308.673828125 l 1
 383.44140625 325.138671875 l 1
 377.953125 349.837890625 l 1
 386.185546875 385.51171875 l 1
 394.41796875 440.396484375 l 1
 388.9296875 495.28125 l 1
 361.48828125 550.166015625 l 1
 325.8125 585.83984375 l 1
 257.20703125 599.560546875 l 1
 213.30078125 599.560546875 l 1
259.951171875 503.513671875 m 1
 273.673828125 495.28125 l 1
 281.90625 456.861328125 l 1
 284.650390625 421.1875 l 1
 284.650390625 385.51171875 l 1
 276.41796875 366.302734375 l 1
 237.998046875 380.0234375 l 1
 205.068359375 412.955078125 l 1
 185.857421875 432.1640625 l 1
 185.857421875 465.09375 l 1
 207.8125 495.28125 l 1
 259.951171875 503.513671875 l 1
257.20703125 270.255859375 m 1
 257.20703125 223.603515625 l 1
 254.462890625 187.9296875 l 1
 254.462890625 154.998046875 l 1
 246.23046875 108.345703125 l 1
 224.27734375 64.439453125 l 1
 199.580078125 61.6953125 l 1
 158.416015625 67.18359375 l 1
 122.7421875 75.416015625 l 1
 100.787109375 91.880859375 l 1
 100.787109375 133.044921875 l 1
 119.998046875 179.6953125 l 1
 161.16015625 229.091796875 l 1
 194.091796875 248.30078125 l 1
 232.509765625 267.51171875 l 1
 257.20703125 270.255859375 l 1
361.48828125 229.091796875 m 1
 386.185546875 220.859375 l 1
 430.09375 176.951171875 l 1
 468.51171875 133.044921875 l 1
 495.955078125 94.625 l 1
 490.466796875 61.6953125 l 1
 474 56.20703125 l 1
 419.1171875 39.740234375 l 1
 383.44140625 42.486328125 l 1
 339.53515625 47.974609375 l 1
 325.8125 69.927734375 l 1
 334.044921875 119.32421875 l 1
 353.255859375 176.951171875 l 1
 361.48828125 229.091796875 l 1
EndSplineSet
EndChar

StartChar: chi
Encoding: 44 967 42
Width: 650
VWidth: 924
Flags: W
LayerCount: 2
Fore
SplineSet
114.626953125 443.359375 m 1
 99.076171875 438.17578125 l 1
 65.3828125 420.033203125 l 1
 47.240234375 394.115234375 l 1
 55.015625 352.6484375 l 1
 70.56640625 313.771484375 l 1
 91.30078125 277.486328125 l 1
 96.484375 246.384765625 l 1
 143.134765625 173.81640625 l 1
 187.1953125 70.146484375 l 1
 213.11328125 7.943359375 l 1
 218.826171875 -11.33984375 l 1
 192.37890625 -28.341796875 l 1
 132.767578125 -59.44140625 l 1
 13.546875 -142.37890625 l 1
 -51.24609375 -181.25390625 l 1
 -110.857421875 -222.72265625 l 1
 -121.224609375 -248.640625 l 1
 -118.6328125 -271.966796875 l 1
 -113.44921875 -290.109375 l 1
 -77.1640625 -290.109375 l 1
 -46.0625 -277.150390625 l 1
 16.138671875 -240.865234375 l 1
 78.341796875 -207.171875 l 1
 137.951171875 -176.0703125 l 1
 205.337890625 -137.1953125 l 1
 252.533203125 -106.4140625 l 1
 254.580078125 -111.27734375 l 1
 280.498046875 -170.88671875 l 1
 303.82421875 -235.681640625 l 1
 334.92578125 -295.29296875 l 1
 376.39453125 -323.80078125 l 1
 417.861328125 -331.576171875 l 1
 443.779296875 -313.43359375 l 1
 456.73828125 -282.333984375 l 1
 454.146484375 -251.232421875 l 1
 428.228515625 -248.640625 l 1
 407.494140625 -238.2734375 l 1
 394.53515625 -199.396484375 l 1
 371.2109375 -150.154296875 l 1
 355.66015625 -100.91015625 l 1
 342.701171875 -54.2578125 l 1
 340.080078125 -47.05078125 l 1
 386.759765625 -10.19921875 l 1
 415.26953125 10.53515625 l 1
 443.779296875 31.26953125 l 1
 482.65625 83.10546875 l 1
 524.123046875 127.1640625 l 1
 563 179 l 1
 614.8359375 215.28515625 l 1
 666.669921875 254.16015625 l 1
 669.26171875 290.4453125 l 1
 658.89453125 311.1796875 l 1
 627.794921875 313.771484375 l 1
 601.876953125 308.587890625 l 1
 568.18359375 298.220703125 l 1
 531.8984375 267.119140625 l 1
 477.47265625 228.2421875 l 1
 441.1875 179 l 1
 386.759765625 121.98046875 l 1
 342.701171875 72.73828125 l 1
 305.890625 46.970703125 l 1
 301.232421875 59.779296875 l 1
 270.130859375 153.08203125 l 1
 239.03125 223.060546875 l 1
 202.74609375 303.404296875 l 1
 179.419921875 355.240234375 l 1
 171.64453125 412.2578125 l 1
 148.318359375 438.17578125 l 1
 114.626953125 443.359375 l 1
EndSplineSet
EndChar

StartChar: psi
Encoding: 45 968 43
Width: 552
VWidth: 924
Flags: W
LayerCount: 2
Fore
SplineSet
252.677734375 691.328125 m 1
 206.025390625 655.783203125 l 1
 174.923828125 598.0234375 l 1
 188.25390625 533.599609375 l 1
 188.25390625 482.505859375 l 1
 188.25390625 426.96875 l 1
 188.25390625 362.544921875 l 1
 181.58984375 304.78515625 l 1
 168.259765625 187.044921875 l 1
 161.595703125 135.951171875 l 1
 141.6015625 120.400390625 l 1
 123.830078125 122.62109375 l 1
 52.7421875 195.931640625 l 1
 -7.23828125 260.35546875 l 1
 -29.453125 264.798828125 l 1
 -56.111328125 249.248046875 l 1
 -71.662109375 242.583984375 l 1
 -82.76953125 213.703125 l 1
 -69.44140625 182.6015625 l 1
 -45.00390625 169.2734375 l 1
 -11.681640625 147.05859375 l 1
 39.412109375 91.521484375 l 1
 86.064453125 33.76171875 l 1
 119.38671875 -15.111328125 l 1
 119.38671875 -55.099609375 l 1
 99.392578125 -121.744140625 l 1
 63.849609375 -272.806640625 l 1
 48.298828125 -319.458984375 l 1
 48.298828125 -348.337890625 l 1
 66.0703125 -368.33203125 l 1
 81.62109375 -381.66015625 l 1
 103.8359375 -379.439453125 l 1
 132.716796875 -355.001953125 l 1
 157.15234375 -303.908203125 l 1
 177.146484375 -235.041015625 l 1
 194.91796875 -143.958984375 l 1
 197.140625 -103.97265625 l 1
 219.35546875 -83.978515625 l 1
 248.234375 -83.978515625 l 1
 261.5625 -72.87109375 l 1
 266.005859375 -39.548828125 l 1
 268.228515625 -21.775390625 l 1
 281.556640625 -6.2265625 l 1
 303.771484375 2.66015625 l 1
 348.203125 22.654296875 l 1
 432.619140625 89.298828125 l 1
 521.48046875 169.2734375 l 1
 563.6875 187.044921875 l 1
 579.23828125 209.259765625 l 1
 577.017578125 231.474609375 l 1
 559.24609375 258.1328125 l 1
 532.587890625 262.576171875 l 1
 503.70703125 260.35546875 l 1
 459.27734375 240.361328125 l 1
 394.853515625 182.6015625 l 1
 359.310546875 138.171875 l 1
 299.328125 100.40625 l 1
 257.12109375 98.185546875 l 1
 259.341796875 120.400390625 l 1
 266.005859375 151.501953125 l 1
 270.44921875 202.595703125 l 1
 274.892578125 251.46875 l 1
 286 327 l 1
 310.4375 409.1953125 l 1
 314.87890625 515.828125 l 1
 314.87890625 600.24609375 l 1
 303.771484375 653.5625 l 1
 283.779296875 686.884765625 l 1
 252.677734375 691.328125 l 1
EndSplineSet
EndChar

StartChar: omega
Encoding: 46 969 44
Width: 582
VWidth: 924
Flags: W
LayerCount: 2
Fore
SplineSet
383.2890625 314.583984375 m 1
 331.07421875 284.353515625 l 1
 284.35546875 243.1328125 l 1
 276.111328125 256.873046875 l 1
 240.38671875 267.865234375 l 1
 188.171875 287.1015625 l 1
 127.712890625 306.33984375 l 1
 59.009765625 298.095703125 l 1
 4.046875 265.1171875 l 1
 -17.939453125 218.3984375 l 1
 -23.435546875 174.4296875 l 1
 -23.435546875 102.9765625 l 1
 6.794921875 53.51171875 l 1
 64.505859375 23.28125 l 1
 119.46875 6.79296875 l 1
 210.15625 1.296875 l 1
 265.119140625 9.541015625 l 1
 295.34765625 1.296875 l 1
 311.837890625 -28.93359375 l 1
 328.326171875 -31.681640625 l 1
 377.79296875 12.2890625 l 1
 397.029296875 12.2890625 l 1
 432.755859375 4.044921875 l 1
 506.955078125 -4.19921875 l 1
 556.421875 12.2890625 l 1
 578.40625 59.0078125 l 1
 581.154296875 102.9765625 l 1
 581.154296875 133.20703125 l 1
 570.162109375 185.421875 l 1
 556.421875 218.3984375 l 1
 542.681640625 254.125 l 1
 515.19921875 278.857421875 l 1
 451.9921875 314.583984375 l 1
 383.2890625 314.583984375 l 1
144.201171875 226.642578125 m 1
 182.67578125 218.3984375 l 1
 245.8828125 177.177734375 l 1
 251.37890625 130.458984375 l 1
 234.888671875 105.724609375 l 1
 215.65234375 89.236328125 l 1
 185.423828125 89.236328125 l 1
 155.193359375 94.732421875 l 1
 113.970703125 102.9765625 l 1
 78.24609375 127.7109375 l 1
 67.25390625 155.19140625 l 1
 70.001953125 185.421875 l 1
 83.7421875 210.154296875 l 1
 111.22265625 223.89453125 l 1
 144.201171875 226.642578125 l 1
441 210.154296875 m 1
 473.9765625 210.154296875 l 1
 484.970703125 193.666015625 l 1
 493.21484375 163.435546875 l 1
 495.962890625 135.955078125 l 1
 490.466796875 102.9765625 l 1
 471.228515625 75.49609375 l 1
 441 70 l 1
 394.28125 72.748046875 l 1
 353.05859375 97.48046875 l 1
 361.3046875 135.955078125 l 1
 372.296875 163.435546875 l 1
 402.525390625 193.666015625 l 1
 441 210.154296875 l 1
EndSplineSet
EndChar

StartChar: uniE04A
Encoding: 47 57418 45
Width: 583
VWidth: 924
Flags: W
LayerCount: 2
Fore
SplineSet
364.81640625 326.41015625 m 1
 323.65234375 320.921875 l 1
 298.955078125 296.224609375 l 1
 286.791015625 285.275390625 l 1
 268.767578125 244.083984375 l 1
 241.326171875 219.38671875 l 1
 216.62890625 213.8984375 l 1
 201.07421875 225.0078125 l 1
 200.51171875 224.125 l 1
 199.0625 226.4453125 l 1
 197.41796875 227.619140625 l 1
 197.51171875 228.92578125 l 1
 186.771484375 246.111328125 l 1
 159.2890625 262.599609375 l 1
 109.82421875 268.095703125 l 1
 43.8671875 259.8515625 l 1
 8.142578125 235.1171875 l 1
 -11.09375 191.1484375 l 1
 -19.33984375 144.4296875 l 1
 -11.09375 78.474609375 l 1
 10.890625 40 l 1
 49.365234375 -1.22265625 l 1
 93.333984375 -3.970703125 l 1
 148.296875 9.771484375 l 1
 178.52734375 34.50390625 l 1
 217 40 l 1
 247.23046875 42.748046875 l 1
 251.134765625 41.283203125 l 1
 255.046875 30.03515625 l 1
 293.466796875 -0.150390625 l 1
 381.28125 -19.361328125 l 1
 455.375 -19.361328125 l 1
 518.4921875 5.337890625 l 1
 600.818359375 46.5 l 1
 652.958984375 104.12890625 l 1
 691.376953125 167.24609375 l 1
 707.841796875 216.642578125 l 1
 688.6328125 263.29296875 l 1
 647.470703125 287.9921875 l 1
 609.05078125 271.525390625 l 1
 589.841796875 244.083984375 l 1
 562.3984375 180.966796875 l 1
 534.95703125 128.826171875 l 1
 508.15625 102.025390625 l 1
 505.5546875 103.20703125 l 1
 445.572265625 89.576171875 l 1
 395.001953125 95.896484375 l 1
 348.349609375 117.849609375 l 1
 351.09375 150.78125 l 1
 358.9453125 188.4609375 l 1
 359.904296875 191.1484375 l 1
 359.732421875 192.240234375 l 1
 364.81640625 216.642578125 l 1
 389.513671875 263.29296875 l 1
 384.025390625 309.9453125 l 1
 364.81640625 326.41015625 l 1
131.80859375 185.65234375 m 1
 159.2890625 182.90234375 l 1
 189.51953125 163.666015625 l 1
 189.51953125 125.193359375 l 1
 167.53515625 105.955078125 l 1
 140.052734375 78.474609375 l 1
 82.341796875 81.22265625 l 1
 68.6015625 105.955078125 l 1
 65.853515625 133.4375 l 1
 93.333984375 171.91015625 l 1
 118.068359375 180.154296875 l 1
 131.80859375 185.65234375 l 1
EndSplineSet
EndChar

StartChar: uniE040
Encoding: 48 57408 46
Width: 568
VWidth: 924
Flags: W
LayerCount: 2
Fore
SplineSet
45.37890625 563.041015625 m 1
 7.23046875 555.775390625 l 1
 -16.384765625 541.2421875 l 1
 -12.75 506.7265625 l 1
 5.4140625 457.6796875 l 1
 43.5625 434.064453125 l 1
 96.2421875 383.201171875 l 1
 123.4921875 361.40234375 l 1
 139.83984375 334.154296875 l 1
 156.189453125 315.98828125 l 1
 154.373046875 294.189453125 l 1
 130.7578125 279.65625 l 1
 105.326171875 265.125 l 1
 59.912109375 225.16015625 l 1
 34.48046875 201.544921875 l 1
 5.4140625 165.212890625 l 1
 -1.8515625 143.4140625 l 1
 -10.93359375 107.083984375 l 1
 -10.93359375 79.833984375 l 1
 -5.484375 47.13671875 l 1
 9.048828125 30.787109375 l 1
 41.74609375 10.8046875 l 1
 90.79296875 1.72265625 l 1
 132.57421875 1.72265625 l 1
 172.5390625 18.072265625 l 1
 221.5859375 52.5859375 l 1
 256.1015625 81.650390625 l 1
 283.349609375 114.349609375 l 1
 301.515625 136.1484375 l 1
 305.1484375 154.314453125 l 1
 317.86328125 167.029296875 l 1
 345.11328125 172.478515625 l 1
 368.728515625 161.580078125 l 1
 395.9765625 128.8828125 l 1
 450.47265625 92.55078125 l 1
 526.76953125 39.87109375 l 1
 586.71484375 -10.994140625 l 1
 619.4140625 -21.892578125 l 1
 648.478515625 -25.525390625 l 1
 664.828125 -5.54296875 l 1
 648.478515625 23.521484375 l 1
 574 98 l 1
 515.869140625 167.029296875 l 1
 426.857421875 237.875 l 1
 346.9296875 301.455078125 l 1
 294.248046875 345.052734375 l 1
 239.751953125 385.017578125 l 1
 199.787109375 419.533203125 l 1
 168.90625 457.6796875 l 1
 128.94140625 515.810546875 l 1
 96.2421875 548.5078125 l 1
 45.37890625 563.041015625 l 1
187.072265625 208.810546875 m 1
 205.236328125 208.810546875 l 1
 203.419921875 179.74609375 l 1
 188.888671875 154.314453125 l 1
 168.90625 127.064453125 l 1
 130.7578125 117.982421875 l 1
 118.041015625 127.064453125 l 1
 127.125 159.763671875 l 1
 143.474609375 181.5625 l 1
 187.072265625 208.810546875 l 1
EndSplineSet
EndChar

StartChar: uniE041
Encoding: 49 57409 47
Width: 502
VWidth: 924
Flags: W
HStem: 128 78.1113<447.467 490.871>
LayerCount: 2
Fore
SplineSet
409.3203125 465.880859375 m 1
 383.888671875 462.248046875 l 1
 362.08984375 447.71484375 l 1
 303.958984375 413.201171875 l 1
 244.01171875 376.869140625 l 1
 184.06640625 327.822265625 l 1
 104.13671875 262.42578125 l 1
 65.98828125 222.4609375 l 1
 22.392578125 180.6796875 l 1
 -8.490234375 138.8984375 l 1
 -13.939453125 91.66796875 l 1
 -8.490234375 57.154296875 l 1
 27.841796875 22.638671875 l 1
 65.98828125 9.923828125 l 1
 122.302734375 0.83984375 l 1
 180.43359375 -6.42578125 l 1
 234.9296875 -0.9765625 l 1
 269.4453125 4.47265625 l 1
 309.408203125 35.35546875 l 1
 329.390625 73.501953125 l 1
 329.390625 97.1171875 l 1
 329.390625 124.8203125 l 1
 342.107421875 126.18359375 l 1
 462 128 l 1
 521.947265625 128 l 1
 543.74609375 140.71484375 l 1
 549.1953125 166.1484375 l 1
 540.11328125 184.3125 l 1
 503.78125 197.029296875 l 1
 447.466796875 202.478515625 l 1
 318.4921875 206.111328125 l 1
 254.912109375 209.744140625 l 1
 200.4140625 211.5625 l 1
 196.138671875 212.01171875 l 1
 211.314453125 227.91015625 l 1
 274.89453125 271.5078125 l 1
 336.658203125 307.83984375 l 1
 414.76953125 358.703125 l 1
 465.6328125 382.318359375 l 1
 494.69921875 411.3828125 l 1
 491.06640625 438.6328125 l 1
 460.18359375 458.615234375 l 1
 409.3203125 465.880859375 l 1
160.522460938 162.965820312 m 1
 176.396484375 161.662109375 l 1
 191.33203125 153.430664062 l 1
 191.552734375 153.829101562 l 1
 214.947265625 135.265625 l 1
 216.17578125 135.03125 l 1
 233.11328125 102.568359375 l 1
 242.1953125 71.685546875 l 1
 227.358398438 48.6806640625 l 1
 197.635742188 45.14453125 l 1
 149.55078125 44.4375 l 1
 114.329101562 51.30078125 l 1
 82.2890625 60.2373046875 l 1
 73.255859375 82.5859375 l 1
 84.154296875 108.017578125 l 1
 111.404296875 131.6328125 l 1
 136.8359375 149.797851562 l 1
 145.405273438 157.870117188 l 1
 160.522460938 162.965820312 l 1
EndSplineSet
EndChar

StartChar: uniE042
Encoding: 50 57410 48
Width: 488
VWidth: 924
Flags: W
HStem: -10.9297 82.8789<91.2293 126.629 136.205 179.055> 244.207 83.0586<291.159 558.194> 264.034 82.1514<193.81 277.658 358.316 518.034> 346.211 0.862305<291.159 306.076>
VStem: -7.63086 83.0996<82.6696 195.274> 215.604 83.002<108.199 180.74 199.045 223.987>
LayerCount: 2
Fore
SplineSet
299.9453125 605.62890625 m 1xbc
 291.58203125 605.315429688 282.654296875 602.302734375 273.818359375 595.7109375 c 0
 257.724609375 582.703125 243.849609375 567.16015625 229.3984375 552.3984375 c 0
 209.958007812 532.475585938 189.842773438 513.236328125 169.69140625 494.041015625 c 0
 154.016601562 479.224609375 139.206054688 463.537109375 124.048828125 448.201171875 c 0
 110.956054688 435.54296875 99.0107421875 421.850585938 88.19140625 407.21875 c 0
 80.916015625 396.604492188 74.0126953125 385.763671875 66.228515625 375.509765625 c 0
 60.92578125 368.59375 54.8671875 362.326171875 48.87890625 356.015625 c 0
 38.0732421875 344.64453125 30.482421875 330.232421875 30.45703125 314.17578125 c 0
 30.4501953125 309.736328125 31.4072265625 305.348632812 31.8828125 300.935546875 c 0
 33.642578125 296.3515625 34.7900390625 291.482421875 37.162109375 287.18359375 c 0
 40.65625 280.848632812 44.77734375 276.211914062 49.724609375 272.1328125 c 1
 46.9853515625 269.03515625 44.3359375 265.857421875 41.890625 262.5 c 0
 37.740234375 256.717773438 33.9345703125 250.725585938 30.1640625 244.69140625 c 0
 22.6455078125 232.982421875 15.7001953125 220.901367188 9.71875 208.330078125 c 0
 0.109375 187.107421875 -8.0966796875 164.922851562 -7.630859375 141.244140625 c 0
 -6.7578125 118.68359375 -4.265625 96.0849609375 2.86328125 74.54296875 c 0
 4.419921875 70.44921875 5.798828125 66.283203125 7.533203125 62.26171875 c 0
 14.0244140625 47.2041015625 23.62109375 32.5185546875 35.548828125 21.21875 c 0
 39.0166015625 17.9326171875 42.9453125 15.1708984375 46.64453125 12.1484375 c 0
 54.267578125 7.4462890625 57.50390625 5.130859375 65.890625 1.36328125 c 0
 78.6083984375 -4.3505859375 92.1357421875 -7.564453125 105.892578125 -9.53125 c 0
 113.8359375 -10.3564453125 118.442382812 -11.048828125 126.62890625 -10.9296875 c 0
 137.874023438 -10.7666015625 148.834960938 -8.5498046875 159.611328125 -5.484375 c 0
 174.555664062 -1.0693359375 189.302734375 4.0693359375 203.166015625 11.275390625 c 0
 216.055664062 18.0947265625 228.545898438 25.71484375 239.349609375 35.615234375 c 0
 252.837890625 48.2626953125 265.12109375 62.1748046875 274.01171875 78.515625 c 0
 281.483398438 93.5302734375 287.41015625 109.208007812 291.16796875 125.58984375 c 0
 294.921875 142.120117188 297.665039062 158.852539062 298.60546875 175.802734375 c 0
 299.063476562 183.548828125 299.345703125 191.306640625 299.935546875 199.044921875 c 0
 304.146484375 257.689453125 221.2109375 263.64453125 217 205 c 0
 216.37109375 196.922851562 216.086914062 188.826171875 215.603515625 180.740234375 c 0
 214.8828125 168.426757812 212.96875 156.255859375 210.142578125 144.263671875 c 0
 207.756835938 134.514648438 204.534179688 124.995117188 199.84765625 116.11328125 c 0
 195.151367188 108.764648438 189.224609375 102.413085938 182.798828125 96.572265625 c 0
 177.337890625 91.8671875 171.08984375 88.2412109375 164.69140625 84.98828125 c 0
 155.623046875 80.3447265625 145.959960938 77.134765625 136.205078125 74.302734375 c 0
 132.458007812 73.5400390625 128.736328125 72.087890625 124.87109375 71.94921875 c 0
 121.962890625 71.84375 117.884765625 72.7578125 115.072265625 73.111328125 c 0
 110.28125 74.1435546875 105.319335938 74.837890625 100.72265625 76.625 c 0
 97.302734375 77.9541015625 94.1025390625 80.3955078125 91.087890625 82.423828125 c 0
 88.0947265625 87.671875 84.6181640625 92.6630859375 82.443359375 98.3515625 c 0
 81.8857421875 99.8076171875 81.5185546875 101.330078125 81.056640625 102.8203125 c 0
 77.1962890625 116.251953125 75.8759765625 130.234375 75.46875 144.154296875 c 0
 75.5595703125 145.600585938 75.509765625 147.061523438 75.7421875 148.4921875 c 0
 75.8876953125 149.385742188 76.3271484375 150.205078125 76.591796875 151.072265625 c 0
 78.095703125 156.0078125 78.099609375 156.778320312 80.02734375 161.80078125 c 0
 81.58984375 165.87109375 83.4990234375 169.793945312 85.333984375 173.744140625 c 0
 89.697265625 182.68359375 94.6669921875 191.315429688 100.068359375 199.666015625 c 0
 103.1484375 204.302734375 105.845703125 209.1875 109.1796875 213.65234375 c 0
 113.802734375 219.78125 119.52734375 224.919921875 125.35546875 229.865234375 c 0
 129.278320312 233.142578125 133.594726562 235.90234375 138.181640625 238.146484375 c 0
 141.536132812 239.671875 144.963867188 241.024414062 148.443359375 242.236328125 c 0
 151.978515625 243.30859375 155.4921875 244.448242188 158.990234375 245.638671875 c 0
 159.01171875 245.645507812 159.033203125 245.65234375 159.0546875 245.66015625 c 0
 171.932617188 244.83203125 184.737304688 250.319335938 193.32421875 259.78515625 c 1
 203.6796875 261.048828125 214.02734375 262.385742188 224.3828125 263.65234375 c 0
 242.118164062 266.084960938 259.920898438 264.837890625 277.658203125 263.349609375 c 0
 297.013671875 261.716796875 266.424804688 265.033203125 285.822265625 264.034179688 c 0xbc
 310.6875 262.33203125 335.579101562 262.458007812 360.474609375 263.100585938 c 0
 383.806640625 263.45703125 405.599609375 257.8828125 428.856445312 259.630859375 c 0
 439.985351562 260.423828125 500.950195312 243.094726562 512.049804688 244.20703125 c 1
 527.549804688 237.575195312 547.06640625 240.091796875 561.963867188 258.685546875 c 0
 565.1796875 266.403320312 568.393554688 274.119140625 571.608398438 281.8359375 c 1
 567.201171875 293.549804688 565.548828125 306.713867188 558.385742188 316.9765625 c 0
 554.350585938 322.759765625 546.426757812 324.590820312 539.901367188 327.265625 c 0xdc
 532.5078125 330.297851562 522.2109375 328.748046875 514.309570312 328.001953125 c 0
 500.399414062 326.383789062 440.994140625 337.678710938 427.026367188 336.673828125 c 0
 405.125976562 335.028320312 380.2890625 346.541992188 358.31640625 346.223632812 c 0
 335.563476562 345.629882812 312.819335938 345.471679688 290.09375 347.073242188 c 0
 271.579101562 348.024414062 303.05078125 344.653320312 284.576171875 346.2109375 c 0
 261.170898438 348.155273438 237.662109375 349.32421875 214.28125 346.185546875 c 0
 192.791992188 343.552734375 183.630859375 346.702148438 162.046875 344.919921875 c 0
 158.306640625 344.608398438 153.696289062 343.861328125 148.7109375 342.95703125 c 1
 156.083984375 350.489257812 163.588867188 358.201171875 167.529296875 364.185546875 c 0
 175.818359375 375.637695312 173.067382812 379.895507812 183.193359375 389.755859375 c 0
 197.759765625 404.498046875 211.993164062 419.578125 227.04296875 433.8359375 c 0
 247.895507812 453.69921875 268.702148438 473.616210938 288.818359375 494.232421875 c 0
 300.27734375 505.938476562 311.399414062 518.0703125 323.541015625 529.064453125 c 0
 361.830078125 557.629882812 336.184570312 606.983398438 299.9453125 605.62890625 c 1xbc
EndSplineSet
EndChar

StartChar: uniE043
Encoding: 51 57411 49
Width: 645
VWidth: 924
Flags: W
LayerCount: 2
Fore
SplineSet
686.6484375 618.377929688 m 1
 512.98828125 554.1171875 l 1
 422.34375 459.890625 l 1
 361.4296875 519.24609375 l 1
 300.72265625 563.05859375 l 1
 236.005859375 557.76171875 l 1
 169.76953125 535.958984375 l 1
 130.2890625 490.978515625 l 1
 117.220703125 415.529296875 l 1
 119.365234375 332.720703125 l 1
 130.21875 286.294921875 l 1
 151.169921875 242.27734375 l 1
 211.18359375 225.76953125 l 1
 269.125 217.9296875 l 1
 370.763671875 269.71875 l 1
 370.625 256.306640625 l 1
 375.396484375 206.375 l 1
 359.326171875 164.96484375 l 1
 321.57421875 122.666015625 l 1
 282.919921875 91.1484375 l 1
 248 82 l 1
 199.4296875 78.654296875 l 1
 156.5234375 116.4765625 l 1
 112.439453125 149.14453125 l 1
 34.482421875 232.868164062 l 1
 -0.91796875 240.639648438 l 1
 -28.228515625 233.760742188 l 1
 -30.44140625 217.942382812 l 1
 -30.44140625 217.942382812 -46.7578125 144.212890625 -42.81640625 139.053710938 c 0
 -38.875 133.895507812 4.40625 108.584960938 4.40625 108.584960938 c 1
 41.8125 109.204101562 l 1
 123.16796875 37.111328125 l 1
 229.23046875 -2.3671875 l 1
 314.34375 7.8125 l 1
 355.966796875 30.509765625 l 1
 412.041015625 82.7109375 l 1
 466.109375 142.82421875 l 1
 488.7890625 228.177734375 l 1
 479.24609375 329.556640625 l 1
 495.287109375 399.50390625 l 1
 495.287109375 399.50390625 560.625976562 480.73046875 568.9921875 484.23828125 c 0
 577.358398438 487.74609375 718.116210938 576.998046875 718.116210938 576.998046875 c 1
 686.6484375 618.377929688 l 1
286.62109375 477.521484375 m 1
 325.822265625 453.150390625 l 1
 348.9140625 429.421875 l 1
 344.5 397.548828125 l 1
 340.6640625 380.08984375 l 1
 313.28125 356.775390625 l 1
 285.376953125 333.779296875 l 1
 261.47265625 317.43359375 l 1
 230.365234375 316.802734375 l 1
 214.462890625 337.4296875 l 1
 219.060546875 371.728515625 l 1
 218.3828125 418.880859375 l 1
 229.1640625 445.958984375 l 1
 262.076171875 473.9453125 l 1
 286.62109375 477.521484375 l 1
EndSplineSet
EndChar

StartChar: uniE044
Encoding: 52 57412 50
Width: 1000
VWidth: 924
LayerCount: 2
Fore
SplineSet
660.828125 548.359375 m 1
 616.857421875 531.87109375 l 1
 586.62890625 496.14453125 l 1
 545.40625 421.9453125 l 1
 482.19921875 339.501953125 l 1
 443.7265625 290.03515625 l 1
 380.517578125 213.087890625 l 1
 309.06640625 144.3828125 l 1
 276.08984375 122.3984375 l 1
 262.349609375 141.634765625 l 1
 254.103515625 177.361328125 l 1
 226.623046875 273.546875 l 1
 179.904296875 372.478515625 l 1
 157.919921875 432.9375 l 1
 119.4453125 482.404296875 l 1
 67.23046875 507.13671875 l 1
 15.015625 490.6484375 l 1
 -4.220703125 476.908203125 l 1
 -15.212890625 430.189453125 l 1
 -4.220703125 397.212890625 l 1
 26.009765625 366.982421875 l 1
 47.994140625 339.501953125 l 1
 56.23828125 325.759765625 l 1
 67.23046875 331.255859375 l 1
 94.712890625 328.5078125 l 1
 113.94921875 303.775390625 l 1
 144.1796875 251.560546875 l 1
 174.408203125 171.865234375 l 1
 174.408203125 130.642578125 l 1
 182.65234375 42.703125 l 1
 171.66015625 -9.51171875 l 1
 152.423828125 -36.994140625 l 1
 122.193359375 -67.22265625 l 1
 100.208984375 -119.4375 l 1
 100.208984375 -166.15625 l 1
 113.94921875 -201.880859375 l 1
 168.912109375 -218.37109375 l 1
 221.126953125 -177.1484375 l 1
 243.111328125 -135.92578125 l 1
 262.349609375 -86.4609375 l 1
 300.822265625 -31.498046875 l 1
 328.3046875 15.220703125 l 1
 429.984375 111.40625 l 1
 490.443359375 196.59765625 l 1
 539.91015625 268.048828125 l 1
 600.369140625 281.791015625 l 1
 669.072265625 317.515625 l 1
 691.05859375 380.72265625 l 1
 710.294921875 493.396484375 l 1
 704.798828125 540.115234375 l 1
 660.828125 548.359375 l 1
507.8984375 105.583984375 m 1
 478.91015625 96.525390625 l 1
 465.322265625 82.03125 l 1
 457.169921875 60.291015625 l 1
 464.41796875 25.8671875 l 1
 493.404296875 -0.40234375 l 1
 532.357421875 -19.42578125 l 1
 572.21484375 -13.083984375 l 1
 609.35546875 0.50390625 l 1
 633.8125 24.056640625 l 1
 646.494140625 50.326171875 l 1
 645.587890625 72.97265625 l 1
 632.90625 85.654296875 l 1
 612.978515625 84.748046875 l 1
 587.61328125 82.9375 l 1
 568.591796875 86.560546875 l 1
 557.720703125 99.2421875 l 1
 539.603515625 104.677734375 l 1
 507.8984375 105.583984375 l 1
EndSplineSet
EndChar

StartChar: uniE045
Encoding: 53 57413 51
Width: 1000
VWidth: 924
HStem: 817.55 20G<111.268 190.375>
LayerCount: 2
Fore
SplineSet
37.265625 934.520507812 m 1
 11.74609375 929.416992188 l 1
 -21.427734375 909.000976562 l 1
 -44.39453125 863.067382812 l 1
 -41.841796875 814.583007812 l 1
 -26.53125 783.961914062 l 1
 1.5390625 745.684570312 l 1
 37.265625 712.508789062 l 1
 85.75 661.473632812 l 1
 118.923828125 620.643554688 l 1
 164.857421875 572.159179688 l 1
 203.134765625 533.879882812 l 1
 226.1015625 505.809570312 l 1
 256.72265625 470.084960938 l 1
 269.482421875 439.461914062 l 1
 282.2421875 398.633789062 l 1
 282.2421875 375.666992188 l 1
 282.2421875 357.803710938 l 1
 259.275390625 350.147460938 l 1
 215.89453125 350.147460938 l 1
 169.9609375 342.493164062 l 1
 134.234375 306.766601562 l 1
 101.060546875 268.489257812 l 1
 88.302734375 225.108398438 l 1
 88.302734375 181.727539062 l 1
 98.509765625 133.241210938 l 1
 129.130859375 89.8603515625 l 1
 172.51171875 56.6865234375 l 1
 215.89453125 56.6865234375 l 1
 261.826171875 71.9970703125 l 1
 323.0703125 107.723632812 l 1
 366.453125 146.000976562 l 1
 379.2109375 184.278320312 l 1
 394.5234375 242.971679688 l 1
 394.5234375 291.456054688 l 1
 394.5234375 362.907226562 l 1
 371.556640625 408.840820312 l 1
 330.7265625 487.948242188 l 1
 289.896484375 538.985351562 l 1
 238.861328125 592.573242188 l 1
 192.927734375 646.161132812 l 1
 159.75390625 674.231445312 l 1
 108.716796875 732.924804688 l 1
 67.88671875 781.409179688 l 1
 67.88671875 804.375976562 l 1
 75.54296875 824.790039062 l 1
 111.267578125 834.999023438 l 1
 152.09765625 837.549804688 l 1
 190.375 824.790039062 l 1
 226.1015625 783.961914062 l 1
 282.2421875 712.508789062 l 1
 323.0703125 671.680664062 l 1
 374.107421875 607.883789062 l 1
 422.59375 561.950195312 l 1
 450.6640625 526.225585938 l 1
 491.4921875 477.741210938 l 1
 532.322265625 429.254882812 l 1
 568.048828125 393.530273438 l 1
 621.63671875 352.700195312 l 1
 657.36328125 332.286132812 l 1
 723.7109375 294.006835938 l 1
 792.609375 286.352539062 l 1
 823.232421875 294.006835938 l 1
 825.783203125 311.870117188 l 1
 782.40234375 334.836914062 l 1
 746.677734375 360.356445312 l 1
 710.951171875 383.321289062 l 1
 667.5703125 413.944335938 l 1
 621.63671875 459.877929688 l 1
 583.359375 493.051757812 l 1
 534.875 538.985351562 l 1
 501.69921875 574.709960938 l 1
 458.318359375 623.194335938 l 1
 432.80078125 656.370117188 l 1
 389.419921875 702.301757812 l 1
 363.900390625 743.131835938 l 1
 343.486328125 778.858398438 l 1
 310.3125 834.999023438 l 1
 282.2421875 875.827148438 l 1
 243.96484375 901.346679688 l 1
 187.82421875 921.760742188 l 1
 129.130859375 931.967773438 l 1
 70.439453125 934.520507812 l 1
 37.265625 934.520507812 l 1
251.619140625 250.625976562 m 1
 292.44921875 250.625976562 l 1
 305.208984375 230.211914062 l 1
 289.896484375 202.141601562 l 1
 259.275390625 176.622070312 l 1
 220.998046875 151.104492188 l 1
 192.927734375 151.104492188 l 1
 185.271484375 176.622070312 l 1
 187.82421875 197.038085938 l 1
 205.6875 230.211914062 l 1
 251.619140625 250.625976562 l 1
424.470703125 189.086914062 m 1
 395.482421875 180.028320312 l 1
 381.89453125 165.534179688 l 1
 373.7421875 143.793945312 l 1
 380.990234375 109.370117188 l 1
 409.9765625 83.1005859375 l 1
 448.9296875 64.0771484375 l 1
 488.787109375 70.4189453125 l 1
 525.927734375 84.0068359375 l 1
 550.384765625 107.559570312 l 1
 563.06640625 133.829101562 l 1
 562.16015625 156.475585938 l 1
 549.478515625 169.157226562 l 1
 529.55078125 168.250976562 l 1
 504.185546875 166.440429688 l 1
 485.1640625 170.063476562 l 1
 474.29296875 182.745117188 l 1
 456.17578125 188.180664062 l 1
 424.470703125 189.086914062 l 1
EndSplineSet
EndChar

StartChar: uniE046
Encoding: 54 57414 52
Width: 1000
VWidth: 924
HStem: 80.4307 82.8789<92.2401 127.64 137.216 180.066> 294.567 83.0586<561.693 605.205> 355.394 82.1523<194.82 278.669 359.327 462.527> 437.571 0.861328<292.17 307.086>
VStem: -6.62012 83.0996<174.03 286.634> 216.614 83.002<199.56 272.101 290.405 315.347>
LayerCount: 2
Fore
SplineSet
300.956054688 696.989257812 m 2xbc
 292.592773438 696.676757812 283.665039062 693.663085938 274.829101562 687.071289062 c 0
 258.735351562 674.064453125 244.860351562 658.521484375 230.409179688 643.758789062 c 0
 210.969726562 623.8359375 190.853515625 604.59765625 170.702148438 585.401367188 c 0
 155.02734375 570.584960938 140.216796875 554.8984375 125.059570312 539.561523438 c 0
 111.966796875 526.903320312 100.022460938 513.2109375 89.2021484375 498.579101562 c 0
 81.927734375 487.965820312 75.0234375 477.124023438 67.2392578125 466.870117188 c 0
 61.9365234375 459.955078125 55.8779296875 453.6875 49.8896484375 447.375976562 c 0
 39.083984375 436.004882812 31.4931640625 421.59375 31.4677734375 405.536132812 c 0
 31.4609375 401.096679688 32.41796875 396.709960938 32.8935546875 392.295898438 c 0
 34.6533203125 387.711914062 35.8017578125 382.84375 38.1728515625 378.543945312 c 0
 41.6669921875 372.208984375 45.7880859375 367.572265625 50.7353515625 363.493164062 c 1
 47.99609375 360.396484375 45.3466796875 357.217773438 42.9013671875 353.860351562 c 0
 38.7509765625 348.078125 34.9453125 342.0859375 31.1748046875 336.051757812 c 0
 23.65625 324.34375 16.7109375 312.262695312 10.7294921875 299.690429688 c 0
 1.1201171875 278.467773438 -7.0859375 256.284179688 -6.6201171875 232.604492188 c 0
 -5.7470703125 210.043945312 -3.25390625 187.4453125 3.8740234375 165.903320312 c 0
 5.4306640625 161.809570312 6.8095703125 157.64453125 8.5439453125 153.622070312 c 0
 15.0361328125 138.564453125 24.6318359375 123.87890625 36.5595703125 112.579101562 c 0
 40.02734375 109.293945312 43.95703125 106.532226562 47.6552734375 103.508789062 c 0
 55.2783203125 98.8076171875 58.5146484375 96.4912109375 66.9013671875 92.7236328125 c 0
 79.619140625 87.009765625 93.146484375 83.7958984375 106.903320312 81.8291015625 c 0
 114.846679688 81.00390625 119.454101562 80.3115234375 127.639648438 80.4306640625 c 0
 138.884765625 80.59375 149.845703125 82.8115234375 160.622070312 85.8759765625 c 0
 175.56640625 90.2919921875 190.313476562 95.4306640625 204.176757812 102.635742188 c 0
 217.06640625 109.455078125 229.556640625 117.075195312 240.360351562 126.975585938 c 0
 253.848632812 139.624023438 266.131835938 153.53515625 275.022460938 169.875976562 c 0
 282.494140625 184.891601562 288.421875 200.568359375 292.178710938 216.950195312 c 0
 295.932617188 233.481445312 298.676757812 250.213867188 299.616210938 267.163085938 c 0
 300.075195312 274.91015625 300.356445312 282.666992188 300.946289062 290.405273438 c 0
 305.157226562 349.049804688 222.221679688 355.004882812 218.010742188 296.360351562 c 0
 217.381835938 288.284179688 217.09765625 280.186523438 216.614257812 272.100585938 c 0
 215.89453125 259.788085938 213.979492188 247.616210938 211.153320312 235.624023438 c 0
 208.767578125 225.875976562 205.544921875 216.356445312 200.858398438 207.473632812 c 0
 196.163085938 200.125976562 190.235351562 193.774414062 183.809570312 187.932617188 c 0
 178.348632812 183.228515625 172.100585938 179.602539062 165.702148438 176.348632812 c 0
 156.633789062 171.705078125 146.970703125 168.495117188 137.215820312 165.663085938 c 0
 133.46875 164.901367188 129.747070312 163.44921875 125.881835938 163.309570312 c 0
 122.973632812 163.205078125 118.895507812 164.119140625 116.083007812 164.471679688 c 0
 111.291992188 165.50390625 106.330078125 166.19921875 101.733398438 167.985351562 c 0
 98.3134765625 169.314453125 95.11328125 171.756835938 92.0986328125 173.784179688 c 0
 89.10546875 179.033203125 85.62890625 184.024414062 83.4541015625 189.711914062 c 0
 82.8974609375 191.168945312 82.529296875 192.69140625 82.0673828125 194.180664062 c 0
 78.2080078125 207.61328125 76.88671875 221.594726562 76.4794921875 235.514648438 c 0
 76.5703125 236.9609375 76.5205078125 238.421875 76.7529296875 239.852539062 c 0
 76.8984375 240.747070312 77.3388671875 241.56640625 77.6025390625 242.432617188 c 0
 79.1064453125 247.368164062 79.1103515625 248.139648438 81.0380859375 253.161132812 c 0
 82.6005859375 257.232421875 84.509765625 261.154296875 86.3447265625 265.104492188 c 0
 90.708984375 274.044921875 95.677734375 282.676757812 101.079101562 291.026367188 c 0
 104.159179688 295.663085938 106.857421875 300.547851562 110.190429688 305.012695312 c 0
 114.813476562 311.141601562 120.538085938 316.280273438 126.366210938 321.225585938 c 0
 130.2890625 324.502929688 134.606445312 327.262695312 139.192382812 329.506835938 c 0
 142.546875 331.033203125 145.974609375 332.384765625 149.454101562 333.596679688 c 0
 152.989257812 334.669921875 156.502929688 335.809570312 160.000976562 336.999023438 c 0
 160.022460938 337.005859375 160.043945312 337.013671875 160.065429688 337.020507812 c 0
 172.943359375 336.193359375 185.748046875 341.680664062 194.334960938 351.145507812 c 1
 204.69140625 352.409179688 215.038085938 353.74609375 225.393554688 355.012695312 c 0
 243.129882812 357.446289062 260.931640625 356.198242188 278.668945312 354.709960938 c 0
 298.024414062 353.077148438 267.435546875 356.392578125 286.833007812 355.393554688 c 0xbc
 311.698242188 353.690429688 336.58984375 353.81640625 361.485351562 354.459960938 c 0
 384.817382812 354.81640625 406.609375 349.243164062 429.866210938 350.991210938 c 0
 440.995117188 351.784179688 547.961914062 293.455078125 559.061523438 294.567382812 c 1
 574.560546875 287.934570312 594.077148438 290.452148438 608.975585938 309.045898438 c 0
 612.19140625 316.762695312 615.404296875 324.479492188 618.620117188 332.196289062 c 1
 614.211914062 343.91015625 612.560546875 357.07421875 605.397460938 367.336914062 c 0
 601.361328125 373.120117188 593.4375 374.951171875 586.913085938 377.625976562 c 0xdc
 579.518554688 380.657226562 569.22265625 379.108398438 561.321289062 378.362304688 c 0
 547.41015625 376.743164062 442.005859375 429.038085938 428.038085938 428.034179688 c 0
 406.137695312 426.387695312 381.298828125 437.901367188 359.327148438 437.583007812 c 0
 336.57421875 436.989257812 313.829101562 436.831054688 291.104492188 438.432617188 c 0
 272.58984375 439.383789062 304.061523438 436.014648438 285.586914062 437.571289062 c 0
 262.182617188 439.515625 238.672851562 440.684570312 215.291992188 437.545898438 c 0
 193.802734375 434.9140625 184.641601562 438.0625 163.057617188 436.280273438 c 0
 159.317382812 435.969726562 154.70703125 435.221679688 149.721679688 434.317382812 c 1
 157.094726562 441.849609375 164.599609375 449.5625 168.540039062 455.545898438 c 0
 176.830078125 466.999023438 174.079101562 471.256835938 184.204101562 481.116210938 c 0
 198.770507812 495.859375 213.00390625 510.939453125 228.053710938 525.196289062 c 0
 248.90625 545.060546875 269.712890625 564.977539062 289.829101562 585.592773438 c 0
 301.288085938 597.298828125 312.411132812 609.430664062 324.551757812 620.424804688 c 0
 362.840820312 648.991210938 337.196289062 698.344726562 300.956054688 696.989257812 c 2xbc
385.288085938 201.840820312 m 1
 356.299804688 192.782226562 l 1
 342.711914062 178.288085938 l 1
 334.559570312 156.547851562 l 1
 341.807617188 122.124023438 l 1
 370.793945312 95.8544921875 l 1
 409.747070312 76.8310546875 l 1
 449.604492188 83.1728515625 l 1
 486.745117188 96.7607421875 l 1
 511.202148438 120.313476562 l 1
 523.883789062 146.583007812 l 1
 522.977539062 169.229492188 l 1
 510.295898438 181.911132812 l 1
 490.368164062 181.004882812 l 1
 465.002929688 179.194335938 l 1
 445.981445312 182.817382812 l 1
 435.110351562 195.499023438 l 1
 416.993164062 200.934570312 l 1
 385.288085938 201.840820312 l 1
EndSplineSet
EndChar

StartChar: uniE047
Encoding: 55 57415 53
Width: 1000
VWidth: 924
LayerCount: 2
Fore
SplineSet
124.104492188 783.604492188 m 1
 94.8330078125 779.946289062 l 1
 80.1962890625 747.014648438 l 1
 89.3447265625 704.938476562 l 1
 109.467773438 686.643554688 l 1
 140.569335938 670.176757812 l 1
 136.911132812 640.905273438 l 1
 133.250976562 615.293945312 l 1
 153.375976562 606.145507812 l 1
 186.305664062 595.168945312 l 1
 213.749023438 604.315429688 l 1
 241.190429688 596.999023438 l 1
 281.438476562 556.749023438 l 1
 350.959960938 498.206054688 l 1
 383.889648438 450.639648438 l 1
 387.971679688 445.586914062 l 1
 365.594726562 439.663085938 l 1
 200.942382812 324.407226562 l 1
 162.522460938 275.010742188 l 1
 102.151367188 234.762695312 l 1
 49.0966796875 200.002929688 l 1
 -40.5478515625 114.016601562 l 1
 -78.9677734375 84.7451171875 l 1
 -73.4794921875 46.3251953125 l 1
 -57.0146484375 13.3955078125 l 1
 -35.0595703125 2.4189453125 l 1
 -5.7880859375 4.2470703125 l 1
 45.4365234375 18.8837890625 l 1
 67.3896484375 39.0087890625 l 1
 105.809570312 82.9150390625 l 1
 124.104492188 128.653320312 l 1
 146.057617188 159.752929688 l 1
 206.430664062 198.172851562 l 1
 261.315429688 242.079101562 l 1
 332.665039062 293.305664062 l 1
 396.696289062 340.872070312 l 1
 436.944335938 357.336914062 l 1
 453.235351562 364.784179688 l 1
 460.727539062 355.506835938 l 1
 515.612304688 291.475585938 l 1
 555.860351562 236.590820312 l 1
 592.450195312 189.024414062 l 1
 641.846679688 119.504882812 l 1
 687.583007812 28.0302734375 l 1
 760.762695312 -90.8837890625 l 1
 797.352539062 -127.473632812 l 1
 841.258789062 -143.940429688 l 1
 866.872070312 -136.622070312 l 1
 877.848632812 -114.666992188 l 1
 879.678710938 -94.5439453125 l 1
 863.211914062 -81.7373046875 l 1
 846.747070312 -74.4189453125 l 1
 806.499023438 9.7373046875 l 1
 766.250976562 92.0634765625 l 1
 735.149414062 134.141601562 l 1
 654.653320312 251.227539062 l 1
 572.325195312 357.336914062 l 1
 529.227539062 416.204101562 l 1
 539.395507812 426.856445312 l 1
 535.737304688 459.788085938 l 1
 486.340820312 472.594726562 l 1
 484.670898438 472.125976562 l 1
 422.309570312 532.965820312 l 1
 332.665039062 629.928710938 l 1
 253.997070312 708.596679688 l 1
 191.795898438 756.163085938 l 1
 124.104492188 783.604492188 l 1
871.149414062 108.192382812 m 1
 842.161132812 99.1337890625 l 1
 828.573242188 84.6396484375 l 1
 820.420898438 62.8994140625 l 1
 827.668945312 28.4755859375 l 1
 856.655273438 2.2060546875 l 1
 895.608398438 -16.8173828125 l 1
 935.465820312 -10.4755859375 l 1
 972.606445312 3.1123046875 l 1
 997.063476562 26.6650390625 l 1
 1009.74511719 52.9345703125 l 1
 1008.83886719 75.5810546875 l 1
 996.157226562 88.2626953125 l 1
 976.229492188 87.3564453125 l 1
 950.864257812 85.5458984375 l 1
 931.842773438 89.1689453125 l 1
 920.971679688 101.850585938 l 1
 902.854492188 107.286132812 l 1
 871.149414062 108.192382812 l 1
EndSplineSet
EndChar

StartChar: uniE048
Encoding: 56 57416 54
Width: 1000
VWidth: 924
LayerCount: 2
Fore
SplineSet
70.9951171875 421.345703125 m 1
 38.0166015625 410.353515625 l 1
 7.7880859375 380.123046875 l 1
 -3.2060546875 349.89453125 l 1
 -5.9541015625 297.6796875 l 1
 -5.9541015625 253.708984375 l 1
 -0.4560546875 193.25 l 1
 13.2841796875 165.76953125 l 1
 54.5048828125 130.04296875 l 1
 81.9873046875 113.5546875 l 1
 125.958007812 97.06640625 l 1
 169.926757812 99.814453125 l 1
 208.401367188 119.05078125 l 1
 238.631835938 152.02734375 l 1
 271.608398438 193.25 l 1
 285.348632812 231.724609375 l 1
 290.844726562 275.6953125 l 1
 282.600585938 333.40625 l 1
 257.868164062 369.130859375 l 1
 227.637695312 396.61328125 l 1
 186.416992188 418.59765625 l 1
 123.209960938 421.345703125 l 1
 70.9951171875 421.345703125 l 1
158.934570312 349.89453125 m 1
 178.172851562 325.16015625 l 1
 194.661132812 297.6796875 l 1
 194.661132812 264.701171875 l 1
 186.416992188 239.96875 l 1
 172.674804688 215.236328125 l 1
 150.690429688 195.998046875 l 1
 120.461914062 193.25 l 1
 101.223632812 198.74609375 l 1
 98.4755859375 226.228515625 l 1
 98.4755859375 248.212890625 l 1
 103.971679688 281.19140625 l 1
 117.713867188 330.65625 l 1
 136.950195312 347.146484375 l 1
 158.934570312 349.89453125 l 1
324.831054688 210.04296875 m 1
 295.842773438 200.984375 l 1
 282.254882812 186.490234375 l 1
 274.102539062 164.75 l 1
 281.350585938 130.326171875 l 1
 310.336914062 104.056640625 l 1
 349.290039062 85.033203125 l 1
 389.147460938 91.375 l 1
 426.288085938 104.962890625 l 1
 450.745117188 128.515625 l 1
 463.426757812 154.78515625 l 1
 462.520507812 177.431640625 l 1
 449.838867188 190.11328125 l 1
 429.911132812 189.20703125 l 1
 404.545898438 187.396484375 l 1
 385.524414062 191.01953125 l 1
 374.653320312 203.701171875 l 1
 356.536132812 209.13671875 l 1
 324.831054688 210.04296875 l 1
EndSplineSet
EndChar

StartChar: uniE049
Encoding: 57 57417 55
Width: 1000
VWidth: 924
HStem: 294.952 98.4863<113.497 169.495> 328.646 64.793<750.56 778.56> 349.378 44.0605<928.544 954.798>
LayerCount: 2
Fore
SplineSet
322.409179688 396.030273438 m 1x20
 226.514648438 393.438476562 l 1x20
 148.762695312 393.438476562 l 1x80
 86.5595703125 393.438476562 l 1
 37.3154296875 377.887695312 l 1
 -1.5595703125 359.745117188 l 1
 -37.8447265625 349.377929688 l 1x20
 -40.4365234375 320.870117188 l 1
 -17.1103515625 294.952148438 l 1
 8.8076171875 269.034179688 l 1
 42.4990234375 253.483398438 l 1
 71.0087890625 261.258789062 l 1
 107.293945312 287.176757812 l 1
 169.495117188 294.952148438 l 1
 205.780273438 294.952148438 l 1x80
 190.229492188 250.891601562 l 1
 182.454101562 206.833007812 l 1
 192.821289062 152.405273438 l 1
 223.922851562 129.079101562 l 1
 278.350585938 97.9775390625 l 1
 335.368164062 105.752929688 l 1
 387.204101562 129.079101562 l 1
 428.670898438 139.446289062 l 1
 467.547851562 105.752929688 l 1
 503.833007812 85.0185546875 l 1
 555.668945312 61.6943359375 l 1
 610.094726562 51.3271484375 l 1
 656.747070312 64.2861328125 l 1
 700.805664062 92.7939453125 l 1
 729.315429688 131.670898438 l 1
 747.458007812 173.139648438 l 1
 747.458007812 217.198242188 l 1
 742.274414062 266.442382812 l 1
 737.090820312 292.360351562 l 1
 737.090820312 318.278320312 l 1
 778.559570312 328.645507812 l 1
 830.393554688 326.053710938 l 1
 877.045898438 328.645507812 l 1x40
 915.922851562 339.012695312 l 1
 954.797851562 349.377929688 l 1
 970.348632812 375.295898438 l 1
 970.348632812 393.438476562 l 1
 918.514648438 396.030273438 l 1
 864.086914062 393.438476562 l 1
 791.518554688 390.846679688 l 1
 705.989257812 390.846679688 l 1
 615.278320312 383.071289062 l 1
 532.342773438 383.071289062 l 1
 423.489257812 383.071289062 l 1
 322.409179688 396.030273438 l 1x20
545.301757812 313.094726562 m 1
 573.809570312 305.319335938 l 1
 599.727539062 287.176757812 l 1
 630.829101562 256.075195312 l 1
 638.604492188 235.340820312 l 1
 643.788085938 217.198242188 l 1
 643.788085938 186.098632812 l 1
 638.604492188 165.364257812 l 1
 625.645507812 144.629882812 l 1
 599.727539062 134.262695312 l 1
 578.993164062 134.262695312 l 1
 547.893554688 147.221679688 l 1
 524.567382812 170.547851562 l 1
 519.383789062 193.874023438 l 1
 516.791992188 224.973632812 l 1
 519.383789062 256.075195312 l 1
 524.567382812 294.952148438 l 1x80
 545.301757812 313.094726562 l 1
366.469726562 310.502929688 m 1
 389.795898438 310.502929688 l 1
 405.346679688 300.135742188 l 1
 405.346679688 269.034179688 l 1
 392.387695312 235.340820312 l 1
 369.061523438 206.833007812 l 1
 325.000976562 199.057617188 l 1
 309.450195312 209.424804688 l 1
 309.450195312 227.565429688 l 1
 322.409179688 256.075195312 l 1
 337.959960938 292.360351562 l 1
 366.469726562 310.502929688 l 1
797.010742188 204.325195312 m 1
 768.022460938 195.266601562 l 1
 754.434570312 180.772460938 l 1
 746.282226562 159.032226562 l 1
 753.530273438 124.608398438 l 1
 782.516601562 98.3388671875 l 1
 821.469726562 79.3154296875 l 1
 861.327148438 85.6572265625 l 1
 898.467773438 99.2451171875 l 1
 922.924804688 122.797851562 l 1
 935.606445312 149.067382812 l 1
 934.700195312 171.713867188 l 1
 922.018554688 184.395507812 l 1
 902.090820312 183.489257812 l 1
 876.725585938 181.678710938 l 1
 857.704101562 185.301757812 l 1
 846.833007812 197.983398438 l 1
 828.715820312 203.418945312 l 1
 797.010742188 204.325195312 l 1
EndSplineSet
EndChar

StartChar: uniE050
Encoding: 58 57424 56
Width: 1000
VWidth: 924
LayerCount: 2
Fore
SplineSet
101.802734375 396.932617188 m 1
 50.416015625 380.782226562 l 1
 15.1796875 324.993164062 l 1
 -0.970703125 275.073242188 l 1
 -8.310546875 220.750976562 l 1
 4.90234375 172.301757812 l 1
 31.330078125 132.661132812 l 1
 71.533203125 119.383789062 l 1
 112.642578125 104.702148438 l 1
 161.091796875 97.3603515625 l 1
 209.541015625 107.637695312 l 1
 247.15234375 113.573242188 l 1
 286.79296875 153.213867188 l 1
 307.34765625 188.452148438 l 1
 307.34765625 228.092773438 l 1
 301.474609375 276.541992188 l 1
 316.15625 285.350585938 l 1
 344.052734375 297.096679688 l 1
 408.65234375 300.032226562 l 1
 508.48828125 302.969726562 l 1
 573.08984375 301.500976562 l 1
 583.3671875 316.182617188 l 1
 587.771484375 339.674804688 l 1
 574.556640625 371.973632812 l 1
 543.724609375 370.506835938 l 1
 483.529296875 369.038085938 l 1
 380.7578125 367.569335938 l 1
 285.326171875 366.100585938 l 1
 220.724609375 366.100585938 l 1
 197.234375 386.655273438 l 1
 145.84765625 395.465820312 l 1
 101.802734375 396.932617188 l 1
141.443359375 302.969726562 m 1
 172.275390625 297.096679688 l 1
 191.361328125 285.350585938 l 1
 210.447265625 270.668945312 l 1
 220.724609375 242.774414062 l 1
 217.7890625 216.346679688 l 1
 198.703125 198.727539062 l 1
 179.615234375 179.641601562 l 1
 154.65625 166.428710938 l 1
 128.23046875 166.428710938 l 1
 107.67578125 169.364257812 l 1
 94.4609375 176.706054688 l 1
 79.779296875 207.538085938 l 1
 75.375 226.624023438 l 1
 85.65234375 258.924804688 l 1
 101.802734375 283.883789062 l 1
 120.888671875 292.692382812 l 1
 141.443359375 302.969726562 l 1
413.537109375 224.918945312 m 1
 384.548828125 215.860351562 l 1
 370.9609375 201.366210938 l 1
 362.80859375 179.625976562 l 1
 370.056640625 145.202148438 l 1
 399.04296875 118.932617188 l 1
 437.99609375 99.9091796875 l 1
 477.853515625 106.250976562 l 1
 514.994140625 119.838867188 l 1
 539.451171875 143.391601562 l 1
 552.1328125 169.661132812 l 1
 551.2265625 192.307617188 l 1
 538.544921875 204.989257812 l 1
 518.6171875 204.083007812 l 1
 493.251953125 202.272460938 l 1
 474.23046875 205.895507812 l 1
 463.359375 218.577148438 l 1
 445.2421875 224.012695312 l 1
 413.537109375 224.918945312 l 1
EndSplineSet
EndChar

StartChar: uniE051
Encoding: 59 57425 57
Width: 1000
VWidth: 924
HStem: 93.7734 86.9336<146.23 191.46>
LayerCount: 2
Fore
SplineSet
89.0625 426.0234375 m 1
 67.626953125 415.306640625 l 1
 35.474609375 384.34375 l 1
 18.80078125 360.525390625 l 1
 3.3203125 346.236328125 l 1
 -1.443359375 330.75390625 l 1
 -1.443359375 311.701171875 l 1
 4.51171875 295.029296875 l 1
 15.228515625 292.646484375 l 1
 27.13671875 296.220703125 l 1
 39.046875 304.556640625 l 1
 45 285.501953125 l 1
 42.619140625 249.77734375 l 1
 40.236328125 220.005859375 l 1
 42.619140625 184.279296875 l 1
 43.810546875 161.65234375 l 1
 55.71875 144.98046875 l 1
 72.390625 130.69140625 l 1
 103.353515625 112.828125 l 1
 134.314453125 99.728515625 l 1
 165.27734375 93.7734375 l 1
 197.4296875 92.58203125 l 1
 231.96484375 94.96484375 l 1
 266.5 105.681640625 l 1
 296.271484375 115.208984375 l 1
 324.8515625 127.1171875 l 1
 342.71484375 130.69140625 l 1
 367.72265625 160.462890625 l 1
 382.013671875 180.70703125 l 1
 384.39453125 216.431640625 l 1
 384.39453125 216.431640625 383.205078125 237.869140625 383.205078125 245.013671875 c 0
 383.205078125 252.159179688 393.921875 272.40234375 393.921875 272.40234375 c 1
 405.830078125 329.564453125 l 1
 408.212890625 362.908203125 l 1
 411.78515625 386.724609375 l 1
 411.78515625 386.724609375 405.83203125 396.251953125 401.068359375 403.396484375 c 0
 396.3046875 410.541992188 382.013671875 404.587890625 382.013671875 404.587890625 c 1
 339.142578125 397.443359375 l 1
 317.70703125 390.296875 l 1
 308.1796875 366.48046875 l 1
 297.462890625 340.28125 l 1
 286.744140625 298.6015625 l 1
 274.8359375 249.77734375 l 1
 254.591796875 214.05078125 l 1
 236.728515625 193.806640625 l 1
 212.912109375 180.70703125 l 1
 191.4765625 178.32421875 l 2
 191.4765625 178.32421875 168.850585938 180.70703125 162.896484375 180.70703125 c 0
 156.942382812 180.70703125 146.22265625 183.087890625 146.22265625 183.087890625 c 1
 140.26953125 217.623046875 l 1
 143.841796875 246.203125 l 1
 147.4140625 292.646484375 l 1
 159.322265625 304.556640625 l 1
 158.1328125 346.236328125 l 1
 158.1328125 386.724609375 l 1
 158.1328125 416.49609375 l 1
 158.1328125 416.49609375 147.415039062 422.451171875 141.4609375 422.451171875 c 0
 135.506835938 422.451171875 121.21484375 424.83203125 116.451171875 424.83203125 c 0
 111.6875 424.83203125 89.0625 426.0234375 89.0625 426.0234375 c 1
454.302734375 217.123046875 m 1
 425.314453125 208.064453125 l 1
 411.7265625 193.5703125 l 1
 403.57421875 171.830078125 l 1
 410.822265625 137.40625 l 1
 439.80859375 111.13671875 l 1
 478.76171875 92.11328125 l 1
 518.619140625 98.455078125 l 1
 555.759765625 112.04296875 l 1
 580.216796875 135.595703125 l 1
 592.8984375 161.865234375 l 1
 591.9921875 184.51171875 l 1
 579.310546875 197.193359375 l 1
 559.3828125 196.287109375 l 1
 534.017578125 194.4765625 l 1
 514.99609375 198.099609375 l 1
 504.125 210.78125 l 1
 486.0078125 216.216796875 l 1
 454.302734375 217.123046875 l 1
EndSplineSet
EndChar

StartChar: uniE05A
Encoding: 60 57434 58
Width: 818
VWidth: 924
Flags: W
VStem: 57.8965 80.0068<-160.974 -80.1123>
LayerCount: 2
Fore
SplineSet
58.6943359375 231.9921875 m 1
 22.5185546875 243.022460938 l 1
 -6.875 245.870117188 l 1
 -28.646484375 199.217773438 l 1
 -4.32421875 149.604492188 l 1
 14.234375 129.473632812 l 1
 39.775390625 105.915039062 l 1
 39.775390625 59.2626953125 l 1
 45.1572265625 18.2744140625 l 1
 51.9580078125 -80.1123046875 l 1
 57.896484375 -160.973632812 l 1
 55.6318359375 -227.98828125 l 1
 57.5966796875 -303.206054688 l 1
 80.20703125 -345.051757812 l 1
 148.618164062 -346.741210938 l 1
 222.69140625 -309.983398438 l 1
 296.489257812 -227.688476562 l 1
 343.135742188 -127.6015625 l 1
 392.620117188 -60.318359375 l 1
 434.759765625 -9.1591796875 l 1
 463.17578125 53.3359375 l 1
 530.981445312 65.11328125 l 1
 617.081054688 1.765625 l 1
 694.834960938 1.765625 l 1
 760.009765625 11.9423828125 l 1
 838.817382812 73.85546875 835.245117188 183.2109375 763.256835938 250.576171875 c 1
 726.825195312 258.576171875 l 1
 694.834960938 272.345703125 l 1
 623.301757812 275.45703125 l 1
 586.567382812 254.530273438 l 1
 535.9609375 238.12890625 l 1
 456.559570312 179.982421875 l 1
 385.854492188 98.5556640625 l 1
 338.345703125 9.5009765625 l 1
 289.142578125 -62.869140625 l 1
 270.762695312 -131.010742188 l 1
 241.370117188 -182.739257812 l 1
 202.927734375 -214.966796875 l 1
 163.059570312 -222.038085938 l 1
 138.748046875 -197.7265625 l 1
 137.903320312 -145.986328125 l 1
 131.39453125 -73.046875 l 1
 120.638671875 -18.4892578125 l 1
 112.993164062 64.638671875 l 1
 105.346679688 130.2265625 l 1
 93.4638671875 163.01171875 l 1
 79.3271484375 202.3046875 l 1
 58.6943359375 231.9921875 l 1
665.711914062 207.608398438 m 1
 719.440429688 191.9140625 l 1
 740.083984375 149.78125 l 1
 723.11328125 99.869140625 l 1
 692.149414062 74.564453125 l 1
 649.172851562 66.6484375 l 1
 611 74 l 1
 585.981445312 109.630859375 l 1
 579.6171875 161.381835938 l 1
 605.060546875 196.018554688 l 1
 665.711914062 207.608398438 l 1
EndSplineSet
Ligature2: "'liga' +A5oDvwO5A70DrAAA +A8ADvwO7A7sDsQPAA7sDrAAA +A8MDxAO/A7kDxwO1A68DsQAA in +A5UDuwO7A7cDvQO5A7oDrgAA lookup 0-1" uniE044 omicron
LCarets2: 1 0
EndChar

StartChar: uniE053
Encoding: 61 57427 59
Width: 1000
VWidth: 924
LayerCount: 2
Fore
SplineSet
131.57421875 311.607421875 m 5
 60.04296875 308.49609375 l 5
 0.951171875 261.845703125 l 5
 -20.8203125 215.193359375 l 5
 -17.7109375 143.66015625 l 5
 4.060546875 109.44921875 l 5
 47.6015625 121.890625 l 5
 47.6015625 75.23828125 l 5
 28.94140625 13.037109375 l 5
 -5.26953125 -105.1484375 l 5
 -2.16015625 -186.010742188 l 5
 4.060546875 -238.8828125 l 5
 41.380859375 -288.64453125 l 5
 88.033203125 -329.076171875 l 5
 187.556640625 -347.736328125 l 5
 271.529296875 -316.635742188 l 5
 336.841796875 -282.423828125 l 5
 399.044921875 -176.6796875 l 5
 430.14453125 -89.59765625 l 5
 442.5859375 6.81640625 l 5
 467.466796875 41.02734375 l 5
 501.677734375 47.248046875 l 5
 570.099609375 19.255859375 l 5
 647.853515625 19.255859375 l 5
 703.8359375 37.91796875 l 5
 766.037109375 31.697265625 l 5
 846.900390625 9.92578125 l 5
 899.771484375 0.595703125 l 5
 955.75390625 25.4765625 l 5
 999.294921875 62.798828125 l 5
 1008.625 115.669921875 l 5
 1008.625 171.65234375 l 5
 980.634765625 240.07421875 l 5
 949.533203125 283.615234375 l 5
 899.771484375 302.27734375 l 5
 828.240234375 311.607421875 l 5
 778.478515625 311.607421875 l 5
 716.275390625 268.06640625 l 5
 675.84375 268.06640625 l 5
 647.853515625 289.8359375 l 5
 576.3203125 292.947265625 l 5
 483.017578125 280.505859375 l 5
 423.92578125 271.17578125 l 5
 386.603515625 221.4140625 l 5
 371.052734375 134.330078125 l 5
 346.171875 25.4765625 l 5
 318.181640625 -70.935546875 l 5
 302.630859375 -136.248046875 l 5
 243.5390625 -223.33203125 l 5
 178.2265625 -266.874023438 l 5
 144.015625 -266.874023438 l 5
 109.8046875 -232.662109375 l 5
 100.474609375 -176.6796875 l 5
 106.693359375 -89.59765625 l 5
 128.46484375 -2.513671875 l 5
 153.345703125 72.12890625 l 5
 178.2265625 156.1015625 l 5
 187.556640625 221.4140625 l 5
 172.005859375 280.505859375 l 5
 131.57421875 311.607421875 l 5
862.451171875 218.3046875 m 5
 899.771484375 193.421875 l 5
 918.43359375 162.322265625 l 5
 918.43359375 128.111328125 l 5
 915.322265625 103.23046875 l 5
 890.44140625 97.009765625 l 5
 865.560546875 100.119140625 l 5
 822.01953125 106.33984375 l 5
 794.02734375 106.33984375 l 5
 769.146484375 112.560546875 l 5
 769.146484375 149.880859375 l 5
 800.248046875 190.3125 l 5
 828.240234375 212.083984375 l 5
 862.451171875 218.3046875 l 5
622.97265625 199.642578125 m 5
 654.07421875 190.3125 l 5
 663.404296875 162.322265625 l 5
 663.404296875 134.330078125 l 5
 641.6328125 112.560546875 l 5
 604.3125 103.23046875 l 5
 573.2109375 106.33984375 l 5
 539 125 l 5
 539 149.880859375 l 5
 570.099609375 180.982421875 l 5
 622.97265625 199.642578125 l 5
EndSplineSet
LCarets2: 1 0
Ligature2: "'liga' +A5oDvwO5A70DrAAA +A8ADvwO7A7sDsQPAA7sDrAAA +A8MDxAO/A7kDxwO1A68DsQAA in +A5UDuwO7A7cDvQO5A7oDrgAA lookup 0-1" uniE044 omega
EndChar

StartChar: uniE054
Encoding: 62 57428 60
Width: 1228
VWidth: 924
Flags: W
LayerCount: 2
Fore
SplineSet
-46.765625 730.416015625 m 1
 -72.28515625 725.3125 l 1
 -105.458984375 704.896484375 l 1
 -128.42578125 658.962890625 l 1
 -125.873046875 610.478515625 l 1
 -110.5625 579.857421875 l 1
 -82.4921875 541.580078125 l 1
 -46.765625 508.404296875 l 1
 1.71875 457.369140625 l 1
 34.892578125 416.5390625 l 1
 80.826171875 368.0546875 l 1
 119.103515625 329.775390625 l 1
 142.0703125 301.705078125 l 1
 172.69140625 265.98046875 l 1
 185.451171875 235.357421875 l 1
 198.2109375 194.529296875 l 1
 198.2109375 171.5625 l 1
 198.2109375 153.69921875 l 1
 175.244140625 146.04296875 l 1
 131.86328125 146.04296875 l 1
 85.9296875 138.388671875 l 1
 50.203125 102.662109375 l 1
 17.029296875 64.384765625 l 1
 4.271484375 21.00390625 l 1
 4.271484375 -22.376953125 l 1
 14.478515625 -70.86328125 l 1
 45.099609375 -114.244140625 l 1
 88.48046875 -147.41796875 l 1
 131.86328125 -147.41796875 l 1
 177.794921875 -132.107421875 l 1
 239.0390625 -96.380859375 l 1
 282.421875 -58.103515625 l 1
 295.1796875 -19.826171875 l 1
 310.4921875 38.8671875 l 1
 310.4921875 87.3515625 l 1
 310.4921875 158.802734375 l 1
 287.525390625 204.736328125 l 1
 246.6953125 283.84375 l 1
 205.865234375 334.880859375 l 1
 154.830078125 388.46875 l 1
 108.896484375 442.056640625 l 1
 75.72265625 470.126953125 l 1
 24.685546875 528.8203125 l 1
 -16.14453125 577.3046875 l 1
 -16.14453125 600.271484375 l 1
 -8.48828125 620.685546875 l 1
 27.236328125 630.89453125 l 1
 68.06640625 633.4453125 l 1
 106.34375 620.685546875 l 1
 142.0703125 579.857421875 l 1
 198.2109375 508.404296875 l 1
 239.0390625 467.576171875 l 1
 290.076171875 403.779296875 l 1
 303.328125 391.224609375 l 1
 308.779296875 367.6015625 l 1
 320.818359375 319.4453125 l 1
 347.90625 241.19140625 l 1
 381.013671875 123.810546875 l 1
 417.1328125 42.544921875 l 1
 456.259765625 -47.748046875 l 1
 504.416015625 -104.93359375 l 1
 570.630859375 -150.080078125 l 1
 654.904296875 -186.197265625 l 1
 736.169921875 -201.24609375 l 1
 832.482421875 -156.099609375 l 1
 874.619140625 -89.884765625 l 1
 901.70703125 -8.62109375 l 1
 898.697265625 57.59375 l 1
 892.82421875 64.201171875 l 1
 896.7109375 64.5546875 l 1
 900.615234375 63.08984375 l 1
 904.52734375 51.841796875 l 1
 942.947265625 21.65625 l 1
 1030.76171875 2.4453125 l 1
 1104.85546875 2.4453125 l 1
 1167.97265625 27.14453125 l 1
 1250.29882812 68.306640625 l 1
 1302.43945312 125.935546875 l 1
 1340.85742188 189.052734375 l 1
 1357.32226562 238.44921875 l 1
 1338.11328125 285.099609375 l 1
 1296.95117188 309.798828125 l 1
 1258.53125 293.33203125 l 1
 1239.32226562 265.890625 l 1
 1211.87890625 202.7734375 l 1
 1184.4375 150.6328125 l 1
 1157.63671875 123.83203125 l 1
 1155.03515625 125.013671875 l 1
 1095.05273438 111.3828125 l 1
 1044.48242188 117.703125 l 1
 997.830078125 139.65625 l 1
 1000.57421875 172.587890625 l 1
 1008.42578125 210.267578125 l 1
 1009.38476562 212.955078125 l 1
 1009.21289062 214.046875 l 1
 1014.296875 238.44921875 l 1
 1038.99414062 285.099609375 l 1
 1033.50585938 331.751953125 l 1
 1014.296875 348.216796875 l 1
 973.1328125 342.728515625 l 1
 948.435546875 318.03125 l 1
 936.271484375 307.08203125 l 1
 918.248046875 265.890625 l 1
 890.806640625 241.193359375 l 1
 866.109375 235.705078125 l 1
 850.5546875 246.814453125 l 1
 849.9921875 245.931640625 l 1
 848.54296875 248.251953125 l 1
 846.8984375 249.42578125 l 1
 846.9921875 250.732421875 l 1
 836.251953125 267.91796875 l 1
 808.76953125 284.40625 l 1
 759.3046875 289.90234375 l 1
 693.34765625 281.658203125 l 1
 657.623046875 256.923828125 l 1
 638.38671875 212.955078125 l 1
 630.140625 166.236328125 l 1
 638.38671875 100.28125 l 1
 660.37109375 61.806640625 l 1
 698.845703125 20.583984375 l 1
 742.814453125 17.8359375 l 1
 791.671875 30.05078125 l 1
 790.345703125 15.45703125 l 1
 784.326171875 -44.73828125 l 1
 745.19921875 -89.884765625 l 1
 688.01171875 -116.97265625 l 1
 591.69921875 -65.806640625 l 1
 531.50390625 9.4375 l 1
 456.259765625 150.8984375 l 1
 405.09375 328.474609375 l 1
 370.1015625 411.9140625 l 1
 374.287109375 419.08984375 l 1
 348.76953125 452.265625 l 1
 305.388671875 498.197265625 l 1
 279.869140625 539.02734375 l 1
 259.455078125 574.75390625 l 1
 226.28125 630.89453125 l 1
 198.2109375 671.72265625 l 1
 159.93359375 697.2421875 l 1
 103.79296875 717.65625 l 1
 45.099609375 727.86328125 l 1
 -13.591796875 730.416015625 l 1
 -46.765625 730.416015625 l 1
781.2890625 207.458984375 m 1
 808.76953125 204.708984375 l 1
 839 185.47265625 l 1
 839 147 l 1
 817.015625 127.76171875 l 1
 789.533203125 100.28125 l 1
 731.822265625 103.029296875 l 1
 718.08203125 127.76171875 l 1
 715.333984375 155.244140625 l 1
 742.814453125 193.716796875 l 1
 767.548828125 201.9609375 l 1
 781.2890625 207.458984375 l 1
167.587890625 46.521484375 m 1
 208.41796875 46.521484375 l 1
 221.177734375 26.107421875 l 1
 205.865234375 -1.962890625 l 1
 175.244140625 -27.482421875 l 1
 136.966796875 -53 l 1
 108.896484375 -53 l 1
 101.240234375 -27.482421875 l 1
 103.79296875 -7.06640625 l 1
 121.65625 26.107421875 l 1
 167.587890625 46.521484375 l 1
EndSplineSet
LCarets2: 1 0
Ligature2: "'liga' +A5oDvwO5A70DrAAA +A8ADvwO7A7sDsQPAA7sDrAAA +A8MDxAO/A7kDxwO1A68DsQAA in +A5UDuwO7A7cDvQO5A7oDrgAA lookup 0-1" uniE045 alpha
EndChar

StartChar: uniE055
Encoding: 63 57429 61
Width: 1378
VWidth: 924
Flags: W
LayerCount: 2
Fore
SplineSet
522.8359375 727.890625 m 5
 329.05078125 677.650390625 l 5
 207.0390625 609.46875 l 5
 95.79296875 465.923828125 l 5
 24.021484375 308.02734375 l 5
 2.490234375 175.248046875 l 5
 -11.865234375 71.1796875 l 5
 2.490234375 -4.1796875 l 5
 34.787109375 -104.66015625 l 5
 113.736328125 -169.255859375 l 5
 257.279296875 -140.546875 l 5
 332.640625 -36.478515625 l 5
 336.228515625 53.236328125 l 5
 314.697265625 132.185546875 l 5
 246.513671875 182.42578125 l 5
 199.86328125 207.546875 l 5
 235.748046875 243.431640625 l 5
 311.109375 243.431640625 l 5
 400.82421875 135.7734375 l 5
 483.361328125 60.4140625 l 5
 583.841796875 -93.89453125 l 5
 662.791015625 -201.552734375 l 5
 716.619140625 -233.849609375 l 5
 802.74609375 -266.1484375 l 5
 921.16796875 -248.205078125 l 5
 1000.1171875 -201.552734375 l 5
 1061.12304688 -136.958984375 l 5
 1061.12304688 -61.59765625 l 5
 1068.30078125 6.5859375 l 5
 1068.30078125 53.185546875 l 5
 1105.125 27.087890625 l 5
 1202.46679688 7.87890625 l 5
 1284.59960938 7.87890625 l 5
 1354.56445312 32.576171875 l 5
 1445.82421875 73.73046875 l 5
 1503.62109375 131.3515625 l 5
 1546.20703125 194.458984375 l 5
 1564.45898438 243.84765625 l 5
 1543.16601562 290.490234375 l 5
 1497.53710938 315.185546875 l 5
 1454.94921875 298.72265625 l 5
 1433.65625 271.28515625 l 5
 1403.234375 208.177734375 l 5
 1372.81640625 156.044921875 l 5
 1343.10742188 129.248046875 l 5
 1340.22460938 130.4296875 l 5
 1273.734375 116.80078125 l 5
 1217.67773438 123.119140625 l 5
 1165.96289062 145.0703125 l 5
 1169.00390625 177.99609375 l 5
 1177.70898438 215.669921875 l 5
 1178.77148438 218.357421875 l 5
 1178.58007812 219.44921875 l 5
 1184.21679688 243.84765625 l 5
 1211.59375 290.490234375 l 5
 1205.50976562 337.13671875 l 5
 1184.21679688 353.59765625 l 5
 1138.5859375 348.111328125 l 5
 1111.20898438 323.41796875 l 5
 1097.72460938 312.470703125 l 5
 1077.74609375 271.28515625 l 5
 1047.328125 246.591796875 l 5
 1019.95117188 241.103515625 l 5
 1002.70898438 252.2109375 l 5
 1002.0859375 251.328125 l 5
 1000.47851562 253.6484375 l 5
 998.65625 254.822265625 l 5
 998.759765625 256.12890625 l 5
 986.853515625 273.3125 l 5
 956.390625 289.796875 l 5
 901.55859375 295.29296875 l 5
 828.4453125 287.05078125 l 5
 788.845703125 262.3203125 l 5
 767.521484375 218.357421875 l 5
 758.380859375 171.646484375 l 5
 767.521484375 105.701171875 l 5
 791.890625 67.232421875 l 5
 834.541015625 26.015625 l 5
 883.279296875 23.267578125 l 5
 944.205078125 37.0078125 l 5
 966.189453125 53.232421875 l 5
 971.408203125 -4.1796875 l 5
 967.8203125 -58.009765625 l 5
 964.232421875 -101.072265625 l 5
 928.345703125 -147.724609375 l 5
 878.10546875 -176.43359375 l 5
 824.27734375 -180.021484375 l 5
 766.859375 -165.66796875 l 5
 723.796875 -111.837890625 l 5
 648.435546875 -29.30078125 l 5
 619.7265625 13.76171875 l 5
 562.310546875 114.2421875 l 5
 494.126953125 189.603515625 l 5
 433.12109375 261.375 l 5
 379.291015625 311.615234375 l 5
 329.05078125 340.32421875 l 5
 253.69140625 340.32421875 l 5
 160.388671875 343.912109375 l 5
 131.6796875 340.32421875 l 5
 185.5078125 455.158203125 l 5
 278.810546875 555.638671875 l 5
 408 631 l 5
 533.6015625 666.884765625 l 5
 616.138671875 695.59375 l 5
 522.8359375 727.890625 l 5
925.927734375 212.861328125 m 5
 956.390625 210.11328125 l 5
 989.900390625 190.87890625 l 5
 989.900390625 152.412109375 l 5
 965.53125 133.177734375 l 5
 935.06640625 105.701171875 l 5
 871.09375 108.44921875 l 5
 855.86328125 133.177734375 l 5
 852.81640625 160.65625 l 5
 883.279296875 199.123046875 l 5
 910.697265625 207.365234375 l 5
 925.927734375 212.861328125 l 5
92.205078125 150.12890625 m 5
 117.32421875 150.12890625 l 5
 181.919921875 128.59765625 l 5
 221.39453125 103.4765625 l 5
 246.513671875 71.1796875 l 5
 250.103515625 17.3515625 l 5
 232.16015625 -36.478515625 l 5
 196.2734375 -75.953125 l 5
 156.798828125 -83.12890625 l 5
 110.1484375 -58.009765625 l 5
 88.615234375 -0.591796875 l 5
 77.849609375 46.060546875 l 5
 77.849609375 92.7109375 l 5
 81.439453125 128.59765625 l 5
 92.205078125 150.12890625 l 5
EndSplineSet
LCarets2: 1 0
Ligature2: "'liga' +A5oDvwO5A70DrAAA +A8ADvwO7A7sDsQPAA7sDrAAA +A8MDxAO/A7kDxwO1A68DsQAA in +A5UDuwO7A7cDvQO5A7oDrgAA lookup 0-1" uniE046 alpha
EndChar

StartChar: uniE056
Encoding: 64 57430 62
Width: 720
VWidth: 924
Flags: W
VStem: 248.733 82.0244<-74.8369 -42.3105> 248.733 80.6104<-74.8369 131.63>
LayerCount: 2
Fore
SplineSet
216.206054688 281.544921875 m 1x40
 182.265625 241.946289062 l 1
 127.111328125 175.478515625 l 1
 91.755859375 145.780273438 l 1
 86.0986328125 130.223632812 l 1
 86.0986328125 96.2822265625 l 1
 110.140625 86.3828125 l 1
 110.140625 86.3828125 141.215820312 88.9951171875 155.395507812 94.8681640625 c 0
 165.421875 99.021484375 182.97265625 108.303710938 182.97265625 108.303710938 c 1
 207.720703125 118.203125 l 1
 226.8125 112.545898438 l 1
 234.590820312 92.0400390625 l 1
 231.762695312 56.6845703125 l 1
 195.075195312 -16.564453125 92.4423828125 -15.2236328125 30.9443359375 18.5009765625 c 1
 -0.16796875 41.1279296875 l 1
 -24.2099609375 103.353515625 l 1
 -24.2099609375 162.750976562 l 1
 -8.6533203125 181.135742188 l 1
 53.5712890625 229.21875 l 1
 98.826171875 290.030273438 l 1
 159.637695312 372.0546875 l 1
 203.478515625 428.623046875 l 1
 269.946289062 475.291992188 l 1
 298.23046875 482.36328125 l 1
 333.5859375 473.877929688 l 1
 350.556640625 447.0078125 l 1
 360.456054688 390.439453125 l 1
 351.970703125 335.28515625 l 1
 335 307 l 1
 325.100585938 268.81640625 l 1
 323.686523438 116.08203125 l 1
 325.100585938 18.5009765625 l 1
 329.34375 -42.310546875 l 1x40
 330.7578125 -74.8369140625 l 1
 342.071289062 -90.3935546875 l 1
 351.970703125 -87.5654296875 l 1
 363.284179688 -84.736328125 l 1
 404.296875 -30.99609375 l 1
 483.4921875 67.998046875 l 1
 557.032226562 178.306640625 l 1
 612.186523438 258.916992188 l 1
 664.51171875 308.415039062 l 1
 704.110351562 335.28515625 l 1
 722.495117188 338.11328125 l 1
 735.22265625 322.556640625 l 1
 736.63671875 281.544921875 l 1
 732.39453125 230.6328125 l 1
 716.837890625 191.03515625 l 1
 665.92578125 137.294921875 l 1
 609.357421875 89.2119140625 l 1
 557.032226562 31.228515625 l 1
 483.4921875 -53.6240234375 l 1
 429.752929688 -128.577148438 l 1
 395.811523438 -176.66015625 l 1
 364.698242188 -220.500976562 l 1
 335 -285.5546875 l 1
 326.514648438 -325.153320312 l 1
 326.514648438 -360.508789062 l 2
 329.202148438 -392.758789062 327.365234375 -457.529296875 268.532226562 -453.846679688 c 0
 250.942382812 -449.752929688 237.828125 -435.532226562 224.69140625 -424.1484375 c 1
 213.377929688 -398.692382812 l 1
 206.306640625 -367.579101562 l 1
 213.377929688 -335.052734375 l 1
 244.490234375 -268.584960938 l 1
 258.6328125 -237.471679688 l 1
 251.561523438 -162.518554688 l 1
 248.733398438 -50.7958984375 l 1x80
 248.733398438 -1.2978515625 l 1
 245.905273438 86.3828125 l 1
 243.076171875 176.892578125 l 1
 236.004882812 253.260742188 l 1
 216.206054688 281.544921875 l 1x40
EndSplineSet
LCarets2: 1 0
Ligature2: "'liga' +A5oDvwO5A70DrAAA +A8ADvwO7A7sDsQPAA7sDrAAA +A8MDxAO/A7kDxwO1A68DsQAA in +A5UDuwO7A7cDvQO5A7oDrgAA lookup 0-1" uniE046 gamma
EndChar

StartChar: uniE057
Encoding: 65 57431 63
Width: 498
VWidth: 924
Flags: W
LayerCount: 2
Fore
SplineSet
476.666015625 433.521484375 m 1
 448.0859375 431.138671875 l 1
 393.306640625 409.703125 l 1
 324.236328125 378.7421875 l 1
 228.966796875 345.3984375 l 1
 150.37109375 319.19921875 l 1
 19.375 250.12890625 l 1
 -11.5859375 214.40234375 l 1
 -6.822265625 147.71484375 l 1
 69.392578125 81.02734375 l 1
 107.5 31.01171875 l 1
 174.1875 -7.09765625 l 1
 257.546875 -40.44140625 l 1
 252.78515625 -119.037109375 l 1
 243.2578125 -180.962890625 l 1
 231.349609375 -319.1015625 l 1
 236.11328125 -366.736328125 l 1
 255.166015625 -390.552734375 l 1
 286.12890625 -411.98828125 l 1
 355.19921875 -409.607421875 l 1
 414.7421875 -383.408203125 l 1
 414.7421875 -383.408203125 455.231445312 -335.772460938 464.7578125 -326.24609375 c 0
 474.28515625 -316.71875 471.90234375 -283.376953125 471.90234375 -283.376953125 c 1
 462.375 -257.177734375 l 1
 436.17578125 -259.55859375 l 1
 402.83203125 -285.7578125 l 1
 352.81640625 -314.337890625 l 1
 319.47265625 -307.193359375 l 1
 326.6171875 -240.505859375 l 1
 326.6171875 -188.107421875 l 1
 338.525390625 -119.037109375 l 1
 340.908203125 -61.876953125 l 1
 352.81640625 -2.333984375 l 1
 350.435546875 28.62890625 l 1
 359.9609375 102.462890625 l 1
 359.9609375 176.294921875 l 1
 350.435546875 228.693359375 l 1
 326.6171875 271.564453125 l 1
 329 293 l 1
 417.123046875 319.19921875 l 1
 486.193359375 350.16015625 l 1
 502.865234375 388.26953125 l 1
 495.71875 414.466796875 l 1
 476.666015625 433.521484375 l 1
219.439453125 250.12890625 m 1
 245.638671875 235.837890625 l 1
 257.546875 176.294921875 l 1
 269.45703125 102.462890625 l 1
 262.310546875 54.828125 l 1
 217.05859375 47.68359375 l 1
 143.224609375 111.98828125 l 1
 121.7890625 154.859375 l 1
 117.02734375 183.44140625 l 1
 188.478515625 233.45703125 l 1
 219.439453125 250.12890625 l 1
EndSplineSet
LCarets2: 1 0
Ligature2: "'liga' +A5oDvwO5A70DrAAA +A8ADvwO7A7sDsQPAA7sDrAAA +A8MDxAO/A7kDxwO1A68DsQAA in +A5UDuwO7A7cDvQO5A7oDrgAA lookup 0-1" uniE046 iota
EndChar

StartChar: uniE058
Encoding: 66 57432 64
Width: 1000
VWidth: 924
HStem: 233.885 102.074<630.99 705.754 721.064 758.404>
LayerCount: 2
Fore
SplineSet
376.56640625 940.74609375 m 5
 325.529296875 935.642578125 l 5
 310.216796875 910.123046875 l 5
 307.666015625 864.19140625 l 5
 305.11328125 823.361328125 l 5
 300.009765625 787.634765625 l 5
 300.009765625 764.66796875 l 5
 304.416015625 760.26171875 l 5
 293.82421875 726.134765625 l 5
 281.06640625 685.3046875 l 5
 247.892578125 626.611328125 l 5
 207.0625 565.3671875 l 5
 166.232421875 506.67578125 l 5
 120.298828125 453.0859375 l 5
 74.3671875 396.947265625 l 5
 38.640625 366.32421875 l 5
 13.123046875 340.806640625 l 5
 8.01953125 307.6328125 l 5
 17.955078125 300.1796875 l 5
 0.568359375 282.791015625 l 5
 -10.42578125 252.5625 l 5
 -13.173828125 200.34765625 l 5
 -13.173828125 156.376953125 l 5
 -7.67578125 95.91796875 l 5
 6.064453125 68.4375 l 5
 47.28515625 32.7109375 l 5
 74.767578125 16.22265625 l 5
 118.73828125 -0.265625 l 5
 162.70703125 2.482421875 l 5
 201.181640625 21.71875 l 5
 231.412109375 54.6953125 l 5
 264.388671875 95.91796875 l 5
 278.12890625 134.392578125 l 5
 283.625 178.36328125 l 5
 275.380859375 236.07421875 l 5
 250.6484375 271.798828125 l 5
 220.41796875 299.28125 l 5
 181.59375 319.98828125 l 5
 181.54296875 320.390625 l 5
 181.54296875 338.25390625 l 5
 212.166015625 379.083984375 l 5
 250.443359375 437.775390625 l 5
 309.13671875 521.986328125 l 5
 362.724609375 606.197265625 l 5
 389.775390625 669.314453125 l 5
 394.427734375 662.595703125 l 5
 437.810546875 626.869140625 l 5
 511.8125 573.28125 l 5
 552.642578125 540.107421875 l 5
 616.439453125 512.037109375 l 5
 690.44140625 468.654296875 l 5
 766.998046875 415.06640625 l 5
 812.9296875 386.99609375 l 5
 833.345703125 366.58203125 l 5
 818.033203125 343.615234375 l 5
 772.1015625 335.958984375 l 5
 705.75390625 338.51171875 l 5
 606.23046875 330.85546875 l 5
 575.609375 320.6484375 l 5
 557.74609375 302.78515625 l 5
 562.849609375 277.267578125 l 5
 588.369140625 256.8515625 l 5
 613.88671875 241.541015625 l 5
 654.716796875 233.884765625 l 5
 721.064453125 231.333984375 l 5
 761.89453125 226.23046875 l 5
 792.515625 223.677734375 l 5
 807.826171875 200.7109375 l 5
 797.619140625 180.296875 l 5
 749.134765625 159.8828125 l 5
 721.064453125 147.123046875 l 5
 675.130859375 116.5 l 5
 631.75 83.326171875 l 5
 596.0234375 50.15234375 l 5
 555.1953125 6.771484375 l 5
 516.916015625 -36.609375 l 5
 504.158203125 -69.783203125 l 5
 499.0546875 -102.95703125 l 5
 504.158203125 -148.890625 l 5
 524.572265625 -171.857421875 l 5
 560.298828125 -197.375 l 5
 618.990234375 -225.4453125 l 5
 667.474609375 -245.861328125 l 5
 708.3046875 -258.619140625 l 5
 782.30859375 -276.482421875 l 5
 841 -286.689453125 l 5
 871.623046875 -304.552734375 l 5
 894.58984375 -309.65625 l 5
 909.900390625 -322.416015625 l 5
 920.107421875 -340.279296875 l 5
 897.140625 -358.142578125 l 5
 863.966796875 -373.453125 l 5
 858.86328125 -383.66015625 l 5
 866.51953125 -404.07421875 l 5
 892.037109375 -419.38671875 l 5
 925.2109375 -419.38671875 l 5
 968.591796875 -409.177734375 l 5
 1004.31835938 -388.763671875 l 5
 1024.73242188 -355.58984375 l 5
 1011.97460938 -309.65625 l 5
 983.904296875 -286.689453125 l 5
 955.833984375 -253.515625 l 5
 889.486328125 -240.7578125 l 5
 838.44921875 -227.998046875 l 5
 782.30859375 -210.134765625 l 5
 705.75390625 -194.82421875 l 5
 657.267578125 -176.9609375 l 5
 626.646484375 -161.650390625 l 5
 601.126953125 -143.787109375 l 5
 598.576171875 -115.716796875 l 5
 613.88671875 -79.990234375 l 5
 644.509765625 -36.609375 l 5
 705.75390625 14.427734375 l 5
 756.7890625 45.048828125 l 5
 828.2421875 80.775390625 l 5
 871.623046875 113.94921875 l 5
 925.211914062 142.01953125 l 5
 945.626953125 159.8828125 l 5
 958.384765625 180.296875 l 5
 958.384765625 218.57421875 l 5
 948.177734375 246.64453125 l 5
 935.41796875 259.404296875 l 5
 925.211914062 279.818359375 l 5
 943.07421875 302.78515625 l 5
 955.833984375 320.6484375 l 5
 955.833984375 366.58203125 l 5
 925.211914062 409.962890625 l 5
 892.037109375 432.9296875 l 5
 841 461 l 5
 779.755859375 499.27734375 l 5
 715.961914062 540.107421875 l 5
 670.02734375 583.48828125 l 5
 616.439453125 624.31640625 l 5
 547.5390625 672.802734375 l 5
 491.399414062 716.18359375 l 5
 448.017578125 767.220703125 l 5
 435.2578125 792.73828125 l 5
 432.740234375 809.525390625 l 5
 434.17578125 815.44921875 l 5
 444.3828125 866.484375 l 5
 444.3828125 899.658203125 l 5
 423.96875 937.9375 l 5
 395.899414062 940.48828125 l 5
 382.92578125 938.7578125 l 5
 376.56640625 940.74609375 l 5
151.71484375 252.5625 m 5
 170.953125 227.828125 l 5
 187.44140625 200.34765625 l 5
 187.44140625 167.369140625 l 5
 179.197265625 142.63671875 l 5
 165.455078125 117.904296875 l 5
 143.470703125 98.666015625 l 5
 113.2421875 95.91796875 l 5
 94.00390625 101.4140625 l 5
 91.255859375 128.896484375 l 5
 91.255859375 150.880859375 l 5
 96.751953125 183.859375 l 5
 110.494140625 233.32421875 l 5
 129.73046875 249.814453125 l 5
 151.71484375 252.5625 l 5
EndSplineSet
LCarets2: 1 0
Ligature2: "'liga' +A5oDvwO5A70DrAAA +A8ADvwO7A7sDsQPAA7sDrAAA +A8MDxAO/A7kDxwO1A68DsQAA in +A5UDuwO7A7cDvQO5A7oDrgAA lookup 0-1" uniE046 xi
EndChar

StartChar: uniE059
Encoding: 67 57433 65
Width: 806
VWidth: 924
Flags: W
VStem: -1.68164 99.873<86.4891 159.218>
LayerCount: 2
Fore
SplineSet
553.47265625 609.4140625 m 1
 502.880859375 595.18359375 l 1
 338.453125 459.216796875 l 1
 290.767578125 422.587890625 l 1
 276.716796875 416.7734375 l 1
 176.142578125 343.80859375 l 1
 97.26171875 264.927734375 l 1
 53.02734375 215.587890625 l 2
 50.2568359375 213.346679688 48.04296875 211.404296875 47.193359375 210.1875 c 1
 47.83984375 212.177734375 l 1
 43.689453125 206.395507812 39.8837890625 200.403320312 36.11328125 194.369140625 c 0
 28.5947265625 182.661132812 21.6494140625 170.580078125 15.66796875 158.0078125 c 0
 6.05859375 136.78515625 -2.1474609375 114.6015625 -1.681640625 90.921875 c 0
 -1.61328125 89.1640625 -1.46484375 87.8583984375 -1.33984375 86.421875 c 1
 -2.439453125 86.626953125 l 1
 -1.806640625 78.6015625 l 1
 -2.185546875 75.75390625 l 1
 -1.462890625 74.251953125 l 1
 0.560546875 48.626953125 l 1
 8.560546875 36.626953125 l 1
 20.560546875 23.626953125 l 1
 40.560546875 9.626953125 l 1
 75.560546875 -3.373046875 l 1
 131.560546875 -6.373046875 l 1
 206.560546875 1.626953125 l 1
 230.560546875 12.626953125 l 1
 248.25 31.298828125 l 2
 250.4765625 33.068359375 252.696289062 34.84765625 254.8046875 36.779296875 c 0
 268.29296875 49.4267578125 265.515625 43.5986328125 274.40625 59.939453125 c 0
 279.317382812 69.8076171875 282.474609375 73.9931640625 285.16796875 80.21484375 c 1
 289.11328125 69.06640625 l 1
 329.771484375 -21.2109375 l 1
 369.974609375 -34.48828125 l 1
 411.083984375 -49.169921875 l 1
 459.533203125 -56.51171875 l 1
 507.982421875 -46.234375 l 1
 545.59375 -40.298828125 l 1
 577.328125 15.15234375 l 1
 591.55859375 74.10546875 l 1
 591.55859375 113.74609375 l 1
 585.685546875 162.1953125 l 1
 600.3671875 171.00390625 l 1
 628.263671875 182.75 l 1
 692.86328125 185.685546875 l 1
 792.69921875 188.623046875 l 1
 857.30078125 187.154296875 l 1
 867.578125 201.8359375 l 1
 871.982421875 225.328125 l 1
 858.767578125 257.626953125 l 1
 826.35546875 264.064453125 l 1
 766.16015625 262.595703125 l 1
 663.388671875 261.126953125 l 1
 567.95703125 259.658203125 l 1
 516.00390625 270.7265625 l 1
 484.607421875 278.6328125 l 1
 430.05859375 281.119140625 l 1
 386.013671875 282.5859375 l 1
 361.107421875 274.7578125 l 1
 343.06640625 277.91796875 319.416992188 282.395507812 295.712890625 286.580078125 c 1
 306.833984375 313.76171875 l 1
 366.912109375 369.09765625 l 1
 447.544921875 427.595703125 l 1
 512.3671875 479.76953125 l 1
 562.958984375 525.619140625 l 1
 585.09375 552.49609375 l 1
 585.09375 579.373046875 l 1
 577.189453125 607.83203125 l 1
 553.47265625 609.4140625 l 1
165.00390625 195.337890625 m 1
 169.280273438 195.063476562 183.383789062 193.594726562 200.259765625 192.0859375 c 1
 203.751953125 189.990234375 l 1
 215.583984375 174.21484375 l 1
 224.712890625 165.0859375 l 2
 223.845703125 161.866210938 223.217773438 158.421875 222.94921875 154.677734375 c 0
 222.3203125 146.6015625 222.036132812 138.50390625 221.552734375 130.41796875 c 0
 220.956054688 120.216796875 219.500976562 110.120117188 217.42578125 100.134765625 c 0
 213.80859375 95.6552734375 209.795898438 91.5078125 205.521484375 87.623046875 c 0
 200.060546875 82.9189453125 193.8125 79.2939453125 187.4140625 76.041015625 c 0
 178.345703125 71.3974609375 168.682617188 68.1875 158.927734375 65.35546875 c 0
 155.180664062 64.59375 151.458984375 63.1396484375 147.59375 63 c 0
 144.685546875 62.8955078125 140.607421875 63.8095703125 137.794921875 64.162109375 c 0
 133.00390625 65.1943359375 128.041992188 65.890625 123.4453125 67.677734375 c 0
 120.025390625 69.0068359375 116.825195312 71.4462890625 113.810546875 73.474609375 c 0
 110.817382812 78.72265625 107.340820312 83.716796875 105.166015625 89.404296875 c 0
 104.609375 90.861328125 104.241210938 92.3837890625 103.779296875 93.873046875 c 0
 99.919921875 107.3046875 98.5986328125 121.28515625 98.19140625 135.205078125 c 0
 98.2822265625 136.651367188 98.232421875 138.112304688 98.46484375 139.54296875 c 0
 98.6103515625 140.436523438 99.05078125 141.256835938 99.314453125 142.123046875 c 0
 100.818359375 147.05859375 100.823242188 147.831054688 102.75 152.853515625 c 0
 103.590820312 155.04296875 104.534179688 157.1875 105.509765625 159.318359375 c 0
 109.552734375 160.249023438 113.540039062 161.202148438 115.12890625 163.330078125 c 0
 119.751953125 169.458984375 125.4765625 174.59765625 131.3046875 179.54296875 c 0
 135.227539062 182.8203125 139.544921875 185.580078125 144.130859375 187.82421875 c 0
 147.485351562 189.349609375 150.913085938 190.702148438 154.392578125 191.9140625 c 0
 157.927734375 192.987304688 161.44140625 194.126953125 164.939453125 195.31640625 c 0
 164.9609375 195.323242188 164.982421875 195.331054688 165.00390625 195.337890625 c 1
425.654296875 188.623046875 m 1
 456.486328125 182.75 l 1
 475.572265625 171.00390625 l 1
 494.658203125 156.322265625 l 1
 504.935546875 128.427734375 l 1
 502 102 l 1
 489.23828125 55.921875 l 1
 470.150390625 36.8359375 l 1
 445.19140625 23.623046875 l 1
 418.765625 23.623046875 l 1
 398.2109375 26.55859375 l 1
 370.767578125 65.521484375 l 1
 356.0859375 96.353515625 l 1
 351.681640625 115.439453125 l 1
 369.86328125 144.578125 l 1
 386.013671875 169.537109375 l 1
 405.099609375 178.345703125 l 1
 425.654296875 188.623046875 l 1
EndSplineSet
LCarets2: 1 0
Ligature2: "'liga' +A5oDvwO5A70DrAAA +A8ADvwO7A7sDsQPAA7sDrAAA +A8MDxAO/A7kDxwO1A68DsQAA in +A5UDuwO7A7cDvQO5A7oDrgAA lookup 0-1" uniE046 sigma
EndChar

StartChar: uniE060
Encoding: 68 57440 66
Width: 865
VWidth: 924
Flags: W
LayerCount: 2
Fore
SplineSet
476.62109375 596.150390625 m 1
 429.970703125 567.640625 l 1
 347.033203125 497.6640625 l 1
 232.99609375 412.134765625 l 1
 144.876953125 326.607421875 l 1
 67.123046875 241.080078125 l 1
 23.064453125 178.876953125 l 1
 -5.4453125 140 l 1
 -8.037109375 98.533203125 l 1
 7.513671875 59.65625 l 1
 46.390625 25.962890625 l 1
 98.224609375 5.228515625 l 1
 181.16015625 -7.73046875 l 1
 266.689453125 0.044921875 l 1
 339.2578125 36.330078125 l 1
 370.359375 54.47265625 l 1
 409.236328125 10.412109375 l 1
 474.029296875 -33.646484375 l 1
 541.416015625 -62.15625 l 1
 598.43359375 -75.115234375 l 1
 676.1875 -54.380859375 l 1
 772.08203125 -7.73046875 l 1
 849.833984375 49.2890625 l 1
 886.119140625 90.7578125 l 1
 912.037109375 121.857421875 l 1
 930.1796875 152.958984375 l 1
 930.1796875 186.65234375 l 1
 899.078125 199.611328125 l 1
 857.609375 194.427734375 l 1
 798 140 l 1
 738.388671875 95.94140625 l 1
 686.5546875 54.47265625 l 1
 663.228515625 33.73828125 l 1
 608.80078125 10.412109375 l 1
 569.92578125 15.595703125 l 1
 510.314453125 36.330078125 l 1
 461.0703125 90.7578125 l 1
 414.419921875 147.775390625 l 1
 378.134765625 197.01953125 l 1
 334.07421875 254.037109375 l 1
 308.158203125 292.9140625 l 1
 279.6484375 326.607421875 l 1
 344.44140625 378.443359375 l 1
 409.236328125 422.501953125 l 1
 489.580078125 482.11328125 l 1
 541.416015625 520.98828125 l 1
 554.375 544.314453125 l 1
 554.375 575.416015625 l 1
 528.45703125 596.150390625 l 1
 476.62109375 596.150390625 l 1
209.669921875 248.853515625 m 1
 258.9140625 197.01953125 l 1
 290.015625 160.734375 l 1
 313.33984375 134.81640625 l 1
 331.482421875 106.30859375 l 1
 326.298828125 85.57421875 l 1
 287.423828125 67.431640625 l 1
 186.34375 46.697265625 l 1
 111.18359375 67.431640625 l 1
 82.673828125 85.57421875 l 1
 87.857421875 127.041015625 l 1
 129.326171875 171.1015625 l 1
 181.16015625 225.529296875 l 1
 209.669921875 248.853515625 l 1
EndSplineSet
LCarets2: 1 0
Ligature2: "'liga' +A5oDvwO5A70DrAAA +A8ADvwO7A7sDsQPAA7sDrAAA +A8MDxAO/A7kDxwO1A68DsQAA in +A5UDuwO7A7cDvQO5A7oDrgAA lookup 0-1" uniE046 upsilon
EndChar

StartChar: uniE061
Encoding: 69 57441 67
Width: 880
VWidth: 924
Flags: W
LayerCount: 2
Fore
SplineSet
508.787109375 491.1328125 m 1
 468.798828125 477.8046875 l 1
 425.48046875 441.1484375 l 1
 355.501953125 394.498046875 l 1
 278.861328125 361.173828125 l 1
 182.224609375 307.859375 l 1
 125.576171875 281.201171875 l 1
 48.93359375 227.884765625 l 1
 -1.048828125 187.896484375 l 1
 -7.71484375 87.9296875 l 1
 -1.048828125 37.9453125 l 1
 45.6015625 7.955078125 l 1
 105.58203125 -5.373046875 l 1
 195.5546875 -8.70703125 l 1
 282.193359375 27.94921875 l 1
 326.51953125 43.462890625 l 1
 338.841796875 21.283203125 l 1
 405.486328125 -72.01953125 l 1
 421.0703125 -94.28125 l 1
 378.828125 -122.00390625 l 1
 282.193359375 -191.981445312 l 1
 135.57421875 -278.619140625 l 1
 5.615234375 -345.263671875 l 1
 22.27734375 -388.583984375 l 1
 42.26953125 -401.912109375 l 1
 92.25390625 -395.248046875 l 1
 142.23828125 -371.921875 l 1
 208.8828125 -325.271484375 l 1
 298.853515625 -271.955078125 l 1
 438.80859375 -201.9765625 l 1
 477.044921875 -173.71484375 l 1
 582.095703125 -288.615234375 l 1
 652.07421875 -341.931640625 l 1
 722.05078125 -365.2578125 l 1
 755.373046875 -358.59375 l 1
 748.708984375 -291.94921875 l 1
 625.416015625 -195.3125 l 1
 562.103515625 -125.3359375 l 1
 557.525390625 -118.755859375 l 1
 578.763671875 -105.341796875 l 1
 692.060546875 -15.37109375 l 1
 762.0390625 34.61328125 l 1
 828.68359375 47.94140625 l 1
 888.6640625 77.931640625 l 1
 941.98046875 144.578125 l 1
 961.974609375 177.900390625 l 1
 941.98046875 217.88671875 l 1
 891.99609375 221.21875 l 1
 845.345703125 211.22265625 l 1
 802.025390625 187.896484375 l 1
 718.71875 144.578125 l 1
 608.75390625 37.9453125 l 1
 503.07421875 -39.171875 l 1
 438.80859375 67.935546875 l 1
 385.4921875 151.2421875 l 1
 352.169921875 241.212890625 l 1
 344.80078125 273.150390625 l 1
 368.83203125 284.533203125 l 1
 455.470703125 341.181640625 l 1
 542.109375 407.826171875 l 1
 582.095703125 447.8125 l 1
 572.099609375 477.8046875 l 1
 508.787109375 491.1328125 l 1
226.02734375 213.767578125 m 1
 288.857421875 111.255859375 l 1
 299 93 l 1
 295.521484375 91.26171875 l 1
 255.53515625 74.599609375 l 1
 208.8828125 67.935546875 l 1
 132.240234375 54.607421875 l 1
 102.25 74.599609375 l 1
 102.25 101.2578125 l 1
 132.240234375 147.91015625 l 1
 172.228515625 177.900390625 l 1
 226.02734375 213.767578125 l 1
EndSplineSet
Ligature2: "'liga' +A5oDvwO5A70DrAAA +A8ADvwO7A7sDsQPAA7sDrAAA +A8MDxAO/A7kDxwO1A68DsQAA in +A5UDuwO7A7cDvQO5A7oDrgAA lookup 0-1" uniE046 chi
EndChar

StartChar: uniE062
Encoding: 70 57442 68
Width: 637
VWidth: 924
Flags: W
HStem: 485.311 53.5879<10.8594 45.8594>
LayerCount: 2
Fore
SplineSet
89.666015625 551.5078125 m 1
 7.70703125 538.8984375 l 1
 -8.0546875 519.984375 l 1
 10.859375 485.310546875 l 1
 58.14453125 475.853515625 l 1
 105.427734375 482.158203125 l 1
 177.9296875 447.482421875 l 1
 256.736328125 400.19921875 l 1
 316.630859375 356.06640625 l 1
 345 334 l 1
 285.412109375 288.955078125 l 1
 156.84375 218.625 l 1
 68.103515625 163.275390625 l 1
 11.361328125 124.53515625 l 1
 -26.46484375 80.40234375 l 1
 -39.07421875 48.87890625 l 1
 -13.85546875 11.052734375 l 1
 27.123046875 -1.556640625 l 1
 74.408203125 4.748046875 l 1
 127.99609375 33.119140625 l 1
 150.0625 67.79296875 l 1
 153.21484375 111.92578125 l 1
 153.21484375 125.447265625 l 1
 225.345703125 159.646484375 l 1
 382.828125 264.650390625 l 1
 411.19921875 286.716796875 l 1
 464.787109375 264.650390625 l 1
 461.634765625 239.431640625 l 1
 414.3515625 176.38671875 l 1
 373.37109375 135.408203125 l 1
 370.21875 40.83984375 l 1
 398.58984375 -12.75 l 1
 455.330078125 -31.6640625 l 1
 527.83203125 -31.6640625 l 1
 584.57421875 -6.4453125 l 1
 628.705078125 47.142578125 l 1
 635.009765625 94.427734375 l 1
 635.009765625 154.3203125 l 1
 613.791015625 233.84375 l 1
 557.8984375 270.173828125 l 1
 502.615234375 321.390625 l 1
 408.046875 393.89453125 l 1
 291.412109375 472.701171875 l 1
 212.60546875 523.13671875 l 1
 149.55859375 551.5078125 l 1
 89.666015625 551.5078125 l 1
524.6796875 151.16796875 m 1
 549.8984375 129.103515625 l 1
 549.8984375 91.275390625 l 1
 534.13671875 53.447265625 l 1
 493.158203125 31.3828125 l 1
 455.330078125 47.142578125 l 1
 455.330078125 78.666015625 l 1
 461.634765625 107.037109375 l 1
 493.158203125 148.015625 l 1
 524.6796875 151.16796875 l 1
EndSplineSet
LCarets2: 1 0
Ligature2: "'liga' +A5oDvwO5A70DrAAA +A8ADvwO7A7sDsQPAA7sDrAAA +A8MDxAO/A7kDxwO1A68DsQAA in +A5UDuwO7A7cDvQO5A7oDrgAA lookup 0-1" uniE047 omicron
EndChar

